M48
; DRILL file {KiCad 7.0.2} date Fri Feb 16 13:22:24 2024
; FORMAT={-:-/ absolute / inch / decimal}
; #@! TF.CreationDate,2024-02-16T13:22:24+02:00
; #@! TF.GenerationSoftware,Kicad,Pcbnew,7.0.2
; #@! TF.FileFunction,Plated,1,2,PTH
FMAT,2
INCH
; #@! TA.AperFunction,Plated,PTH,ViaDrill
T1C0.0157
; #@! TA.AperFunction,Plated,PTH,ComponentDrill
T2C0.0256
; #@! TA.AperFunction,Plated,PTH,ComponentDrill
T3C0.0315
; #@! TA.AperFunction,Plated,PTH,ComponentDrill
T4C0.0394
; #@! TA.AperFunction,Plated,PTH,ViaDrill
T5C0.0709
%
G90
G05
T1
X2.5433Y-4.8819
X2.5512Y-2.7795
X2.6289Y-3.5108
X2.6496Y-4.0305
X2.6673Y-3.0787
X2.6762Y-4.4213
X2.6781Y-3.2165
X2.686Y-3.6772
X2.686Y-3.7825
X2.7392Y-4.3238
X2.7431Y-3.0778
X2.752Y-3.2638
X2.8189Y-3.4646
X2.8199Y-3.0787
X2.8248Y-4.3189
X2.8258Y-4.4213
X2.8287Y-4.7992
X2.8681Y-4.247
X2.874Y-4.0443
X2.8809Y-3.128
X2.9035Y-4.3652
X2.9055Y-4.5344
X2.9419Y-4.3248
X2.9567Y-3.314
X2.9626Y-2.9537
X3.0384Y-2.9793
X3.0522Y-4.3917
X3.0551Y-4.5128
X3.061Y-4.5965
X3.062Y-4.7136
X3.063Y-4.3455
X3.0659Y-4.0364
X3.0801Y-3.6098
X3.0807Y-3.0886
X3.1043Y-4.2726
X3.1102Y-2.9695
X3.1132Y-3.8602
X3.1181Y-4.7746
X3.1422Y-3.8218
X3.1496Y-4.4478
X3.1555Y-4.6585
X3.1585Y-3.6545
X3.1624Y-3.2431
X3.1969Y-4.4478
X3.1988Y-4.6585
X3.2028Y-4.0423
X3.2057Y-3.6545
X3.2136Y-3.4656
X3.2402Y-3.7224
X3.3041Y-2.7894
X3.3091Y-4.3209
X3.311Y-4.8878
X3.3189Y-3.1289
X3.3258Y-4.814
T2
X2.7008Y-4.5915
X2.7008Y-4.6415
X2.7008Y-4.6915
X2.7028Y-4.8132
X2.7028Y-4.8632
T3
X2.6919Y-2.7992
X2.6919Y-2.878
X2.7707Y-2.7992
X2.7707Y-2.878
X2.8494Y-2.7992
X2.8494Y-2.878
X2.9281Y-2.7992
X2.9281Y-2.878
X3.0069Y-2.7992
X3.0069Y-2.878
X3.0856Y-2.7992
X3.0856Y-2.878
X3.1644Y-2.7992
X3.1644Y-2.878
T4
X2.5827Y-2.8717
X2.5827Y-2.9717
X2.5827Y-3.0717
X2.5827Y-3.1717
X2.5827Y-3.2717
X2.5827Y-3.3717
X2.5827Y-3.4717
X2.5827Y-3.5717
X2.5827Y-3.6717
X2.5827Y-3.7717
X2.5827Y-3.8717
X2.5827Y-3.9717
X2.5827Y-4.0717
X2.5827Y-4.1717
X2.5827Y-4.2717
X2.5827Y-4.3717
X2.5827Y-4.4717
X2.5827Y-4.5717
X2.5827Y-4.6717
X2.5827Y-4.7717
X3.2742Y-2.8717
X3.2742Y-2.9717
X3.2742Y-3.0717
X3.2742Y-3.1717
X3.2742Y-3.2717
X3.2742Y-3.3717
X3.2742Y-3.4717
X3.2742Y-3.5717
X3.2742Y-3.6717
X3.2742Y-3.7717
X3.2742Y-3.8717
X3.2742Y-3.9717
X3.2742Y-4.0717
X3.2742Y-4.1717
X3.2742Y-4.2717
X3.2742Y-4.3717
X3.2742Y-4.4717
X3.2742Y-4.5717
X3.2742Y-4.6717
X3.2742Y-4.7717
T5
X2.9177Y-3.0315
X2.9193Y-4.6319
T0
M30
