%TF.GenerationSoftware,KiCad,Pcbnew,7.0.2*%
%TF.CreationDate,2024-02-16T13:22:18+02:00*%
%TF.ProjectId,dots_projector,646f7473-5f70-4726-9f6a-6563746f722e,rev?*%
%TF.SameCoordinates,Original*%
%TF.FileFunction,Copper,L1,Top*%
%TF.FilePolarity,Positive*%
%FSLAX46Y46*%
G04 Gerber Fmt 4.6, Leading zero omitted, Abs format (unit mm)*
G04 Created by KiCad (PCBNEW 7.0.2) date 2024-02-16 13:22:18*
%MOMM*%
%LPD*%
G01*
G04 APERTURE LIST*
G04 Aperture macros list*
%AMRoundRect*
0 Rectangle with rounded corners*
0 $1 Rounding radius*
0 $2 $3 $4 $5 $6 $7 $8 $9 X,Y pos of 4 corners*
0 Add a 4 corners polygon primitive as box body*
4,1,4,$2,$3,$4,$5,$6,$7,$8,$9,$2,$3,0*
0 Add four circle primitives for the rounded corners*
1,1,$1+$1,$2,$3*
1,1,$1+$1,$4,$5*
1,1,$1+$1,$6,$7*
1,1,$1+$1,$8,$9*
0 Add four rect primitives between the rounded corners*
20,1,$1+$1,$2,$3,$4,$5,0*
20,1,$1+$1,$4,$5,$6,$7,0*
20,1,$1+$1,$6,$7,$8,$9,0*
20,1,$1+$1,$8,$9,$2,$3,0*%
G04 Aperture macros list end*
%TA.AperFunction,SMDPad,CuDef*%
%ADD10RoundRect,0.500000X-0.500000X-1.000000X0.500000X-1.000000X0.500000X1.000000X-0.500000X1.000000X0*%
%TD*%
%TA.AperFunction,SMDPad,CuDef*%
%ADD11RoundRect,0.125000X-0.125000X-1.375000X0.125000X-1.375000X0.125000X1.375000X-0.125000X1.375000X0*%
%TD*%
%TA.AperFunction,ComponentPad*%
%ADD12R,1.000000X1.000000*%
%TD*%
%TA.AperFunction,ComponentPad*%
%ADD13O,1.000000X1.000000*%
%TD*%
%TA.AperFunction,ComponentPad*%
%ADD14R,1.350000X1.350000*%
%TD*%
%TA.AperFunction,ComponentPad*%
%ADD15O,1.350000X1.350000*%
%TD*%
%TA.AperFunction,ComponentPad*%
%ADD16C,1.700000*%
%TD*%
%TA.AperFunction,ComponentPad*%
%ADD17O,1.700000X1.700000*%
%TD*%
%TA.AperFunction,ComponentPad*%
%ADD18R,1.700000X1.700000*%
%TD*%
%TA.AperFunction,ViaPad*%
%ADD19C,3.300000*%
%TD*%
%TA.AperFunction,ViaPad*%
%ADD20C,0.800000*%
%TD*%
%TA.AperFunction,Conductor*%
%ADD21C,0.250000*%
%TD*%
G04 APERTURE END LIST*
D10*
%TO.P,D8,1,K*%
%TO.N,Net-(D1-K)*%
X72400000Y-94900000D03*
D11*
%TO.P,D8,2,A*%
%TO.N,Net-(D1-A)*%
X71000000Y-94900000D03*
%TD*%
D10*
%TO.P,D5,1,K*%
%TO.N,Net-(D4-K)*%
X76825000Y-99400000D03*
D11*
%TO.P,D5,2,A*%
%TO.N,Net-(D4-A)*%
X75425000Y-99400000D03*
%TD*%
D10*
%TO.P,D4,1,K*%
%TO.N,Net-(D4-K)*%
X72400000Y-99400000D03*
D11*
%TO.P,D4,2,A*%
%TO.N,Net-(D4-A)*%
X71000000Y-99400000D03*
%TD*%
D10*
%TO.P,D1,1,K*%
%TO.N,Net-(D1-K)*%
X76825000Y-94900000D03*
D11*
%TO.P,D1,2,A*%
%TO.N,Net-(D1-A)*%
X75425000Y-94900000D03*
%TD*%
D12*
%TO.P,JP3,1,A*%
%TO.N,Net-(JP3-A)*%
X68600000Y-116625000D03*
D13*
%TO.P,JP3,2,C*%
%TO.N,+5V*%
X68600000Y-117895000D03*
%TO.P,JP3,3,B*%
%TO.N,+5P*%
X68600000Y-119165000D03*
%TD*%
D14*
%TO.P,J2,1,Pin_1*%
%TO.N,CAM 1 GND*%
X68375000Y-73100000D03*
D15*
%TO.P,J2,2,Pin_2*%
%TO.N,CAM 2 GND*%
X68375000Y-71100000D03*
%TO.P,J2,3,Pin_3*%
%TO.N,CAM 1 5V*%
X70375000Y-73100000D03*
%TO.P,J2,4,Pin_4*%
%TO.N,CAM 2 5V*%
X70375000Y-71100000D03*
%TO.P,J2,5,Pin_5*%
%TO.N,CAM 1 TRIG*%
X72375000Y-73100000D03*
%TO.P,J2,6,Pin_6*%
%TO.N,CAM 2 TRIG*%
X72375000Y-71100000D03*
%TO.P,J2,7,Pin_7*%
%TO.N,PRJ 1 Input*%
X74375000Y-73100000D03*
%TO.P,J2,8,Pin_8*%
%TO.N,PRJ 2 Input*%
X74375000Y-71100000D03*
%TO.P,J2,9,Pin_9*%
%TO.N,PRJ 1 GND*%
X76375000Y-73100000D03*
%TO.P,J2,10,Pin_10*%
%TO.N,PRJ 2 GND*%
X76375000Y-71100000D03*
%TO.P,J2,11,Pin_11*%
%TO.N,GND*%
X78375000Y-73100000D03*
%TO.P,J2,12,Pin_12*%
%TO.N,Net-(J2-Pin_12)*%
X78375000Y-71100000D03*
%TO.P,J2,13,Pin_13*%
%TO.N,GND*%
X80375000Y-73100000D03*
%TO.P,J2,14,Pin_14*%
X80375000Y-71100000D03*
%TD*%
D12*
%TO.P,J4,1,Pin_1*%
%TO.N,GND*%
X68650000Y-123525000D03*
D13*
%TO.P,J4,2,Pin_2*%
%TO.N,Net-(J4-Pin_2)*%
X68650000Y-122255000D03*
%TD*%
D16*
%TO.P,U2,1,GP0*%
%TO.N,unconnected-(U2-GP0-Pad1)*%
X83164000Y-72940000D03*
D17*
%TO.P,U2,2,GP1*%
%TO.N,unconnected-(U2-GP1-Pad2)*%
X83164000Y-75480000D03*
D18*
%TO.P,U2,3,GND*%
%TO.N,unconnected-(U2-GND-Pad3)*%
X83164000Y-78020000D03*
D17*
%TO.P,U2,4,GP2*%
%TO.N,unconnected-(U2-GP2-Pad4)*%
X83164000Y-80560000D03*
%TO.P,U2,5,GP3*%
%TO.N,TRIG_INPUT_PRJ_2*%
X83164000Y-83100000D03*
%TO.P,U2,6,GP4*%
%TO.N,TRIG_INPUT_PRJ_1*%
X83164000Y-85640000D03*
%TO.P,U2,7,GP5*%
%TO.N,Lazer OUT*%
X83164000Y-88180000D03*
D18*
%TO.P,U2,8,GND*%
%TO.N,unconnected-(U2-GND-Pad8)*%
X83164000Y-90720000D03*
D17*
%TO.P,U2,9,GP6*%
%TO.N,unconnected-(U2-GP6-Pad9)*%
X83164000Y-93260000D03*
%TO.P,U2,10,GP7*%
%TO.N,unconnected-(U2-GP7-Pad10)*%
X83164000Y-95800000D03*
%TO.P,U2,11,GP8*%
%TO.N,unconnected-(U2-GP8-Pad11)*%
X83164000Y-98340000D03*
%TO.P,U2,12,GP9*%
%TO.N,unconnected-(U2-GP9-Pad12)*%
X83164000Y-100880000D03*
D18*
%TO.P,U2,13,GND*%
%TO.N,unconnected-(U2-GND-Pad13)*%
X83164000Y-103420000D03*
D17*
%TO.P,U2,14,GP10*%
%TO.N,DOTS_PROJECTOR_2*%
X83164000Y-105960000D03*
%TO.P,U2,15,GP11*%
%TO.N,DOTS_PROJECTOR_1*%
X83164000Y-108500000D03*
%TO.P,U2,16,GP12*%
%TO.N,unconnected-(U2-GP12-Pad16)*%
X83164000Y-111040000D03*
%TO.P,U2,17,GP13*%
%TO.N,unconnected-(U2-GP13-Pad17)*%
X83164000Y-113580000D03*
D18*
%TO.P,U2,18,GND*%
%TO.N,GND*%
X83164000Y-116120000D03*
D17*
%TO.P,U2,19,GP14*%
%TO.N,unconnected-(U2-GP14-Pad19)*%
X83164000Y-118660000D03*
%TO.P,U2,20,GP15*%
%TO.N,USER_BUTTON*%
X83164000Y-121200000D03*
D18*
%TO.P,U2,21,GP16*%
%TO.N,LED_2*%
X65600000Y-121200000D03*
D17*
%TO.P,U2,22,GP17*%
%TO.N,LED_1*%
X65600000Y-118660000D03*
D18*
%TO.P,U2,23,GND*%
%TO.N,GND*%
X65600000Y-116120000D03*
D17*
%TO.P,U2,24,GP18*%
%TO.N,unconnected-(U2-GP18-Pad24)*%
X65600000Y-113580000D03*
%TO.P,U2,25,GP19*%
%TO.N,unconnected-(U2-GP19-Pad25)*%
X65600000Y-111040000D03*
%TO.P,U2,26,GP20*%
%TO.N,unconnected-(U2-GP20-Pad26)*%
X65600000Y-108500000D03*
%TO.P,U2,27,GP21*%
%TO.N,unconnected-(U2-GP21-Pad27)*%
X65600000Y-105960000D03*
D18*
%TO.P,U2,28,GND*%
%TO.N,unconnected-(U2-GND-Pad28)*%
X65600000Y-103420000D03*
D17*
%TO.P,U2,29,GP22*%
%TO.N,TRIG_OUTPUT_1*%
X65600000Y-100880000D03*
%TO.P,U2,30,GP26*%
%TO.N,TRIG_OUTPUT_2*%
X65600000Y-98340000D03*
%TO.P,U2,31,GP27*%
%TO.N,unconnected-(U2-GP27-Pad31)*%
X65600000Y-95800000D03*
%TO.P,U2,32,GP28*%
%TO.N,unconnected-(U2-GP28-Pad32)*%
X65600000Y-93260000D03*
D18*
%TO.P,U2,33,GND*%
%TO.N,unconnected-(U2-GND-Pad33)*%
X65600000Y-90720000D03*
D17*
%TO.P,U2,34,GP29*%
%TO.N,unconnected-(U2-GP29-Pad34)*%
X65600000Y-88180000D03*
%TO.P,U2,35,ADC_VREF*%
%TO.N,unconnected-(U2-ADC_VREF-Pad35)*%
X65600000Y-85640000D03*
%TO.P,U2,36,GP24*%
%TO.N,+3.3V*%
X65600000Y-83100000D03*
%TO.P,U2,37,3V3*%
%TO.N,unconnected-(U2-3V3-Pad37)*%
X65600000Y-80560000D03*
D18*
%TO.P,U2,38,GND*%
%TO.N,GND*%
X65600000Y-78020000D03*
D17*
%TO.P,U2,39,VSYS*%
%TO.N,unconnected-(U2-VSYS-Pad39)*%
X65600000Y-75480000D03*
D16*
%TO.P,U2,40,VBUS*%
%TO.N,+5P*%
X65600000Y-72940000D03*
%TD*%
D19*
%TO.N,*%
X74150000Y-117650000D03*
D20*
%TO.N,GND*%
X77800000Y-110375000D03*
X79200000Y-121275000D03*
X79811818Y-97073636D03*
X68225000Y-96075000D03*
X80150000Y-118325000D03*
X73000000Y-102725000D03*
X84475000Y-122275000D03*
X71775000Y-112300000D03*
X80000000Y-112975000D03*
X78850000Y-108525000D03*
X81350000Y-102675000D03*
X84050000Y-109750000D03*
X84300000Y-79475000D03*
X64600000Y-124000000D03*
X82300000Y-94550000D03*
X69575000Y-109825000D03*
X71750000Y-109700000D03*
X75250000Y-75025000D03*
X67300000Y-102375000D03*
X79075000Y-98050000D03*
X71850000Y-121900000D03*
X77875000Y-102525000D03*
X67975000Y-112300000D03*
X64800000Y-70600000D03*
X83925000Y-70850000D03*
X73175000Y-79450000D03*
X66775000Y-89175000D03*
X84100000Y-124150000D03*
X73800000Y-115175000D03*
X73750000Y-110875000D03*
X81250000Y-118325000D03*
X81200000Y-112975000D03*
X68225000Y-93400000D03*
%TO.N,+3.3V*%
X75100000Y-84175000D03*
%TO.N,CAM 2 TRIG*%
X67750000Y-78200000D03*
%TO.N,CAM 1 TRIG*%
X69675000Y-78175000D03*
%TO.N,Net-(D4-A)*%
X77525000Y-111550000D03*
%TO.N,Net-(J4-Pin_2)*%
X72850000Y-107875000D03*
%TO.N,CAM 1 GND*%
X69900000Y-82900000D03*
X71600000Y-88000000D03*
%TO.N,Net-(D1-K)*%
X77775000Y-119725000D03*
%TO.N,PRJ 2 Input*%
X81625000Y-88025000D03*
D19*
X74110500Y-77000000D03*
D20*
X78249500Y-78450000D03*
%TO.N,PRJ 2 GND*%
X78234799Y-91689799D03*
X77175000Y-75675000D03*
%TO.N,PRJ 1 Input*%
X71625000Y-78200000D03*
X81425000Y-92825000D03*
X80325000Y-82375500D03*
%TO.N,PRJ 1 GND*%
X80225000Y-92825000D03*
%TO.N,CAM 2 5V*%
X68024500Y-81700000D03*
%TO.N,Net-(D4-K)*%
X77600000Y-114625000D03*
%TO.N,Net-(D1-A)*%
X77750000Y-116750000D03*
X74725000Y-109850000D03*
%TO.N,Lazer OUT*%
X79000000Y-75425000D03*
%TD*%
D21*
%TO.N,+3.3V*%
X65600000Y-83100000D02*
X67649805Y-83100000D01*
X68574805Y-82175000D02*
X73100000Y-82175000D01*
X73100000Y-82175000D02*
X75100000Y-84175000D01*
X67649805Y-83100000D02*
X68574805Y-82175000D01*
%TO.N,CAM 2 TRIG*%
X67750000Y-78200000D02*
X67750000Y-77175000D01*
X71375000Y-73550000D02*
X71375000Y-72025000D01*
X67750000Y-77175000D02*
X71375000Y-73550000D01*
X71375000Y-72025000D02*
X72375000Y-71025000D01*
%TO.N,CAM 1 TRIG*%
X69675000Y-78175000D02*
X69675000Y-76800000D01*
X72375000Y-74100000D02*
X72375000Y-73025000D01*
X69675000Y-76800000D02*
X72375000Y-74100000D01*
%TO.N,Net-(D4-A)*%
X71225000Y-97575000D02*
X71000000Y-97800000D01*
X75425000Y-99400000D02*
X75425000Y-97825000D01*
X75175000Y-109200000D02*
X75175000Y-106200000D01*
X71000000Y-97800000D02*
X71000000Y-99400000D01*
X75175000Y-106200000D02*
X71000000Y-102025000D01*
X71000000Y-102025000D02*
X71000000Y-99400000D01*
X75425000Y-97825000D02*
X75175000Y-97575000D01*
X77525000Y-111550000D02*
X75175000Y-109200000D01*
X75175000Y-97575000D02*
X71225000Y-97575000D01*
%TO.N,Net-(J4-Pin_2)*%
X67175000Y-112625000D02*
X67150000Y-112650000D01*
X67150000Y-112650000D02*
X67150000Y-120475000D01*
X67175000Y-109800000D02*
X67175000Y-112625000D01*
X69100000Y-107875000D02*
X67175000Y-109800000D01*
X72850000Y-107875000D02*
X69100000Y-107875000D01*
X67150000Y-120755000D02*
X67150000Y-120475000D01*
X68650000Y-122255000D02*
X67150000Y-120755000D01*
%TO.N,CAM 1 GND*%
X69900000Y-86300000D02*
X69900000Y-82900000D01*
X71600000Y-88000000D02*
X69900000Y-86300000D01*
%TO.N,Net-(D1-K)*%
X80575000Y-98950000D02*
X80575000Y-96150000D01*
X80575000Y-98950000D02*
X80575000Y-98775000D01*
X76575000Y-96925000D02*
X76650000Y-96850000D01*
X72625000Y-96925000D02*
X76575000Y-96925000D01*
X79325000Y-94900000D02*
X76825000Y-94900000D01*
X76825000Y-96675000D02*
X76575000Y-96925000D01*
X72625000Y-96925000D02*
X72550000Y-96850000D01*
X78700000Y-118800000D02*
X78700000Y-112750000D01*
X76825000Y-94900000D02*
X76825000Y-96675000D01*
X72400000Y-96700000D02*
X72550000Y-96850000D01*
X72400000Y-94900000D02*
X72400000Y-96700000D01*
X77775000Y-119725000D02*
X78700000Y-118800000D01*
X80575000Y-96150000D02*
X79325000Y-94900000D01*
X78700000Y-112750000D02*
X80575000Y-110875000D01*
X80575000Y-110875000D02*
X80575000Y-98950000D01*
%TO.N,PRJ 2 Input*%
X78375000Y-78324500D02*
X78249500Y-78450000D01*
X81325000Y-81525500D02*
X81325000Y-87725000D01*
X74375000Y-71025000D02*
X74960786Y-71025000D01*
X78249500Y-78450000D02*
X81325000Y-81525500D01*
X81325000Y-87725000D02*
X81625000Y-88025000D01*
%TO.N,PRJ 2 GND*%
X75375000Y-72025000D02*
X76375000Y-71025000D01*
X77175000Y-75675000D02*
X77175000Y-75314214D01*
X77250000Y-77125000D02*
X76825000Y-77550000D01*
X78850000Y-82700000D02*
X79975000Y-83825000D01*
X79249799Y-90674799D02*
X78234799Y-91689799D01*
X76825000Y-77550000D02*
X76825000Y-79087201D01*
X77250000Y-75750000D02*
X77250000Y-77125000D01*
X77175000Y-75314214D02*
X75375000Y-73514214D01*
X78850000Y-81112201D02*
X78850000Y-82700000D01*
X77175000Y-75675000D02*
X77250000Y-75750000D01*
X80025000Y-89825000D02*
X79249799Y-90600201D01*
X79975000Y-89775000D02*
X80025000Y-89825000D01*
X79249799Y-90600201D02*
X79249799Y-90674799D01*
X79975000Y-83825000D02*
X79975000Y-89775000D01*
X75375000Y-73514214D02*
X75375000Y-72025000D01*
X76825000Y-79087201D02*
X78850000Y-81112201D01*
%TO.N,PRJ 1 Input*%
X80325000Y-82375500D02*
X80875000Y-82925500D01*
X80875000Y-88450000D02*
X81325000Y-88900000D01*
X74375000Y-74025000D02*
X74375000Y-73025000D01*
X71625000Y-78200000D02*
X71625000Y-76100000D01*
X72694302Y-75030698D02*
X73369302Y-75030698D01*
X80875000Y-82925500D02*
X80875000Y-88450000D01*
X81325000Y-88900000D02*
X81325000Y-92725000D01*
X73369302Y-75030698D02*
X74375000Y-74025000D01*
X81325000Y-92725000D02*
X81425000Y-92825000D01*
X71625000Y-76100000D02*
X72694302Y-75030698D01*
%TO.N,PRJ 1 GND*%
X79405947Y-81031752D02*
X77450000Y-79075805D01*
X79405947Y-82525000D02*
X79405947Y-81031752D01*
X80300000Y-92825000D02*
X80875000Y-92250000D01*
X77450000Y-79075805D02*
X77450000Y-77875000D01*
X77450000Y-77875000D02*
X78050000Y-77275000D01*
X80425000Y-83525000D02*
X80405948Y-83525000D01*
X80425000Y-88775000D02*
X80425000Y-83525000D01*
X78050000Y-74700000D02*
X76375000Y-73025000D01*
X80405948Y-83525000D02*
X79405947Y-82525000D01*
X80875000Y-92250000D02*
X80875000Y-89225000D01*
X80225000Y-92825000D02*
X80300000Y-92825000D01*
X78050000Y-77275000D02*
X78050000Y-74700000D01*
X80875000Y-89225000D02*
X80425000Y-88775000D01*
%TO.N,CAM 2 5V*%
X67025000Y-80700500D02*
X68024500Y-81700000D01*
X69375000Y-74275000D02*
X67025000Y-76625000D01*
X69375000Y-72025000D02*
X69375000Y-74275000D01*
X70375000Y-71025000D02*
X69375000Y-72025000D01*
X67025000Y-76625000D02*
X67025000Y-80700500D01*
%TO.N,Net-(D4-K)*%
X78950000Y-99400000D02*
X80125000Y-100575000D01*
X72400000Y-101250000D02*
X72625000Y-101475000D01*
X80125000Y-110675000D02*
X78250000Y-112550000D01*
X80125000Y-100575000D02*
X80125000Y-110675000D01*
X78250000Y-112550000D02*
X78250000Y-113975000D01*
X72400000Y-99400000D02*
X72400000Y-101250000D01*
X72625000Y-101475000D02*
X76725000Y-101475000D01*
X76725000Y-101475000D02*
X76825000Y-101375000D01*
X76825000Y-101375000D02*
X76825000Y-99400000D01*
X76825000Y-99400000D02*
X78950000Y-99400000D01*
X78250000Y-113975000D02*
X77600000Y-114625000D01*
%TO.N,Net-(D1-A)*%
X77750000Y-116750000D02*
X74725000Y-113725000D01*
X74725000Y-106475000D02*
X70150000Y-101900000D01*
X70150000Y-101900000D02*
X70150000Y-95025000D01*
X75275000Y-93075000D02*
X75400000Y-93200000D01*
X75400000Y-93200000D02*
X75400000Y-94900000D01*
X71000000Y-94900000D02*
X71000000Y-93300000D01*
X71000000Y-94900000D02*
X70275000Y-94900000D01*
X74725000Y-109850000D02*
X74725000Y-106475000D01*
X70275000Y-94900000D02*
X70150000Y-95025000D01*
X74725000Y-113725000D02*
X74725000Y-109850000D01*
X71225000Y-93075000D02*
X75275000Y-93075000D01*
X71000000Y-93300000D02*
X71225000Y-93075000D01*
%TO.N,Lazer OUT*%
X79000000Y-75425000D02*
X79000000Y-78325000D01*
X79000000Y-78325000D02*
X81925000Y-81250000D01*
X81925000Y-86941000D02*
X83164000Y-88180000D01*
X81925000Y-81250000D02*
X81925000Y-86941000D01*
%TD*%
%TA.AperFunction,Conductor*%
%TO.N,GND*%
G36*
X78832088Y-99742813D02*
G01*
X78836848Y-99747174D01*
X79777826Y-100688152D01*
X79799218Y-100734028D01*
X79799500Y-100740478D01*
X79799500Y-110509520D01*
X79782187Y-110557086D01*
X79777826Y-110561846D01*
X78032171Y-112307501D01*
X78027413Y-112311861D01*
X77996805Y-112337545D01*
X77976825Y-112372150D01*
X77973360Y-112377590D01*
X77950446Y-112410316D01*
X77949203Y-112414955D01*
X77941813Y-112432796D01*
X77939411Y-112436956D01*
X77932473Y-112476295D01*
X77931077Y-112482592D01*
X77920735Y-112521192D01*
X77924218Y-112560989D01*
X77924500Y-112567440D01*
X77924500Y-113809521D01*
X77907187Y-113857087D01*
X77902826Y-113861847D01*
X77754249Y-114010423D01*
X77708372Y-114031815D01*
X77692264Y-114031464D01*
X77600000Y-114019317D01*
X77443237Y-114039956D01*
X77297157Y-114100464D01*
X77171718Y-114196718D01*
X77075464Y-114322157D01*
X77014956Y-114468237D01*
X76994317Y-114625000D01*
X77014956Y-114781762D01*
X77075464Y-114927842D01*
X77123591Y-114990561D01*
X77171718Y-115053282D01*
X77253455Y-115116001D01*
X77297157Y-115149535D01*
X77297158Y-115149535D01*
X77297159Y-115149536D01*
X77443238Y-115210044D01*
X77600000Y-115230682D01*
X77756762Y-115210044D01*
X77902841Y-115149536D01*
X78028282Y-115053282D01*
X78124536Y-114927841D01*
X78185044Y-114781762D01*
X78205682Y-114625000D01*
X78193534Y-114532733D01*
X78204490Y-114483316D01*
X78214571Y-114470753D01*
X78248175Y-114437149D01*
X78294052Y-114415758D01*
X78342946Y-114428860D01*
X78371979Y-114470325D01*
X78374500Y-114489477D01*
X78374500Y-116359437D01*
X78357187Y-116407003D01*
X78313350Y-116432313D01*
X78263500Y-116423523D01*
X78241792Y-116404486D01*
X78215330Y-116370000D01*
X78178282Y-116321718D01*
X78178280Y-116321717D01*
X78178280Y-116321716D01*
X78052842Y-116225464D01*
X77906762Y-116164956D01*
X77749999Y-116144317D01*
X77657733Y-116156464D01*
X77608314Y-116145508D01*
X77595749Y-116135423D01*
X75072174Y-113611848D01*
X75050782Y-113565972D01*
X75050500Y-113559522D01*
X75050500Y-110393641D01*
X75067813Y-110346075D01*
X75079449Y-110334935D01*
X75153282Y-110278282D01*
X75249536Y-110152841D01*
X75310044Y-110006762D01*
X75315050Y-109968735D01*
X75338423Y-109923836D01*
X75385189Y-109904465D01*
X75433466Y-109919687D01*
X75440743Y-109926069D01*
X76910423Y-111395749D01*
X76931815Y-111441625D01*
X76931464Y-111457733D01*
X76919317Y-111549999D01*
X76939956Y-111706762D01*
X77000464Y-111852842D01*
X77048590Y-111915561D01*
X77096718Y-111978282D01*
X77178455Y-112041001D01*
X77222157Y-112074535D01*
X77222158Y-112074535D01*
X77222159Y-112074536D01*
X77368238Y-112135044D01*
X77525000Y-112155682D01*
X77681762Y-112135044D01*
X77827841Y-112074536D01*
X77953282Y-111978282D01*
X78049536Y-111852841D01*
X78110044Y-111706762D01*
X78130682Y-111550000D01*
X78110044Y-111393238D01*
X78049536Y-111247159D01*
X78049535Y-111247158D01*
X78049535Y-111247157D01*
X78016001Y-111203455D01*
X77953282Y-111121718D01*
X77863529Y-111052848D01*
X77827842Y-111025464D01*
X77681762Y-110964956D01*
X77524999Y-110944317D01*
X77432733Y-110956464D01*
X77383314Y-110945508D01*
X77370749Y-110935423D01*
X75522174Y-109086848D01*
X75500782Y-109040972D01*
X75500500Y-109034522D01*
X75500500Y-106217440D01*
X75500782Y-106210989D01*
X75504264Y-106171193D01*
X75493923Y-106132602D01*
X75492525Y-106126298D01*
X75485588Y-106086955D01*
X75483189Y-106082800D01*
X75475795Y-106064949D01*
X75474554Y-106060316D01*
X75451639Y-106027590D01*
X75448172Y-106022148D01*
X75428194Y-105987545D01*
X75397583Y-105961859D01*
X75392824Y-105957498D01*
X71347174Y-101911848D01*
X71325782Y-101865972D01*
X71325500Y-101859522D01*
X71325500Y-101065478D01*
X71342813Y-101017912D01*
X71347173Y-101013153D01*
X71348154Y-101012172D01*
X71386450Y-100973875D01*
X71432326Y-100952483D01*
X71477056Y-100962872D01*
X71610394Y-101043478D01*
X71680993Y-101065477D01*
X71772803Y-101094086D01*
X71785062Y-101095200D01*
X71843384Y-101100500D01*
X72000500Y-101100500D01*
X72048066Y-101117813D01*
X72073376Y-101161650D01*
X72074500Y-101174500D01*
X72074500Y-101232558D01*
X72074218Y-101239009D01*
X72070735Y-101278807D01*
X72081077Y-101317405D01*
X72082473Y-101323704D01*
X72089410Y-101363044D01*
X72091812Y-101367203D01*
X72099202Y-101385044D01*
X72100446Y-101389684D01*
X72110335Y-101403807D01*
X72123362Y-101422412D01*
X72126829Y-101427855D01*
X72146806Y-101462455D01*
X72177409Y-101488134D01*
X72182169Y-101492495D01*
X72382505Y-101692831D01*
X72386856Y-101697579D01*
X72412545Y-101728194D01*
X72447139Y-101748167D01*
X72447148Y-101748172D01*
X72452590Y-101751639D01*
X72485316Y-101774554D01*
X72489949Y-101775795D01*
X72507800Y-101783189D01*
X72511955Y-101785588D01*
X72551292Y-101792524D01*
X72551298Y-101792525D01*
X72557598Y-101793922D01*
X72596193Y-101804264D01*
X72635991Y-101800781D01*
X72642441Y-101800500D01*
X76707559Y-101800500D01*
X76714008Y-101800781D01*
X76725916Y-101801823D01*
X76753805Y-101804264D01*
X76753805Y-101804263D01*
X76753807Y-101804264D01*
X76792413Y-101793918D01*
X76798698Y-101792525D01*
X76838045Y-101785588D01*
X76842198Y-101783189D01*
X76860050Y-101775795D01*
X76864684Y-101774554D01*
X76897420Y-101751630D01*
X76902828Y-101748185D01*
X76937455Y-101728194D01*
X76963145Y-101697576D01*
X76967483Y-101692841D01*
X77042846Y-101617479D01*
X77047582Y-101613140D01*
X77078194Y-101587455D01*
X77098177Y-101552841D01*
X77101629Y-101547423D01*
X77124554Y-101514684D01*
X77125795Y-101510050D01*
X77133189Y-101492198D01*
X77135588Y-101488045D01*
X77142525Y-101448695D01*
X77143919Y-101442406D01*
X77154263Y-101403807D01*
X77153027Y-101389684D01*
X77150782Y-101364016D01*
X77150500Y-101357566D01*
X77150500Y-101174500D01*
X77167813Y-101126934D01*
X77211650Y-101101624D01*
X77224500Y-101100500D01*
X77379934Y-101100500D01*
X77381616Y-101100500D01*
X77452196Y-101094086D01*
X77614606Y-101043478D01*
X77760185Y-100955472D01*
X77880472Y-100835185D01*
X77968478Y-100689606D01*
X78019086Y-100527196D01*
X78025500Y-100456616D01*
X78025500Y-99799500D01*
X78042813Y-99751934D01*
X78086650Y-99726624D01*
X78099500Y-99725500D01*
X78784522Y-99725500D01*
X78832088Y-99742813D01*
G37*
%TD.AperFunction*%
%TA.AperFunction,Conductor*%
G36*
X79207088Y-95242813D02*
G01*
X79211848Y-95247174D01*
X80227826Y-96263151D01*
X80249218Y-96309027D01*
X80249500Y-96315477D01*
X80249500Y-100060522D01*
X80232187Y-100108088D01*
X80188350Y-100133398D01*
X80138500Y-100124608D01*
X80123174Y-100112848D01*
X79192499Y-99182173D01*
X79188138Y-99177414D01*
X79186592Y-99175572D01*
X79162455Y-99146806D01*
X79127855Y-99126829D01*
X79122412Y-99123362D01*
X79119164Y-99121088D01*
X79089684Y-99100446D01*
X79085044Y-99099202D01*
X79067203Y-99091812D01*
X79063044Y-99089410D01*
X79023704Y-99082473D01*
X79017405Y-99081077D01*
X78978807Y-99070735D01*
X78941776Y-99073975D01*
X78939008Y-99074218D01*
X78932559Y-99074500D01*
X78099500Y-99074500D01*
X78051934Y-99057187D01*
X78026624Y-99013350D01*
X78025500Y-99000500D01*
X78025500Y-98345065D01*
X78025500Y-98345064D01*
X78025500Y-98343384D01*
X78019086Y-98272804D01*
X77968478Y-98110394D01*
X77880472Y-97964815D01*
X77760185Y-97844528D01*
X77614606Y-97756522D01*
X77614605Y-97756521D01*
X77614604Y-97756521D01*
X77452196Y-97705913D01*
X77383294Y-97699652D01*
X77383283Y-97699651D01*
X77381616Y-97699500D01*
X76268384Y-97699500D01*
X76266717Y-97699651D01*
X76266705Y-97699652D01*
X76197803Y-97705913D01*
X76035395Y-97756521D01*
X75902059Y-97837126D01*
X75852396Y-97846918D01*
X75811450Y-97826124D01*
X75760286Y-97774960D01*
X75739736Y-97735484D01*
X75735588Y-97711955D01*
X75733183Y-97707790D01*
X75725794Y-97689947D01*
X75724992Y-97686955D01*
X75724553Y-97685316D01*
X75716883Y-97674362D01*
X75701636Y-97652585D01*
X75698168Y-97647141D01*
X75678194Y-97612544D01*
X75647588Y-97586863D01*
X75642828Y-97582502D01*
X75437152Y-97376826D01*
X75415760Y-97330950D01*
X75428861Y-97282055D01*
X75470325Y-97253021D01*
X75489478Y-97250500D01*
X76557559Y-97250500D01*
X76564008Y-97250781D01*
X76575916Y-97251823D01*
X76603805Y-97254264D01*
X76603805Y-97254263D01*
X76603807Y-97254264D01*
X76642413Y-97243918D01*
X76648698Y-97242525D01*
X76688045Y-97235588D01*
X76692198Y-97233189D01*
X76710050Y-97225795D01*
X76714684Y-97224554D01*
X76747420Y-97201630D01*
X76752828Y-97198185D01*
X76787455Y-97178194D01*
X76813145Y-97147577D01*
X76817484Y-97142841D01*
X77042846Y-96917479D01*
X77047582Y-96913140D01*
X77078194Y-96887455D01*
X77098177Y-96852841D01*
X77101633Y-96847416D01*
X77124553Y-96814684D01*
X77125794Y-96810049D01*
X77133187Y-96792202D01*
X77135588Y-96788045D01*
X77142526Y-96748692D01*
X77143924Y-96742389D01*
X77154263Y-96703807D01*
X77154263Y-96703805D01*
X77152264Y-96680949D01*
X77165365Y-96632055D01*
X77206830Y-96603021D01*
X77225982Y-96600500D01*
X77379934Y-96600500D01*
X77381616Y-96600500D01*
X77452196Y-96594086D01*
X77614606Y-96543478D01*
X77760185Y-96455472D01*
X77880472Y-96335185D01*
X77968478Y-96189606D01*
X78019086Y-96027196D01*
X78025500Y-95956616D01*
X78025500Y-95299499D01*
X78042813Y-95251934D01*
X78086650Y-95226624D01*
X78099500Y-95225500D01*
X79159522Y-95225500D01*
X79207088Y-95242813D01*
G37*
%TD.AperFunction*%
%TA.AperFunction,Conductor*%
G36*
X80047359Y-72861955D02*
G01*
X79989835Y-72974852D01*
X79970014Y-73100000D01*
X79989835Y-73225148D01*
X80047359Y-73338045D01*
X80059314Y-73350000D01*
X78690686Y-73350000D01*
X78702641Y-73338045D01*
X78760165Y-73225148D01*
X78779986Y-73100000D01*
X78760165Y-72974852D01*
X78702641Y-72861955D01*
X78690686Y-72850000D01*
X80059314Y-72850000D01*
X80047359Y-72861955D01*
G37*
%TD.AperFunction*%
%TA.AperFunction,Conductor*%
G36*
X80624999Y-72784314D02*
G01*
X80613045Y-72772359D01*
X80500148Y-72714835D01*
X80406481Y-72700000D01*
X80343519Y-72700000D01*
X80249852Y-72714835D01*
X80136955Y-72772359D01*
X80125000Y-72784314D01*
X80125000Y-71415686D01*
X80136955Y-71427641D01*
X80249852Y-71485165D01*
X80343519Y-71500000D01*
X80406481Y-71500000D01*
X80500148Y-71485165D01*
X80613045Y-71427641D01*
X80624999Y-71415686D01*
X80624999Y-72784314D01*
G37*
%TD.AperFunction*%
%TA.AperFunction,Conductor*%
G36*
X84061052Y-69400614D02*
G01*
X84376696Y-69418149D01*
X84391740Y-69420556D01*
X84457182Y-69438090D01*
X84459493Y-69438751D01*
X84554961Y-69467710D01*
X84564732Y-69471447D01*
X84567951Y-69472949D01*
X84578582Y-69479025D01*
X84852594Y-69667408D01*
X84890002Y-69693126D01*
X84907279Y-69709705D01*
X85085492Y-69947323D01*
X85091550Y-69956833D01*
X85093934Y-69961292D01*
X85095743Y-69964909D01*
X85128543Y-70035251D01*
X85132274Y-70044990D01*
X85132561Y-70045935D01*
X85134635Y-70054601D01*
X85184579Y-70337617D01*
X85198374Y-70415785D01*
X85199500Y-70428645D01*
X85199500Y-124027924D01*
X85199244Y-124034070D01*
X85177566Y-124294195D01*
X85175301Y-124307201D01*
X85168732Y-124331717D01*
X85161941Y-124348502D01*
X84932663Y-124761205D01*
X84912375Y-124784468D01*
X84637383Y-124990712D01*
X84609932Y-125003545D01*
X84210484Y-125097533D01*
X84193535Y-125099500D01*
X64600611Y-125099500D01*
X64591432Y-125098929D01*
X64216803Y-125052100D01*
X64185781Y-125040799D01*
X63789050Y-124784091D01*
X63766228Y-124760746D01*
X63582396Y-124462018D01*
X63572547Y-124436101D01*
X63501626Y-124034213D01*
X63500500Y-124021353D01*
X63500500Y-123775000D01*
X67650000Y-123775000D01*
X67650000Y-124070844D01*
X67650211Y-124074798D01*
X67656402Y-124132378D01*
X67706646Y-124267086D01*
X67792811Y-124382188D01*
X67907913Y-124468353D01*
X68042621Y-124518597D01*
X68100201Y-124524788D01*
X68104155Y-124525000D01*
X68400000Y-124525000D01*
X68400000Y-123775000D01*
X67650000Y-123775000D01*
X63500500Y-123775000D01*
X63500500Y-122069747D01*
X64549500Y-122069747D01*
X64561132Y-122128229D01*
X64561132Y-122128230D01*
X64561133Y-122128231D01*
X64605448Y-122194552D01*
X64671769Y-122238867D01*
X64730252Y-122250500D01*
X66469748Y-122250500D01*
X66528231Y-122238867D01*
X66594552Y-122194552D01*
X66638867Y-122128231D01*
X66650500Y-122069748D01*
X66650500Y-120330252D01*
X66638867Y-120271769D01*
X66594552Y-120205448D01*
X66528231Y-120161133D01*
X66528230Y-120161132D01*
X66528229Y-120161132D01*
X66469748Y-120149500D01*
X64730252Y-120149500D01*
X64671770Y-120161132D01*
X64605448Y-120205448D01*
X64561132Y-120271770D01*
X64549500Y-120330252D01*
X64549500Y-122069747D01*
X63500500Y-122069747D01*
X63500500Y-117015844D01*
X64250000Y-117015844D01*
X64250211Y-117019798D01*
X64256402Y-117077378D01*
X64306646Y-117212086D01*
X64392811Y-117327188D01*
X64507913Y-117413353D01*
X64642621Y-117463597D01*
X64700201Y-117469788D01*
X64704155Y-117470000D01*
X65458458Y-117470000D01*
X65506024Y-117487313D01*
X65531334Y-117531150D01*
X65522544Y-117581000D01*
X65483767Y-117613537D01*
X65465714Y-117617643D01*
X65394065Y-117624699D01*
X65394066Y-117624700D01*
X65196044Y-117684768D01*
X65013550Y-117782315D01*
X64853590Y-117913590D01*
X64722315Y-118073550D01*
X64624768Y-118256044D01*
X64592346Y-118362929D01*
X64564700Y-118454066D01*
X64544417Y-118660000D01*
X64564700Y-118865934D01*
X64585668Y-118935056D01*
X64624768Y-119063955D01*
X64665392Y-119139956D01*
X64722315Y-119246450D01*
X64853590Y-119406410D01*
X65013550Y-119537685D01*
X65196046Y-119635232D01*
X65394066Y-119695300D01*
X65600000Y-119715583D01*
X65805934Y-119695300D01*
X66003954Y-119635232D01*
X66186450Y-119537685D01*
X66346410Y-119406410D01*
X66477685Y-119246450D01*
X66575232Y-119063954D01*
X66635300Y-118865934D01*
X66655583Y-118660000D01*
X66635300Y-118454066D01*
X66575232Y-118256046D01*
X66477685Y-118073550D01*
X66346410Y-117913590D01*
X66186450Y-117782315D01*
X66095201Y-117733541D01*
X66003955Y-117684768D01*
X65889338Y-117650000D01*
X65805934Y-117624700D01*
X65734287Y-117617643D01*
X65688648Y-117595752D01*
X65667758Y-117549645D01*
X65681391Y-117500896D01*
X65723170Y-117472317D01*
X65741542Y-117470000D01*
X66495845Y-117470000D01*
X66499798Y-117469788D01*
X66557378Y-117463597D01*
X66692086Y-117413354D01*
X66706153Y-117402824D01*
X66754607Y-117388178D01*
X66801139Y-117408104D01*
X66823977Y-117453278D01*
X66824500Y-117462064D01*
X66824500Y-120737558D01*
X66824218Y-120744009D01*
X66820735Y-120783807D01*
X66831077Y-120822405D01*
X66832473Y-120828704D01*
X66839410Y-120868044D01*
X66841812Y-120872203D01*
X66849202Y-120890044D01*
X66850446Y-120894684D01*
X66871088Y-120924164D01*
X66873362Y-120927412D01*
X66876829Y-120932855D01*
X66896806Y-120967455D01*
X66927409Y-120993134D01*
X66932169Y-120997495D01*
X67946410Y-122011737D01*
X67967802Y-122057614D01*
X67965104Y-122077108D01*
X67965942Y-122077210D01*
X67944354Y-122254999D01*
X67964859Y-122423871D01*
X67983838Y-122473914D01*
X67984518Y-122524528D01*
X67952504Y-122563738D01*
X67940508Y-122569488D01*
X67907911Y-122581646D01*
X67792811Y-122667810D01*
X67706646Y-122782913D01*
X67656402Y-122917621D01*
X67650211Y-122975201D01*
X67650000Y-122979155D01*
X67650000Y-123275000D01*
X68435517Y-123275000D01*
X68364199Y-123359993D01*
X68325000Y-123467694D01*
X68325000Y-123582306D01*
X68364199Y-123690007D01*
X68437871Y-123777805D01*
X68537129Y-123835112D01*
X68621564Y-123850000D01*
X68678436Y-123850000D01*
X68762871Y-123835112D01*
X68862129Y-123777805D01*
X68864483Y-123775000D01*
X68900000Y-123775000D01*
X68900000Y-124525000D01*
X69195845Y-124525000D01*
X69199798Y-124524788D01*
X69257378Y-124518597D01*
X69392086Y-124468353D01*
X69507188Y-124382188D01*
X69593353Y-124267086D01*
X69643597Y-124132378D01*
X69649788Y-124074798D01*
X69650000Y-124070844D01*
X69650000Y-123775000D01*
X68900000Y-123775000D01*
X68864483Y-123775000D01*
X68935801Y-123690007D01*
X68975000Y-123582306D01*
X68975000Y-123467694D01*
X68935801Y-123359993D01*
X68864483Y-123275000D01*
X69650000Y-123275000D01*
X69650000Y-122979155D01*
X69649788Y-122975201D01*
X69643597Y-122917621D01*
X69593353Y-122782913D01*
X69507188Y-122667811D01*
X69392087Y-122581646D01*
X69359491Y-122569488D01*
X69320974Y-122536643D01*
X69312581Y-122486725D01*
X69316156Y-122473927D01*
X69335140Y-122423872D01*
X69355645Y-122255000D01*
X69335140Y-122086128D01*
X69274818Y-121927070D01*
X69178183Y-121787071D01*
X69050852Y-121674266D01*
X68900225Y-121595210D01*
X68735056Y-121554500D01*
X68564944Y-121554500D01*
X68481021Y-121575184D01*
X68430694Y-121569757D01*
X68410987Y-121555660D01*
X68055327Y-121200000D01*
X82108417Y-121200000D01*
X82128700Y-121405933D01*
X82188768Y-121603955D01*
X82226351Y-121674266D01*
X82286315Y-121786450D01*
X82417590Y-121946410D01*
X82577550Y-122077685D01*
X82760046Y-122175232D01*
X82958066Y-122235300D01*
X83164000Y-122255583D01*
X83369934Y-122235300D01*
X83567954Y-122175232D01*
X83750450Y-122077685D01*
X83910410Y-121946410D01*
X84041685Y-121786450D01*
X84139232Y-121603954D01*
X84199300Y-121405934D01*
X84219583Y-121200000D01*
X84199300Y-120994066D01*
X84139232Y-120796046D01*
X84041685Y-120613550D01*
X83910410Y-120453590D01*
X83750450Y-120322315D01*
X83655886Y-120271769D01*
X83567955Y-120224768D01*
X83468944Y-120194734D01*
X83369934Y-120164700D01*
X83164000Y-120144417D01*
X82958066Y-120164700D01*
X82760044Y-120224768D01*
X82577550Y-120322315D01*
X82417590Y-120453590D01*
X82286315Y-120613550D01*
X82188768Y-120796044D01*
X82128700Y-120994066D01*
X82108417Y-121200000D01*
X68055327Y-121200000D01*
X67497174Y-120641846D01*
X67475782Y-120595969D01*
X67475500Y-120589520D01*
X67475500Y-119165000D01*
X67894354Y-119165000D01*
X67914859Y-119333871D01*
X67975180Y-119492927D01*
X67975181Y-119492929D01*
X67975182Y-119492930D01*
X68071817Y-119632929D01*
X68199148Y-119745734D01*
X68349775Y-119824790D01*
X68514944Y-119865500D01*
X68514945Y-119865500D01*
X68685055Y-119865500D01*
X68685056Y-119865500D01*
X68850225Y-119824790D01*
X69000852Y-119745734D01*
X69128183Y-119632929D01*
X69224818Y-119492930D01*
X69285140Y-119333872D01*
X69305645Y-119165000D01*
X69285140Y-118996128D01*
X69253631Y-118913045D01*
X69224819Y-118837072D01*
X69219113Y-118828805D01*
X69128183Y-118697071D01*
X69002120Y-118585389D01*
X68977996Y-118540888D01*
X68988122Y-118491292D01*
X69002114Y-118474615D01*
X69128183Y-118362929D01*
X69224818Y-118222930D01*
X69285140Y-118063872D01*
X69305645Y-117895000D01*
X69285140Y-117726128D01*
X69256269Y-117650000D01*
X69256269Y-117649999D01*
X72294772Y-117649999D01*
X72313656Y-117914021D01*
X72369923Y-118172681D01*
X72462425Y-118420689D01*
X72589281Y-118653007D01*
X72589284Y-118653011D01*
X72747913Y-118864915D01*
X72935085Y-119052087D01*
X73133294Y-119200464D01*
X73146992Y-119210718D01*
X73379310Y-119337574D01*
X73627318Y-119430076D01*
X73627321Y-119430076D01*
X73627322Y-119430077D01*
X73885974Y-119486343D01*
X74150000Y-119505227D01*
X74414026Y-119486343D01*
X74672678Y-119430077D01*
X74693913Y-119422157D01*
X74920689Y-119337574D01*
X74927469Y-119333872D01*
X75153011Y-119210716D01*
X75364915Y-119052087D01*
X75552087Y-118864915D01*
X75710716Y-118653011D01*
X75837574Y-118420689D01*
X75859117Y-118362929D01*
X75930076Y-118172681D01*
X75930077Y-118172678D01*
X75986343Y-117914026D01*
X76005227Y-117650000D01*
X75986343Y-117385974D01*
X75930077Y-117127322D01*
X75924453Y-117112244D01*
X75837574Y-116879310D01*
X75710718Y-116646992D01*
X75710716Y-116646989D01*
X75552087Y-116435085D01*
X75364915Y-116247913D01*
X75153011Y-116089284D01*
X75153007Y-116089281D01*
X74920689Y-115962425D01*
X74672681Y-115869923D01*
X74414021Y-115813656D01*
X74150000Y-115794772D01*
X73885978Y-115813656D01*
X73627318Y-115869923D01*
X73379310Y-115962425D01*
X73146992Y-116089281D01*
X72935085Y-116247913D01*
X72747913Y-116435085D01*
X72589281Y-116646992D01*
X72462425Y-116879310D01*
X72369923Y-117127318D01*
X72313656Y-117385978D01*
X72294772Y-117649999D01*
X69256269Y-117649999D01*
X69224819Y-117567072D01*
X69129472Y-117428938D01*
X69116700Y-117379957D01*
X69138400Y-117334225D01*
X69175936Y-117314323D01*
X69178231Y-117313867D01*
X69244552Y-117269552D01*
X69288867Y-117203231D01*
X69300500Y-117144748D01*
X69300500Y-116105252D01*
X69288867Y-116046769D01*
X69244552Y-115980448D01*
X69178231Y-115936133D01*
X69178230Y-115936132D01*
X69178229Y-115936132D01*
X69119748Y-115924500D01*
X68080252Y-115924500D01*
X68021770Y-115936132D01*
X67955448Y-115980448D01*
X67911132Y-116046770D01*
X67899500Y-116105252D01*
X67899500Y-117144747D01*
X67911132Y-117203229D01*
X67911132Y-117203230D01*
X67911133Y-117203231D01*
X67955448Y-117269552D01*
X68021769Y-117313867D01*
X68024063Y-117314323D01*
X68067337Y-117340583D01*
X68083608Y-117388515D01*
X68070527Y-117428937D01*
X67975181Y-117567070D01*
X67914859Y-117726128D01*
X67894354Y-117895000D01*
X67914859Y-118063871D01*
X67975180Y-118222927D01*
X67975181Y-118222929D01*
X67975182Y-118222930D01*
X68071817Y-118362929D01*
X68197879Y-118474610D01*
X68222002Y-118519110D01*
X68211878Y-118568706D01*
X68197879Y-118585389D01*
X68071818Y-118697070D01*
X67975180Y-118837072D01*
X67914859Y-118996128D01*
X67894354Y-119165000D01*
X67475500Y-119165000D01*
X67475500Y-112775346D01*
X67485417Y-112738341D01*
X67485588Y-112738045D01*
X67492525Y-112698695D01*
X67493919Y-112692406D01*
X67504263Y-112653807D01*
X67500782Y-112614016D01*
X67500500Y-112607566D01*
X67500500Y-109965478D01*
X67517813Y-109917912D01*
X67522174Y-109913152D01*
X69213152Y-108222174D01*
X69259028Y-108200782D01*
X69265478Y-108200500D01*
X72306359Y-108200500D01*
X72353925Y-108217813D01*
X72365064Y-108229449D01*
X72421718Y-108303282D01*
X72503455Y-108366001D01*
X72547157Y-108399535D01*
X72547158Y-108399535D01*
X72547159Y-108399536D01*
X72693238Y-108460044D01*
X72850000Y-108480682D01*
X73006762Y-108460044D01*
X73152841Y-108399536D01*
X73278282Y-108303282D01*
X73374536Y-108177841D01*
X73435044Y-108031762D01*
X73455682Y-107875000D01*
X73435044Y-107718238D01*
X73374536Y-107572159D01*
X73374535Y-107572158D01*
X73374535Y-107572157D01*
X73338172Y-107524768D01*
X73278282Y-107446718D01*
X73215561Y-107398590D01*
X73152842Y-107350464D01*
X73006762Y-107289956D01*
X72850000Y-107269317D01*
X72693237Y-107289956D01*
X72547157Y-107350464D01*
X72421718Y-107446718D01*
X72365067Y-107520548D01*
X72322376Y-107547746D01*
X72306359Y-107549500D01*
X69117433Y-107549500D01*
X69110984Y-107549218D01*
X69109245Y-107549065D01*
X69071193Y-107545736D01*
X69032603Y-107556076D01*
X69026304Y-107557472D01*
X68986956Y-107564411D01*
X68982796Y-107566813D01*
X68964955Y-107574202D01*
X68960316Y-107575446D01*
X68927590Y-107598360D01*
X68922150Y-107601825D01*
X68887545Y-107621805D01*
X68861865Y-107652409D01*
X68857505Y-107657167D01*
X66957171Y-109557501D01*
X66952413Y-109561861D01*
X66921805Y-109587545D01*
X66901825Y-109622150D01*
X66898360Y-109627590D01*
X66875446Y-109660316D01*
X66874203Y-109664955D01*
X66866813Y-109682796D01*
X66864411Y-109686956D01*
X66857473Y-109726295D01*
X66856077Y-109732592D01*
X66845735Y-109771192D01*
X66849218Y-109810989D01*
X66849500Y-109817440D01*
X66849500Y-112499653D01*
X66839588Y-112536649D01*
X66839411Y-112536954D01*
X66832473Y-112576295D01*
X66831077Y-112582592D01*
X66820735Y-112621192D01*
X66824218Y-112660989D01*
X66824500Y-112667440D01*
X66824500Y-114777935D01*
X66807187Y-114825501D01*
X66763350Y-114850811D01*
X66713500Y-114842021D01*
X66706155Y-114837176D01*
X66692089Y-114826646D01*
X66557378Y-114776402D01*
X66499798Y-114770211D01*
X66495845Y-114770000D01*
X65741542Y-114770000D01*
X65693976Y-114752687D01*
X65668666Y-114708850D01*
X65677456Y-114659000D01*
X65716233Y-114626463D01*
X65734285Y-114622356D01*
X65805934Y-114615300D01*
X66003954Y-114555232D01*
X66186450Y-114457685D01*
X66346410Y-114326410D01*
X66477685Y-114166450D01*
X66575232Y-113983954D01*
X66635300Y-113785934D01*
X66655583Y-113580000D01*
X66635300Y-113374066D01*
X66575232Y-113176046D01*
X66477685Y-112993550D01*
X66346410Y-112833590D01*
X66186450Y-112702315D01*
X66034683Y-112621193D01*
X66003955Y-112604768D01*
X65904944Y-112574734D01*
X65805934Y-112544700D01*
X65600000Y-112524417D01*
X65394066Y-112544700D01*
X65196044Y-112604768D01*
X65013550Y-112702315D01*
X64853590Y-112833590D01*
X64722315Y-112993550D01*
X64624768Y-113176044D01*
X64564700Y-113374065D01*
X64564700Y-113374066D01*
X64544417Y-113580000D01*
X64564700Y-113785934D01*
X64568574Y-113798704D01*
X64624768Y-113983955D01*
X64650163Y-114031464D01*
X64722315Y-114166450D01*
X64853590Y-114326410D01*
X65013550Y-114457685D01*
X65196046Y-114555232D01*
X65394066Y-114615300D01*
X65465712Y-114622356D01*
X65511352Y-114644248D01*
X65532242Y-114690355D01*
X65518609Y-114739104D01*
X65476830Y-114767683D01*
X65458458Y-114770000D01*
X64704155Y-114770000D01*
X64700201Y-114770211D01*
X64642621Y-114776402D01*
X64507913Y-114826646D01*
X64392811Y-114912811D01*
X64306646Y-115027913D01*
X64256402Y-115162621D01*
X64250211Y-115220201D01*
X64250000Y-115224155D01*
X64250000Y-115870000D01*
X65166314Y-115870000D01*
X65140507Y-115910156D01*
X65100000Y-116048111D01*
X65100000Y-116191889D01*
X65140507Y-116329844D01*
X65166314Y-116370000D01*
X64250000Y-116370000D01*
X64250000Y-117015844D01*
X63500500Y-117015844D01*
X63500500Y-111040000D01*
X64544417Y-111040000D01*
X64564700Y-111245933D01*
X64624768Y-111443955D01*
X64632133Y-111457733D01*
X64722315Y-111626450D01*
X64853590Y-111786410D01*
X65013550Y-111917685D01*
X65196046Y-112015232D01*
X65394066Y-112075300D01*
X65600000Y-112095583D01*
X65805934Y-112075300D01*
X66003954Y-112015232D01*
X66186450Y-111917685D01*
X66346410Y-111786410D01*
X66477685Y-111626450D01*
X66575232Y-111443954D01*
X66635300Y-111245934D01*
X66655583Y-111040000D01*
X66635300Y-110834066D01*
X66575232Y-110636046D01*
X66477685Y-110453550D01*
X66346410Y-110293590D01*
X66186450Y-110162315D01*
X66095201Y-110113541D01*
X66003955Y-110064768D01*
X65904944Y-110034734D01*
X65805934Y-110004700D01*
X65600000Y-109984417D01*
X65394066Y-110004700D01*
X65196044Y-110064768D01*
X65013550Y-110162315D01*
X64853590Y-110293590D01*
X64722315Y-110453550D01*
X64624768Y-110636044D01*
X64564700Y-110834066D01*
X64544417Y-111040000D01*
X63500500Y-111040000D01*
X63500500Y-108500000D01*
X64544417Y-108500000D01*
X64564700Y-108705933D01*
X64624768Y-108903955D01*
X64673541Y-108995201D01*
X64722315Y-109086450D01*
X64853590Y-109246410D01*
X65013550Y-109377685D01*
X65196046Y-109475232D01*
X65394066Y-109535300D01*
X65600000Y-109555583D01*
X65805934Y-109535300D01*
X66003954Y-109475232D01*
X66186450Y-109377685D01*
X66346410Y-109246410D01*
X66477685Y-109086450D01*
X66575232Y-108903954D01*
X66635300Y-108705934D01*
X66655583Y-108500000D01*
X66635300Y-108294066D01*
X66575232Y-108096046D01*
X66477685Y-107913550D01*
X66346410Y-107753590D01*
X66186450Y-107622315D01*
X66078120Y-107564411D01*
X66003955Y-107524768D01*
X65904944Y-107494734D01*
X65805934Y-107464700D01*
X65600000Y-107444417D01*
X65394066Y-107464700D01*
X65196044Y-107524768D01*
X65013550Y-107622315D01*
X64853590Y-107753590D01*
X64722315Y-107913550D01*
X64624768Y-108096044D01*
X64564700Y-108294066D01*
X64544417Y-108500000D01*
X63500500Y-108500000D01*
X63500500Y-105960000D01*
X64544417Y-105960000D01*
X64564700Y-106165934D01*
X64578367Y-106210989D01*
X64624768Y-106363955D01*
X64673541Y-106455201D01*
X64722315Y-106546450D01*
X64853590Y-106706410D01*
X65013550Y-106837685D01*
X65196046Y-106935232D01*
X65394066Y-106995300D01*
X65600000Y-107015583D01*
X65805934Y-106995300D01*
X66003954Y-106935232D01*
X66186450Y-106837685D01*
X66346410Y-106706410D01*
X66477685Y-106546450D01*
X66575232Y-106363954D01*
X66635300Y-106165934D01*
X66655583Y-105960000D01*
X66635300Y-105754066D01*
X66575232Y-105556046D01*
X66477685Y-105373550D01*
X66346410Y-105213590D01*
X66186450Y-105082315D01*
X66095201Y-105033541D01*
X66003955Y-104984768D01*
X65904944Y-104954734D01*
X65805934Y-104924700D01*
X65600000Y-104904417D01*
X65394066Y-104924700D01*
X65196044Y-104984768D01*
X65013550Y-105082315D01*
X64853590Y-105213590D01*
X64722315Y-105373550D01*
X64624768Y-105556044D01*
X64564700Y-105754066D01*
X64544417Y-105960000D01*
X63500500Y-105960000D01*
X63500500Y-104289747D01*
X64549500Y-104289747D01*
X64561132Y-104348229D01*
X64561132Y-104348230D01*
X64561133Y-104348231D01*
X64605448Y-104414552D01*
X64671769Y-104458867D01*
X64730252Y-104470500D01*
X66469748Y-104470500D01*
X66528231Y-104458867D01*
X66594552Y-104414552D01*
X66638867Y-104348231D01*
X66650500Y-104289748D01*
X66650500Y-102550252D01*
X66638867Y-102491769D01*
X66594552Y-102425448D01*
X66528231Y-102381133D01*
X66528230Y-102381132D01*
X66528229Y-102381132D01*
X66469748Y-102369500D01*
X64730252Y-102369500D01*
X64671770Y-102381132D01*
X64605448Y-102425448D01*
X64561132Y-102491770D01*
X64549500Y-102550252D01*
X64549500Y-104289747D01*
X63500500Y-104289747D01*
X63500500Y-100880000D01*
X64544417Y-100880000D01*
X64564700Y-101085934D01*
X64577137Y-101126934D01*
X64624768Y-101283955D01*
X64646015Y-101323704D01*
X64722315Y-101466450D01*
X64853590Y-101626410D01*
X65013550Y-101757685D01*
X65196046Y-101855232D01*
X65394066Y-101915300D01*
X65600000Y-101935583D01*
X65668797Y-101928807D01*
X69820735Y-101928807D01*
X69831077Y-101967405D01*
X69832473Y-101973704D01*
X69839410Y-102013044D01*
X69841812Y-102017203D01*
X69849202Y-102035044D01*
X69850446Y-102039684D01*
X69871088Y-102069164D01*
X69873362Y-102072412D01*
X69876829Y-102077855D01*
X69896806Y-102112455D01*
X69927409Y-102138134D01*
X69932169Y-102142495D01*
X74377826Y-106588152D01*
X74399218Y-106634028D01*
X74399500Y-106640478D01*
X74399500Y-109306357D01*
X74382187Y-109353923D01*
X74370549Y-109365065D01*
X74296715Y-109421719D01*
X74200464Y-109547157D01*
X74139956Y-109693237D01*
X74119317Y-109850000D01*
X74139956Y-110006762D01*
X74200464Y-110152842D01*
X74248590Y-110215561D01*
X74296718Y-110278282D01*
X74370548Y-110334933D01*
X74397746Y-110377624D01*
X74399500Y-110393641D01*
X74399500Y-113707558D01*
X74399218Y-113714009D01*
X74395735Y-113753807D01*
X74406077Y-113792405D01*
X74407473Y-113798704D01*
X74414410Y-113838044D01*
X74416812Y-113842203D01*
X74424202Y-113860044D01*
X74425446Y-113864684D01*
X74446088Y-113894164D01*
X74448362Y-113897412D01*
X74451829Y-113902855D01*
X74471806Y-113937455D01*
X74502409Y-113963134D01*
X74507169Y-113967495D01*
X77135423Y-116595749D01*
X77156815Y-116641625D01*
X77156464Y-116657733D01*
X77144317Y-116749999D01*
X77164956Y-116906762D01*
X77225464Y-117052842D01*
X77258208Y-117095514D01*
X77321718Y-117178282D01*
X77403455Y-117241001D01*
X77447157Y-117274535D01*
X77447158Y-117274535D01*
X77447159Y-117274536D01*
X77593238Y-117335044D01*
X77750000Y-117355682D01*
X77906762Y-117335044D01*
X78052841Y-117274536D01*
X78178282Y-117178282D01*
X78241791Y-117095514D01*
X78284484Y-117068316D01*
X78334669Y-117074923D01*
X78368867Y-117112244D01*
X78374500Y-117140562D01*
X78374500Y-118634521D01*
X78357187Y-118682087D01*
X78352826Y-118686847D01*
X77929249Y-119110423D01*
X77883372Y-119131815D01*
X77867264Y-119131464D01*
X77775000Y-119119317D01*
X77618237Y-119139956D01*
X77472157Y-119200464D01*
X77346718Y-119296718D01*
X77250464Y-119422157D01*
X77189956Y-119568237D01*
X77169317Y-119725000D01*
X77189956Y-119881762D01*
X77250464Y-120027842D01*
X77298590Y-120090561D01*
X77346718Y-120153282D01*
X77414702Y-120205448D01*
X77472157Y-120249535D01*
X77472158Y-120249535D01*
X77472159Y-120249536D01*
X77618238Y-120310044D01*
X77775000Y-120330682D01*
X77931762Y-120310044D01*
X78077841Y-120249536D01*
X78203282Y-120153282D01*
X78299536Y-120027841D01*
X78360044Y-119881762D01*
X78380682Y-119725000D01*
X78368534Y-119632733D01*
X78379490Y-119583316D01*
X78389570Y-119570754D01*
X78917841Y-119042483D01*
X78922577Y-119038144D01*
X78953194Y-119012455D01*
X78973185Y-118977828D01*
X78976630Y-118972420D01*
X78999554Y-118939684D01*
X79000795Y-118935050D01*
X79008189Y-118917198D01*
X79010588Y-118913045D01*
X79017524Y-118873703D01*
X79018922Y-118867400D01*
X79019588Y-118864915D01*
X79029264Y-118828807D01*
X79025782Y-118789005D01*
X79025500Y-118782555D01*
X79025500Y-117015844D01*
X81814000Y-117015844D01*
X81814211Y-117019798D01*
X81820402Y-117077378D01*
X81870646Y-117212086D01*
X81956811Y-117327188D01*
X82071913Y-117413353D01*
X82206621Y-117463597D01*
X82264201Y-117469788D01*
X82268155Y-117470000D01*
X83022458Y-117470000D01*
X83070024Y-117487313D01*
X83095334Y-117531150D01*
X83086544Y-117581000D01*
X83047767Y-117613537D01*
X83029714Y-117617643D01*
X82958065Y-117624699D01*
X82958066Y-117624700D01*
X82760044Y-117684768D01*
X82577550Y-117782315D01*
X82417590Y-117913590D01*
X82286315Y-118073550D01*
X82188768Y-118256044D01*
X82156346Y-118362929D01*
X82128700Y-118454066D01*
X82108417Y-118660000D01*
X82128700Y-118865934D01*
X82149668Y-118935056D01*
X82188768Y-119063955D01*
X82229392Y-119139956D01*
X82286315Y-119246450D01*
X82417590Y-119406410D01*
X82577550Y-119537685D01*
X82760046Y-119635232D01*
X82958066Y-119695300D01*
X83164000Y-119715583D01*
X83369934Y-119695300D01*
X83567954Y-119635232D01*
X83750450Y-119537685D01*
X83910410Y-119406410D01*
X84041685Y-119246450D01*
X84139232Y-119063954D01*
X84199300Y-118865934D01*
X84219583Y-118660000D01*
X84199300Y-118454066D01*
X84139232Y-118256046D01*
X84041685Y-118073550D01*
X83910410Y-117913590D01*
X83750450Y-117782315D01*
X83659201Y-117733541D01*
X83567955Y-117684768D01*
X83453338Y-117650000D01*
X83369934Y-117624700D01*
X83298287Y-117617643D01*
X83252648Y-117595752D01*
X83231758Y-117549645D01*
X83245391Y-117500896D01*
X83287170Y-117472317D01*
X83305542Y-117470000D01*
X84059845Y-117470000D01*
X84063798Y-117469788D01*
X84121378Y-117463597D01*
X84256086Y-117413353D01*
X84371188Y-117327188D01*
X84457353Y-117212086D01*
X84507597Y-117077378D01*
X84513788Y-117019798D01*
X84514000Y-117015844D01*
X84514000Y-116370000D01*
X83597686Y-116370000D01*
X83623493Y-116329844D01*
X83664000Y-116191889D01*
X83664000Y-116048111D01*
X83623493Y-115910156D01*
X83597686Y-115870000D01*
X84514000Y-115870000D01*
X84514000Y-115224155D01*
X84513788Y-115220201D01*
X84507597Y-115162621D01*
X84457353Y-115027913D01*
X84371188Y-114912811D01*
X84256086Y-114826646D01*
X84121378Y-114776402D01*
X84063798Y-114770211D01*
X84059845Y-114770000D01*
X83305542Y-114770000D01*
X83257976Y-114752687D01*
X83232666Y-114708850D01*
X83241456Y-114659000D01*
X83280233Y-114626463D01*
X83298285Y-114622356D01*
X83369934Y-114615300D01*
X83567954Y-114555232D01*
X83750450Y-114457685D01*
X83910410Y-114326410D01*
X84041685Y-114166450D01*
X84139232Y-113983954D01*
X84199300Y-113785934D01*
X84219583Y-113580000D01*
X84199300Y-113374066D01*
X84139232Y-113176046D01*
X84041685Y-112993550D01*
X83910410Y-112833590D01*
X83750450Y-112702315D01*
X83598683Y-112621193D01*
X83567955Y-112604768D01*
X83468943Y-112574734D01*
X83369934Y-112544700D01*
X83164000Y-112524417D01*
X82958066Y-112544700D01*
X82760044Y-112604768D01*
X82577550Y-112702315D01*
X82417590Y-112833590D01*
X82286315Y-112993550D01*
X82188768Y-113176044D01*
X82128700Y-113374065D01*
X82128700Y-113374066D01*
X82108417Y-113580000D01*
X82128700Y-113785934D01*
X82132574Y-113798704D01*
X82188768Y-113983955D01*
X82214163Y-114031464D01*
X82286315Y-114166450D01*
X82417590Y-114326410D01*
X82577550Y-114457685D01*
X82760046Y-114555232D01*
X82958066Y-114615300D01*
X83029712Y-114622356D01*
X83075352Y-114644248D01*
X83096242Y-114690355D01*
X83082609Y-114739104D01*
X83040830Y-114767683D01*
X83022458Y-114770000D01*
X82268155Y-114770000D01*
X82264201Y-114770211D01*
X82206621Y-114776402D01*
X82071913Y-114826646D01*
X81956811Y-114912811D01*
X81870646Y-115027913D01*
X81820402Y-115162621D01*
X81814211Y-115220201D01*
X81814000Y-115224155D01*
X81814000Y-115870000D01*
X82730314Y-115870000D01*
X82704507Y-115910156D01*
X82664000Y-116048111D01*
X82664000Y-116191889D01*
X82704507Y-116329844D01*
X82730314Y-116370000D01*
X81814000Y-116370000D01*
X81814000Y-117015844D01*
X79025500Y-117015844D01*
X79025500Y-112915477D01*
X79042813Y-112867911D01*
X79047163Y-112863162D01*
X80792847Y-111117478D01*
X80797583Y-111113139D01*
X80828194Y-111087455D01*
X80848177Y-111052841D01*
X80851633Y-111047416D01*
X80856826Y-111040000D01*
X82108417Y-111040000D01*
X82128700Y-111245933D01*
X82188768Y-111443955D01*
X82196133Y-111457733D01*
X82286315Y-111626450D01*
X82417590Y-111786410D01*
X82577550Y-111917685D01*
X82760046Y-112015232D01*
X82958066Y-112075300D01*
X83164000Y-112095583D01*
X83369934Y-112075300D01*
X83567954Y-112015232D01*
X83750450Y-111917685D01*
X83910410Y-111786410D01*
X84041685Y-111626450D01*
X84139232Y-111443954D01*
X84199300Y-111245934D01*
X84219583Y-111040000D01*
X84199300Y-110834066D01*
X84139232Y-110636046D01*
X84041685Y-110453550D01*
X83910410Y-110293590D01*
X83750450Y-110162315D01*
X83659202Y-110113541D01*
X83567955Y-110064768D01*
X83468944Y-110034734D01*
X83369934Y-110004700D01*
X83164000Y-109984417D01*
X82958066Y-110004700D01*
X82760044Y-110064768D01*
X82577550Y-110162315D01*
X82417590Y-110293590D01*
X82286315Y-110453550D01*
X82188768Y-110636044D01*
X82128700Y-110834066D01*
X82108417Y-111040000D01*
X80856826Y-111040000D01*
X80874553Y-111014684D01*
X80875794Y-111010049D01*
X80883187Y-110992202D01*
X80885588Y-110988045D01*
X80892526Y-110948692D01*
X80893924Y-110942389D01*
X80904263Y-110903806D01*
X80903994Y-110900734D01*
X80900779Y-110863993D01*
X80900500Y-110857588D01*
X80900500Y-108500000D01*
X82108417Y-108500000D01*
X82128700Y-108705933D01*
X82188768Y-108903955D01*
X82237541Y-108995202D01*
X82286315Y-109086450D01*
X82417590Y-109246410D01*
X82577550Y-109377685D01*
X82760046Y-109475232D01*
X82958066Y-109535300D01*
X83164000Y-109555583D01*
X83369934Y-109535300D01*
X83567954Y-109475232D01*
X83750450Y-109377685D01*
X83910410Y-109246410D01*
X84041685Y-109086450D01*
X84139232Y-108903954D01*
X84199300Y-108705934D01*
X84219583Y-108500000D01*
X84199300Y-108294066D01*
X84139232Y-108096046D01*
X84041685Y-107913550D01*
X83910410Y-107753590D01*
X83750450Y-107622315D01*
X83642120Y-107564411D01*
X83567955Y-107524768D01*
X83468943Y-107494734D01*
X83369934Y-107464700D01*
X83164000Y-107444417D01*
X82958066Y-107464700D01*
X82760044Y-107524768D01*
X82577550Y-107622315D01*
X82417590Y-107753590D01*
X82286315Y-107913550D01*
X82188768Y-108096044D01*
X82128700Y-108294066D01*
X82108417Y-108500000D01*
X80900500Y-108500000D01*
X80900500Y-105960000D01*
X82108417Y-105960000D01*
X82128700Y-106165934D01*
X82142367Y-106210989D01*
X82188768Y-106363955D01*
X82237541Y-106455202D01*
X82286315Y-106546450D01*
X82417590Y-106706410D01*
X82577550Y-106837685D01*
X82760046Y-106935232D01*
X82958066Y-106995300D01*
X83164000Y-107015583D01*
X83369934Y-106995300D01*
X83567954Y-106935232D01*
X83750450Y-106837685D01*
X83910410Y-106706410D01*
X84041685Y-106546450D01*
X84139232Y-106363954D01*
X84199300Y-106165934D01*
X84219583Y-105960000D01*
X84199300Y-105754066D01*
X84139232Y-105556046D01*
X84041685Y-105373550D01*
X83910410Y-105213590D01*
X83750450Y-105082315D01*
X83659202Y-105033541D01*
X83567955Y-104984768D01*
X83468944Y-104954734D01*
X83369934Y-104924700D01*
X83164000Y-104904417D01*
X82958066Y-104924700D01*
X82760044Y-104984768D01*
X82577550Y-105082315D01*
X82417590Y-105213590D01*
X82286315Y-105373550D01*
X82188768Y-105556044D01*
X82128700Y-105754065D01*
X82128700Y-105754066D01*
X82108417Y-105960000D01*
X80900500Y-105960000D01*
X80900500Y-104289747D01*
X82113500Y-104289747D01*
X82125132Y-104348229D01*
X82125132Y-104348230D01*
X82125133Y-104348231D01*
X82169448Y-104414552D01*
X82235769Y-104458867D01*
X82294252Y-104470500D01*
X84033748Y-104470500D01*
X84092231Y-104458867D01*
X84158552Y-104414552D01*
X84202867Y-104348231D01*
X84214500Y-104289748D01*
X84214500Y-102550252D01*
X84202867Y-102491769D01*
X84158552Y-102425448D01*
X84092231Y-102381133D01*
X84092230Y-102381132D01*
X84092229Y-102381132D01*
X84033748Y-102369500D01*
X82294252Y-102369500D01*
X82235770Y-102381132D01*
X82169448Y-102425448D01*
X82125132Y-102491770D01*
X82113500Y-102550252D01*
X82113500Y-104289747D01*
X80900500Y-104289747D01*
X80900500Y-100880000D01*
X82108417Y-100880000D01*
X82128700Y-101085934D01*
X82141137Y-101126934D01*
X82188768Y-101283955D01*
X82210015Y-101323704D01*
X82286315Y-101466450D01*
X82417590Y-101626410D01*
X82577550Y-101757685D01*
X82760046Y-101855232D01*
X82958066Y-101915300D01*
X83164000Y-101935583D01*
X83369934Y-101915300D01*
X83567954Y-101855232D01*
X83750450Y-101757685D01*
X83910410Y-101626410D01*
X84041685Y-101466450D01*
X84139232Y-101283954D01*
X84199300Y-101085934D01*
X84219583Y-100880000D01*
X84199300Y-100674066D01*
X84139232Y-100476046D01*
X84041685Y-100293550D01*
X83910410Y-100133590D01*
X83750450Y-100002315D01*
X83659202Y-99953541D01*
X83567955Y-99904768D01*
X83468944Y-99874734D01*
X83369934Y-99844700D01*
X83164000Y-99824417D01*
X83163999Y-99824417D01*
X82958066Y-99844700D01*
X82760044Y-99904768D01*
X82577550Y-100002315D01*
X82417590Y-100133590D01*
X82286315Y-100293550D01*
X82188768Y-100476044D01*
X82173252Y-100527196D01*
X82128700Y-100674066D01*
X82108417Y-100880000D01*
X80900500Y-100880000D01*
X80900500Y-98921525D01*
X80900500Y-98921524D01*
X80900500Y-98340000D01*
X82108417Y-98340000D01*
X82128700Y-98545933D01*
X82188768Y-98743955D01*
X82237541Y-98835202D01*
X82286315Y-98926450D01*
X82417590Y-99086410D01*
X82577550Y-99217685D01*
X82760046Y-99315232D01*
X82958066Y-99375300D01*
X83164000Y-99395583D01*
X83369934Y-99375300D01*
X83567954Y-99315232D01*
X83750450Y-99217685D01*
X83910410Y-99086410D01*
X84041685Y-98926450D01*
X84139232Y-98743954D01*
X84199300Y-98545934D01*
X84219583Y-98340000D01*
X84199300Y-98134066D01*
X84139232Y-97936046D01*
X84041685Y-97753550D01*
X83910410Y-97593590D01*
X83750450Y-97462315D01*
X83590513Y-97376826D01*
X83567955Y-97364768D01*
X83456470Y-97330950D01*
X83369934Y-97304700D01*
X83164000Y-97284417D01*
X83163999Y-97284417D01*
X82958066Y-97304700D01*
X82760044Y-97364768D01*
X82577550Y-97462315D01*
X82417590Y-97593590D01*
X82286315Y-97753550D01*
X82188768Y-97936044D01*
X82128700Y-98134066D01*
X82108417Y-98340000D01*
X80900500Y-98340000D01*
X80900500Y-96167439D01*
X80900782Y-96160989D01*
X80904264Y-96121193D01*
X80893923Y-96082602D01*
X80892525Y-96076298D01*
X80885588Y-96036955D01*
X80883189Y-96032800D01*
X80875795Y-96014949D01*
X80874554Y-96010316D01*
X80851639Y-95977590D01*
X80848172Y-95972148D01*
X80828194Y-95937545D01*
X80797583Y-95911859D01*
X80792824Y-95907498D01*
X80685326Y-95800000D01*
X82108417Y-95800000D01*
X82128700Y-96005934D01*
X82151008Y-96079474D01*
X82188768Y-96203955D01*
X82220410Y-96263151D01*
X82286315Y-96386450D01*
X82417590Y-96546410D01*
X82577550Y-96677685D01*
X82760046Y-96775232D01*
X82958066Y-96835300D01*
X83164000Y-96855583D01*
X83369934Y-96835300D01*
X83567954Y-96775232D01*
X83750450Y-96677685D01*
X83910410Y-96546410D01*
X84041685Y-96386450D01*
X84139232Y-96203954D01*
X84199300Y-96005934D01*
X84219583Y-95800000D01*
X84199300Y-95594066D01*
X84139232Y-95396046D01*
X84041685Y-95213550D01*
X83910410Y-95053590D01*
X83750450Y-94922315D01*
X83620005Y-94852590D01*
X83567955Y-94824768D01*
X83436149Y-94784786D01*
X83369934Y-94764700D01*
X83164000Y-94744417D01*
X83163999Y-94744417D01*
X82958066Y-94764700D01*
X82760044Y-94824768D01*
X82577550Y-94922315D01*
X82417590Y-95053590D01*
X82286315Y-95213550D01*
X82188768Y-95396044D01*
X82128700Y-95594065D01*
X82128700Y-95594066D01*
X82108417Y-95800000D01*
X80685326Y-95800000D01*
X79567499Y-94682173D01*
X79563138Y-94677414D01*
X79561592Y-94675572D01*
X79537455Y-94646806D01*
X79502855Y-94626829D01*
X79497412Y-94623362D01*
X79494164Y-94621088D01*
X79464684Y-94600446D01*
X79460044Y-94599202D01*
X79442203Y-94591812D01*
X79438044Y-94589410D01*
X79398704Y-94582473D01*
X79392405Y-94581077D01*
X79353807Y-94570735D01*
X79316776Y-94573975D01*
X79314008Y-94574218D01*
X79307559Y-94574500D01*
X78099500Y-94574500D01*
X78051934Y-94557187D01*
X78026624Y-94513350D01*
X78025500Y-94500500D01*
X78025500Y-93845065D01*
X78025500Y-93845064D01*
X78025500Y-93843384D01*
X78019086Y-93772804D01*
X77968478Y-93610394D01*
X77880472Y-93464815D01*
X77760185Y-93344528D01*
X77614606Y-93256522D01*
X77614605Y-93256521D01*
X77614604Y-93256521D01*
X77452196Y-93205913D01*
X77383294Y-93199652D01*
X77383283Y-93199651D01*
X77381616Y-93199500D01*
X76268384Y-93199500D01*
X76266717Y-93199651D01*
X76266705Y-93199652D01*
X76197803Y-93205913D01*
X76035395Y-93256521D01*
X75902059Y-93337126D01*
X75852396Y-93346918D01*
X75811450Y-93326124D01*
X75747811Y-93262485D01*
X75726419Y-93216609D01*
X75726419Y-93203708D01*
X75729264Y-93171193D01*
X75718923Y-93132602D01*
X75717525Y-93126298D01*
X75711826Y-93093978D01*
X75710588Y-93086955D01*
X75708189Y-93082800D01*
X75700795Y-93064949D01*
X75699554Y-93060316D01*
X75676639Y-93027590D01*
X75673172Y-93022148D01*
X75653194Y-92987545D01*
X75622583Y-92961859D01*
X75617824Y-92957498D01*
X75517499Y-92857173D01*
X75513138Y-92852414D01*
X75511592Y-92850572D01*
X75487455Y-92821806D01*
X75452855Y-92801829D01*
X75447412Y-92798362D01*
X75444164Y-92796088D01*
X75414684Y-92775446D01*
X75410044Y-92774202D01*
X75392203Y-92766812D01*
X75388044Y-92764410D01*
X75348704Y-92757473D01*
X75342405Y-92756077D01*
X75303807Y-92745735D01*
X75266776Y-92748975D01*
X75264008Y-92749218D01*
X75257559Y-92749500D01*
X71242441Y-92749500D01*
X71235991Y-92749218D01*
X71232978Y-92748954D01*
X71196192Y-92745735D01*
X71157592Y-92756077D01*
X71151295Y-92757473D01*
X71111956Y-92764411D01*
X71107796Y-92766813D01*
X71089955Y-92774202D01*
X71085316Y-92775446D01*
X71052590Y-92798360D01*
X71047150Y-92801825D01*
X71012545Y-92821805D01*
X70986865Y-92852409D01*
X70982505Y-92857167D01*
X70782171Y-93057501D01*
X70777413Y-93061861D01*
X70746805Y-93087545D01*
X70726825Y-93122150D01*
X70723360Y-93127590D01*
X70700446Y-93160316D01*
X70699203Y-93164955D01*
X70691813Y-93182796D01*
X70689410Y-93186956D01*
X70682474Y-93226291D01*
X70681077Y-93232592D01*
X70676691Y-93248960D01*
X70657540Y-93282132D01*
X70613550Y-93326124D01*
X70604253Y-93335421D01*
X70569456Y-93410044D01*
X70555741Y-93439456D01*
X70549816Y-93484454D01*
X70549815Y-93484467D01*
X70549500Y-93486861D01*
X70549500Y-93489288D01*
X70549500Y-93489289D01*
X70549500Y-94500500D01*
X70532187Y-94548066D01*
X70488350Y-94573376D01*
X70475500Y-94574500D01*
X70292441Y-94574500D01*
X70285991Y-94574218D01*
X70282978Y-94573954D01*
X70246192Y-94570735D01*
X70207592Y-94581077D01*
X70201295Y-94582473D01*
X70161956Y-94589411D01*
X70157796Y-94591813D01*
X70139955Y-94599202D01*
X70135316Y-94600446D01*
X70102590Y-94623360D01*
X70097150Y-94626825D01*
X70062545Y-94646805D01*
X70036865Y-94677409D01*
X70032505Y-94682167D01*
X69932171Y-94782501D01*
X69927413Y-94786861D01*
X69896805Y-94812545D01*
X69876825Y-94847150D01*
X69873360Y-94852590D01*
X69850446Y-94885316D01*
X69849203Y-94889955D01*
X69841813Y-94907796D01*
X69839411Y-94911956D01*
X69832473Y-94951295D01*
X69831077Y-94957592D01*
X69820735Y-94996192D01*
X69824218Y-95035989D01*
X69824500Y-95042440D01*
X69824500Y-101882558D01*
X69824218Y-101889009D01*
X69820735Y-101928807D01*
X65668797Y-101928807D01*
X65805934Y-101915300D01*
X66003954Y-101855232D01*
X66186450Y-101757685D01*
X66346410Y-101626410D01*
X66477685Y-101466450D01*
X66575232Y-101283954D01*
X66635300Y-101085934D01*
X66655583Y-100880000D01*
X66635300Y-100674066D01*
X66575232Y-100476046D01*
X66477685Y-100293550D01*
X66346410Y-100133590D01*
X66186450Y-100002315D01*
X66095202Y-99953541D01*
X66003955Y-99904768D01*
X65904944Y-99874734D01*
X65805934Y-99844700D01*
X65600000Y-99824417D01*
X65599999Y-99824417D01*
X65394066Y-99844700D01*
X65196044Y-99904768D01*
X65013550Y-100002315D01*
X64853590Y-100133590D01*
X64722315Y-100293550D01*
X64624768Y-100476044D01*
X64609252Y-100527196D01*
X64564700Y-100674066D01*
X64544417Y-100880000D01*
X63500500Y-100880000D01*
X63500500Y-98340000D01*
X64544417Y-98340000D01*
X64564700Y-98545933D01*
X64624768Y-98743955D01*
X64673541Y-98835202D01*
X64722315Y-98926450D01*
X64853590Y-99086410D01*
X65013550Y-99217685D01*
X65196046Y-99315232D01*
X65394066Y-99375300D01*
X65600000Y-99395583D01*
X65805934Y-99375300D01*
X66003954Y-99315232D01*
X66186450Y-99217685D01*
X66346410Y-99086410D01*
X66477685Y-98926450D01*
X66575232Y-98743954D01*
X66635300Y-98545934D01*
X66655583Y-98340000D01*
X66635300Y-98134066D01*
X66575232Y-97936046D01*
X66477685Y-97753550D01*
X66346410Y-97593590D01*
X66186450Y-97462315D01*
X66026513Y-97376826D01*
X66003955Y-97364768D01*
X65892470Y-97330950D01*
X65805934Y-97304700D01*
X65600000Y-97284417D01*
X65599999Y-97284417D01*
X65394066Y-97304700D01*
X65196044Y-97364768D01*
X65013550Y-97462315D01*
X64853590Y-97593590D01*
X64722315Y-97753550D01*
X64624768Y-97936044D01*
X64564700Y-98134066D01*
X64544417Y-98340000D01*
X63500500Y-98340000D01*
X63500500Y-95800000D01*
X64544417Y-95800000D01*
X64564700Y-96005934D01*
X64587008Y-96079474D01*
X64624768Y-96203955D01*
X64656410Y-96263151D01*
X64722315Y-96386450D01*
X64853590Y-96546410D01*
X65013550Y-96677685D01*
X65196046Y-96775232D01*
X65394066Y-96835300D01*
X65600000Y-96855583D01*
X65805934Y-96835300D01*
X66003954Y-96775232D01*
X66186450Y-96677685D01*
X66346410Y-96546410D01*
X66477685Y-96386450D01*
X66575232Y-96203954D01*
X66635300Y-96005934D01*
X66655583Y-95800000D01*
X66635300Y-95594066D01*
X66575232Y-95396046D01*
X66477685Y-95213550D01*
X66346410Y-95053590D01*
X66186450Y-94922315D01*
X66056005Y-94852590D01*
X66003955Y-94824768D01*
X65872149Y-94784786D01*
X65805934Y-94764700D01*
X65600000Y-94744417D01*
X65599999Y-94744417D01*
X65394066Y-94764700D01*
X65196044Y-94824768D01*
X65013550Y-94922315D01*
X64853590Y-95053590D01*
X64722315Y-95213550D01*
X64624768Y-95396044D01*
X64564700Y-95594066D01*
X64544417Y-95800000D01*
X63500500Y-95800000D01*
X63500500Y-93260000D01*
X64544417Y-93260000D01*
X64559960Y-93417813D01*
X64564700Y-93465933D01*
X64624768Y-93663955D01*
X64673541Y-93755202D01*
X64722315Y-93846450D01*
X64853590Y-94006410D01*
X65013550Y-94137685D01*
X65196046Y-94235232D01*
X65394066Y-94295300D01*
X65600000Y-94315583D01*
X65805934Y-94295300D01*
X66003954Y-94235232D01*
X66186450Y-94137685D01*
X66346410Y-94006410D01*
X66477685Y-93846450D01*
X66575232Y-93663954D01*
X66635300Y-93465934D01*
X66655583Y-93260000D01*
X66635300Y-93054066D01*
X66575232Y-92856046D01*
X66574612Y-92854887D01*
X66544398Y-92798360D01*
X66477685Y-92673550D01*
X66346410Y-92513590D01*
X66186450Y-92382315D01*
X66095202Y-92333541D01*
X66003955Y-92284768D01*
X65856998Y-92240190D01*
X65805934Y-92224700D01*
X65600000Y-92204417D01*
X65599999Y-92204417D01*
X65394066Y-92224700D01*
X65196044Y-92284768D01*
X65013550Y-92382315D01*
X64853590Y-92513590D01*
X64722315Y-92673550D01*
X64624768Y-92856044D01*
X64572730Y-93027593D01*
X64564700Y-93054066D01*
X64544417Y-93260000D01*
X63500500Y-93260000D01*
X63500500Y-91589747D01*
X64549500Y-91589747D01*
X64561132Y-91648229D01*
X64561132Y-91648230D01*
X64561133Y-91648231D01*
X64605448Y-91714552D01*
X64671769Y-91758867D01*
X64730252Y-91770500D01*
X66469748Y-91770500D01*
X66528231Y-91758867D01*
X66594552Y-91714552D01*
X66638867Y-91648231D01*
X66650500Y-91589748D01*
X66650500Y-89850252D01*
X66638867Y-89791769D01*
X66594552Y-89725448D01*
X66528231Y-89681133D01*
X66528230Y-89681132D01*
X66528229Y-89681132D01*
X66469748Y-89669500D01*
X64730252Y-89669500D01*
X64671770Y-89681132D01*
X64605448Y-89725448D01*
X64561132Y-89791770D01*
X64549500Y-89850252D01*
X64549500Y-91589747D01*
X63500500Y-91589747D01*
X63500500Y-88180000D01*
X64544417Y-88180000D01*
X64564700Y-88385933D01*
X64624768Y-88583955D01*
X64640912Y-88614157D01*
X64722315Y-88766450D01*
X64853590Y-88926410D01*
X65013550Y-89057685D01*
X65196046Y-89155232D01*
X65394066Y-89215300D01*
X65600000Y-89235583D01*
X65805934Y-89215300D01*
X66003954Y-89155232D01*
X66186450Y-89057685D01*
X66346410Y-88926410D01*
X66477685Y-88766450D01*
X66575232Y-88583954D01*
X66635300Y-88385934D01*
X66655583Y-88180000D01*
X66635300Y-87974066D01*
X66575232Y-87776046D01*
X66477685Y-87593550D01*
X66346410Y-87433590D01*
X66186450Y-87302315D01*
X66076257Y-87243415D01*
X66003955Y-87204768D01*
X65904944Y-87174734D01*
X65805934Y-87144700D01*
X65600000Y-87124417D01*
X65394066Y-87144700D01*
X65196044Y-87204768D01*
X65013550Y-87302315D01*
X64853590Y-87433590D01*
X64722315Y-87593550D01*
X64624768Y-87776044D01*
X64564700Y-87974066D01*
X64544417Y-88180000D01*
X63500500Y-88180000D01*
X63500500Y-85640000D01*
X64544417Y-85640000D01*
X64564700Y-85845933D01*
X64624768Y-86043955D01*
X64673178Y-86134522D01*
X64722315Y-86226450D01*
X64853590Y-86386410D01*
X65013550Y-86517685D01*
X65196046Y-86615232D01*
X65394066Y-86675300D01*
X65600000Y-86695583D01*
X65805934Y-86675300D01*
X66003954Y-86615232D01*
X66186450Y-86517685D01*
X66346410Y-86386410D01*
X66477685Y-86226450D01*
X66575232Y-86043954D01*
X66635300Y-85845934D01*
X66655583Y-85640000D01*
X66635300Y-85434066D01*
X66575232Y-85236046D01*
X66477685Y-85053550D01*
X66346410Y-84893590D01*
X66186450Y-84762315D01*
X66068998Y-84699535D01*
X66003955Y-84664768D01*
X65904944Y-84634734D01*
X65805934Y-84604700D01*
X65600000Y-84584417D01*
X65394066Y-84604700D01*
X65196044Y-84664768D01*
X65013550Y-84762315D01*
X64853590Y-84893590D01*
X64722315Y-85053550D01*
X64624768Y-85236044D01*
X64564700Y-85434066D01*
X64544417Y-85640000D01*
X63500500Y-85640000D01*
X63500500Y-78915844D01*
X64250000Y-78915844D01*
X64250211Y-78919798D01*
X64256402Y-78977378D01*
X64306646Y-79112086D01*
X64392811Y-79227188D01*
X64507913Y-79313353D01*
X64642621Y-79363597D01*
X64700201Y-79369788D01*
X64704155Y-79370000D01*
X65458458Y-79370000D01*
X65506024Y-79387313D01*
X65531334Y-79431150D01*
X65522544Y-79481000D01*
X65483767Y-79513537D01*
X65465714Y-79517643D01*
X65394066Y-79524699D01*
X65394066Y-79524700D01*
X65196044Y-79584768D01*
X65013550Y-79682315D01*
X64853590Y-79813590D01*
X64722315Y-79973550D01*
X64624768Y-80156044D01*
X64564700Y-80354066D01*
X64544417Y-80560000D01*
X64564700Y-80765934D01*
X64580887Y-80819297D01*
X64624768Y-80963955D01*
X64666881Y-81042741D01*
X64722315Y-81146450D01*
X64853590Y-81306410D01*
X65013550Y-81437685D01*
X65196046Y-81535232D01*
X65394066Y-81595300D01*
X65600000Y-81615583D01*
X65805934Y-81595300D01*
X66003954Y-81535232D01*
X66186450Y-81437685D01*
X66346410Y-81306410D01*
X66477685Y-81146450D01*
X66575232Y-80963954D01*
X66602668Y-80873505D01*
X66633043Y-80833014D01*
X66682339Y-80821519D01*
X66727491Y-80844401D01*
X66734098Y-80852540D01*
X66745040Y-80868168D01*
X66748362Y-80872912D01*
X66751829Y-80878355D01*
X66771806Y-80912955D01*
X66802409Y-80938634D01*
X66807169Y-80942995D01*
X67409923Y-81545749D01*
X67431315Y-81591625D01*
X67430964Y-81607733D01*
X67418817Y-81699999D01*
X67439456Y-81856762D01*
X67499964Y-82002842D01*
X67531866Y-82044417D01*
X67596218Y-82128282D01*
X67714103Y-82218738D01*
X67721659Y-82224536D01*
X67862077Y-82282699D01*
X67899398Y-82316896D01*
X67906005Y-82367082D01*
X67886085Y-82403392D01*
X67536653Y-82752826D01*
X67490777Y-82774218D01*
X67484327Y-82774500D01*
X66653913Y-82774500D01*
X66606347Y-82757187D01*
X66583100Y-82721981D01*
X66575233Y-82696050D01*
X66575232Y-82696046D01*
X66477685Y-82513550D01*
X66346410Y-82353590D01*
X66186450Y-82222315D01*
X66024139Y-82135557D01*
X66003955Y-82124768D01*
X65904944Y-82094734D01*
X65805934Y-82064700D01*
X65600000Y-82044417D01*
X65394066Y-82064700D01*
X65196044Y-82124768D01*
X65013550Y-82222315D01*
X64853590Y-82353590D01*
X64722315Y-82513550D01*
X64624768Y-82696044D01*
X64581197Y-82839683D01*
X64564700Y-82894066D01*
X64544417Y-83100000D01*
X64564700Y-83305934D01*
X64569000Y-83320110D01*
X64624768Y-83503955D01*
X64659706Y-83569318D01*
X64722315Y-83686450D01*
X64853590Y-83846410D01*
X65013550Y-83977685D01*
X65196046Y-84075232D01*
X65394066Y-84135300D01*
X65600000Y-84155583D01*
X65805934Y-84135300D01*
X66003954Y-84075232D01*
X66186450Y-83977685D01*
X66346410Y-83846410D01*
X66477685Y-83686450D01*
X66575232Y-83503954D01*
X66577994Y-83494846D01*
X66583100Y-83478019D01*
X66613475Y-83437526D01*
X66653913Y-83425500D01*
X67632364Y-83425500D01*
X67638813Y-83425781D01*
X67650721Y-83426823D01*
X67678610Y-83429264D01*
X67678610Y-83429263D01*
X67678612Y-83429264D01*
X67717218Y-83418918D01*
X67723503Y-83417525D01*
X67762850Y-83410588D01*
X67767003Y-83408189D01*
X67784855Y-83400795D01*
X67789489Y-83399554D01*
X67822225Y-83376630D01*
X67827633Y-83373185D01*
X67862260Y-83353194D01*
X67887945Y-83322582D01*
X67892295Y-83317834D01*
X68687956Y-82522174D01*
X68733834Y-82500782D01*
X68740283Y-82500500D01*
X69304753Y-82500500D01*
X69352319Y-82517813D01*
X69377629Y-82561650D01*
X69373120Y-82602817D01*
X69334504Y-82696046D01*
X69314956Y-82743238D01*
X69294317Y-82900000D01*
X69314956Y-83056762D01*
X69375464Y-83202842D01*
X69379595Y-83208225D01*
X69471718Y-83328282D01*
X69545548Y-83384933D01*
X69572746Y-83427624D01*
X69574500Y-83443641D01*
X69574500Y-86282558D01*
X69574218Y-86289009D01*
X69570735Y-86328807D01*
X69581077Y-86367405D01*
X69582473Y-86373704D01*
X69589410Y-86413044D01*
X69591812Y-86417203D01*
X69599202Y-86435044D01*
X69600446Y-86439684D01*
X69621088Y-86469164D01*
X69623362Y-86472412D01*
X69626829Y-86477855D01*
X69646806Y-86512455D01*
X69677409Y-86538134D01*
X69682169Y-86542495D01*
X70985423Y-87845749D01*
X71006815Y-87891625D01*
X71006464Y-87907733D01*
X70994317Y-87999999D01*
X71014956Y-88156762D01*
X71075464Y-88302842D01*
X71118183Y-88358514D01*
X71171718Y-88428282D01*
X71253455Y-88491001D01*
X71297157Y-88524535D01*
X71297158Y-88524535D01*
X71297159Y-88524536D01*
X71443238Y-88585044D01*
X71600000Y-88605682D01*
X71756762Y-88585044D01*
X71902841Y-88524536D01*
X72028282Y-88428282D01*
X72124536Y-88302841D01*
X72185044Y-88156762D01*
X72205682Y-88000000D01*
X72185044Y-87843238D01*
X72124536Y-87697159D01*
X72124535Y-87697158D01*
X72124535Y-87697157D01*
X72091001Y-87653455D01*
X72028282Y-87571718D01*
X71935422Y-87500464D01*
X71902842Y-87475464D01*
X71756762Y-87414956D01*
X71599999Y-87394317D01*
X71507733Y-87406464D01*
X71458314Y-87395508D01*
X71445749Y-87385423D01*
X70247174Y-86186848D01*
X70225782Y-86140972D01*
X70225500Y-86134522D01*
X70225500Y-83443641D01*
X70242813Y-83396075D01*
X70254449Y-83384935D01*
X70328282Y-83328282D01*
X70424536Y-83202841D01*
X70485044Y-83056762D01*
X70505682Y-82900000D01*
X70485044Y-82743238D01*
X70426879Y-82602817D01*
X70424672Y-82552248D01*
X70455487Y-82512089D01*
X70495247Y-82500500D01*
X72934522Y-82500500D01*
X72982088Y-82517813D01*
X72986848Y-82522174D01*
X74485423Y-84020749D01*
X74506815Y-84066625D01*
X74506464Y-84082733D01*
X74494317Y-84174999D01*
X74514956Y-84331762D01*
X74575464Y-84477842D01*
X74623591Y-84540561D01*
X74671718Y-84603282D01*
X74751848Y-84664768D01*
X74797157Y-84699535D01*
X74797158Y-84699535D01*
X74797159Y-84699536D01*
X74943238Y-84760044D01*
X75100000Y-84780682D01*
X75256762Y-84760044D01*
X75402841Y-84699536D01*
X75528282Y-84603282D01*
X75624536Y-84477841D01*
X75685044Y-84331762D01*
X75705682Y-84175000D01*
X75685044Y-84018238D01*
X75624536Y-83872159D01*
X75624535Y-83872158D01*
X75624535Y-83872157D01*
X75591001Y-83828455D01*
X75528282Y-83746718D01*
X75449738Y-83686449D01*
X75402842Y-83650464D01*
X75256762Y-83589956D01*
X75099999Y-83569317D01*
X75007733Y-83581464D01*
X74958314Y-83570508D01*
X74945749Y-83560423D01*
X73342499Y-81957173D01*
X73338138Y-81952414D01*
X73331587Y-81944607D01*
X73312455Y-81921806D01*
X73277855Y-81901829D01*
X73272412Y-81898362D01*
X73269164Y-81896088D01*
X73239684Y-81875446D01*
X73235044Y-81874202D01*
X73217203Y-81866812D01*
X73213044Y-81864410D01*
X73173704Y-81857473D01*
X73167405Y-81856077D01*
X73128807Y-81845735D01*
X73091776Y-81848975D01*
X73089008Y-81849218D01*
X73082559Y-81849500D01*
X68694881Y-81849500D01*
X68647315Y-81832187D01*
X68622005Y-81788350D01*
X68621514Y-81765841D01*
X68630182Y-81700000D01*
X68619068Y-81615582D01*
X68609544Y-81543238D01*
X68549036Y-81397159D01*
X68549035Y-81397158D01*
X68549035Y-81397157D01*
X68515501Y-81353455D01*
X68452782Y-81271718D01*
X68386936Y-81221193D01*
X68327342Y-81175464D01*
X68181262Y-81114956D01*
X68024499Y-81094317D01*
X67932233Y-81106464D01*
X67882814Y-81095508D01*
X67870249Y-81085423D01*
X67372174Y-80587347D01*
X67350782Y-80541470D01*
X67350500Y-80535021D01*
X67350500Y-78795247D01*
X67367813Y-78747681D01*
X67411650Y-78722371D01*
X67452817Y-78726879D01*
X67593238Y-78785044D01*
X67731762Y-78803280D01*
X67749999Y-78805682D01*
X67749999Y-78805681D01*
X67750000Y-78805682D01*
X67906762Y-78785044D01*
X68052841Y-78724536D01*
X68178282Y-78628282D01*
X68274536Y-78502841D01*
X68335044Y-78356762D01*
X68355682Y-78200000D01*
X68335044Y-78043238D01*
X68274536Y-77897159D01*
X68274535Y-77897158D01*
X68274535Y-77897157D01*
X68178284Y-77771719D01*
X68104451Y-77715065D01*
X68077254Y-77672373D01*
X68075500Y-77656357D01*
X68075500Y-77340478D01*
X68092813Y-77292912D01*
X68097174Y-77288152D01*
X69803564Y-75581762D01*
X71592847Y-73792478D01*
X71597583Y-73788139D01*
X71628194Y-73762455D01*
X71641803Y-73738881D01*
X71680577Y-73706345D01*
X71731196Y-73706343D01*
X71760882Y-73726366D01*
X71785950Y-73754207D01*
X71934839Y-73862382D01*
X71986939Y-73885578D01*
X72023352Y-73920740D01*
X72028643Y-73971082D01*
X72009167Y-74005506D01*
X69457171Y-76557501D01*
X69452413Y-76561861D01*
X69421805Y-76587545D01*
X69401825Y-76622150D01*
X69398360Y-76627590D01*
X69375446Y-76660316D01*
X69374203Y-76664955D01*
X69366813Y-76682796D01*
X69364411Y-76686956D01*
X69357473Y-76726295D01*
X69356077Y-76732592D01*
X69345735Y-76771192D01*
X69349218Y-76810989D01*
X69349500Y-76817440D01*
X69349500Y-77631357D01*
X69332187Y-77678923D01*
X69320549Y-77690065D01*
X69246715Y-77746719D01*
X69150464Y-77872157D01*
X69089956Y-78018237D01*
X69069317Y-78175000D01*
X69089956Y-78331762D01*
X69150464Y-78477842D01*
X69198590Y-78540561D01*
X69246718Y-78603282D01*
X69308081Y-78650367D01*
X69372157Y-78699535D01*
X69372158Y-78699535D01*
X69372159Y-78699536D01*
X69518238Y-78760044D01*
X69675000Y-78780682D01*
X69831762Y-78760044D01*
X69977841Y-78699536D01*
X70103282Y-78603282D01*
X70199536Y-78477841D01*
X70260044Y-78331762D01*
X70277391Y-78200000D01*
X71019317Y-78200000D01*
X71039956Y-78356762D01*
X71100464Y-78502842D01*
X71144873Y-78560716D01*
X71196718Y-78628282D01*
X71273989Y-78687574D01*
X71322157Y-78724535D01*
X71322158Y-78724535D01*
X71322159Y-78724536D01*
X71468238Y-78785044D01*
X71625000Y-78805682D01*
X71781762Y-78785044D01*
X71927841Y-78724536D01*
X72053282Y-78628282D01*
X72149536Y-78502841D01*
X72210044Y-78356762D01*
X72230682Y-78200000D01*
X72210044Y-78043238D01*
X72149536Y-77897159D01*
X72149535Y-77897158D01*
X72149535Y-77897157D01*
X72053284Y-77771719D01*
X71979451Y-77715065D01*
X71952254Y-77672373D01*
X71950500Y-77656357D01*
X71950500Y-76265478D01*
X71967813Y-76217912D01*
X71972174Y-76213152D01*
X72807455Y-75377872D01*
X72853332Y-75356480D01*
X72859781Y-75356198D01*
X72996144Y-75356198D01*
X73043710Y-75373511D01*
X73069020Y-75417348D01*
X73060230Y-75467198D01*
X73040491Y-75489438D01*
X72895585Y-75597913D01*
X72708413Y-75785085D01*
X72549781Y-75996992D01*
X72422925Y-76229310D01*
X72330423Y-76477318D01*
X72274156Y-76735978D01*
X72255272Y-77000000D01*
X72274156Y-77264021D01*
X72330423Y-77522681D01*
X72422925Y-77770689D01*
X72549781Y-78003007D01*
X72549784Y-78003011D01*
X72708413Y-78214915D01*
X72895585Y-78402087D01*
X73032634Y-78504680D01*
X73107492Y-78560718D01*
X73339810Y-78687574D01*
X73587818Y-78780076D01*
X73587821Y-78780076D01*
X73587822Y-78780077D01*
X73846474Y-78836343D01*
X74110500Y-78855227D01*
X74374526Y-78836343D01*
X74633178Y-78780077D01*
X74686892Y-78760043D01*
X74881189Y-78687574D01*
X74989774Y-78628282D01*
X75113511Y-78560716D01*
X75325415Y-78402087D01*
X75512587Y-78214915D01*
X75671216Y-78003011D01*
X75798074Y-77770689D01*
X75810661Y-77736942D01*
X75890576Y-77522681D01*
X75890900Y-77521192D01*
X75946843Y-77264026D01*
X75965727Y-77000000D01*
X75946843Y-76735974D01*
X75890577Y-76477322D01*
X75881352Y-76452590D01*
X75798074Y-76229310D01*
X75671218Y-75996992D01*
X75663705Y-75986956D01*
X75512587Y-75785085D01*
X75325415Y-75597913D01*
X75113511Y-75439284D01*
X75113507Y-75439281D01*
X74881189Y-75312425D01*
X74633181Y-75219923D01*
X74374521Y-75163656D01*
X74110499Y-75144772D01*
X73883024Y-75161042D01*
X73834344Y-75147167D01*
X73805972Y-75105247D01*
X73811183Y-75054897D01*
X73825416Y-75034908D01*
X74592841Y-74267483D01*
X74597577Y-74263144D01*
X74628194Y-74237455D01*
X74648185Y-74202828D01*
X74651630Y-74197420D01*
X74674554Y-74164684D01*
X74675795Y-74160050D01*
X74683189Y-74142198D01*
X74685588Y-74138045D01*
X74692524Y-74098703D01*
X74693922Y-74092400D01*
X74695503Y-74086500D01*
X74704264Y-74053807D01*
X74700782Y-74014005D01*
X74700500Y-74007555D01*
X74700500Y-73961486D01*
X74717813Y-73913920D01*
X74744398Y-73893886D01*
X74815161Y-73862381D01*
X74915073Y-73789791D01*
X74964049Y-73754208D01*
X74965724Y-73752348D01*
X75001705Y-73712385D01*
X75046399Y-73688620D01*
X75095912Y-73699144D01*
X75120782Y-73724896D01*
X75121631Y-73726366D01*
X75121806Y-73726669D01*
X75152409Y-73752348D01*
X75157169Y-73756709D01*
X76657611Y-75257151D01*
X76679003Y-75303027D01*
X76665902Y-75351922D01*
X76663995Y-75354523D01*
X76650464Y-75372157D01*
X76589956Y-75518237D01*
X76569317Y-75675000D01*
X76589956Y-75831762D01*
X76650464Y-75977842D01*
X76665159Y-75996992D01*
X76746718Y-76103282D01*
X76808490Y-76150681D01*
X76872157Y-76199535D01*
X76872158Y-76199535D01*
X76872159Y-76199536D01*
X76878816Y-76202293D01*
X76916138Y-76236490D01*
X76924500Y-76270661D01*
X76924500Y-76959521D01*
X76907187Y-77007087D01*
X76902826Y-77011847D01*
X76607171Y-77307501D01*
X76602413Y-77311861D01*
X76571805Y-77337545D01*
X76551825Y-77372150D01*
X76548359Y-77377590D01*
X76525446Y-77410316D01*
X76524276Y-77414684D01*
X76524203Y-77414955D01*
X76516813Y-77432796D01*
X76514411Y-77436956D01*
X76507473Y-77476295D01*
X76506077Y-77482592D01*
X76495735Y-77521192D01*
X76499218Y-77560989D01*
X76499500Y-77567440D01*
X76499500Y-79069759D01*
X76499218Y-79076210D01*
X76495735Y-79116008D01*
X76506077Y-79154606D01*
X76507473Y-79160905D01*
X76514410Y-79200245D01*
X76516812Y-79204404D01*
X76524202Y-79222245D01*
X76525446Y-79226885D01*
X76546088Y-79256365D01*
X76548362Y-79259613D01*
X76551829Y-79265056D01*
X76571806Y-79299656D01*
X76602409Y-79325335D01*
X76607169Y-79329696D01*
X78502826Y-81225353D01*
X78524218Y-81271229D01*
X78524500Y-81277679D01*
X78524500Y-82682558D01*
X78524218Y-82689009D01*
X78520735Y-82728807D01*
X78531077Y-82767405D01*
X78532473Y-82773704D01*
X78539410Y-82813044D01*
X78541812Y-82817203D01*
X78549202Y-82835044D01*
X78550446Y-82839684D01*
X78571088Y-82869164D01*
X78573362Y-82872412D01*
X78576829Y-82877855D01*
X78596806Y-82912455D01*
X78627409Y-82938134D01*
X78632169Y-82942495D01*
X79627826Y-83938152D01*
X79649218Y-83984028D01*
X79649500Y-83990478D01*
X79649500Y-89709521D01*
X79632187Y-89757087D01*
X79627826Y-89761847D01*
X79031970Y-90357702D01*
X79027212Y-90362062D01*
X78996604Y-90387746D01*
X78976624Y-90422351D01*
X78973159Y-90427791D01*
X78950245Y-90460517D01*
X78949002Y-90465156D01*
X78941612Y-90482997D01*
X78939209Y-90487157D01*
X78935146Y-90510200D01*
X78914597Y-90549673D01*
X78389048Y-91075222D01*
X78343172Y-91096614D01*
X78327063Y-91096263D01*
X78234799Y-91084116D01*
X78078036Y-91104755D01*
X77931956Y-91165263D01*
X77806517Y-91261517D01*
X77710263Y-91386956D01*
X77649755Y-91533036D01*
X77629116Y-91689799D01*
X77649755Y-91846561D01*
X77710263Y-91992641D01*
X77758389Y-92055360D01*
X77806517Y-92118081D01*
X77888254Y-92180800D01*
X77931956Y-92214334D01*
X77931957Y-92214334D01*
X77931958Y-92214335D01*
X78078037Y-92274843D01*
X78214160Y-92292763D01*
X78234798Y-92295481D01*
X78234798Y-92295480D01*
X78234799Y-92295481D01*
X78391561Y-92274843D01*
X78537640Y-92214335D01*
X78663081Y-92118081D01*
X78759335Y-91992640D01*
X78819843Y-91846561D01*
X78840481Y-91689799D01*
X78828333Y-91597532D01*
X78839289Y-91548115D01*
X78849369Y-91535553D01*
X79467640Y-90917282D01*
X79472376Y-90912943D01*
X79502993Y-90887254D01*
X79522984Y-90852627D01*
X79526429Y-90847219D01*
X79549353Y-90814483D01*
X79550594Y-90809849D01*
X79557988Y-90791997D01*
X79560387Y-90787844D01*
X79564449Y-90764802D01*
X79584997Y-90725327D01*
X80204171Y-90106154D01*
X80204174Y-90106152D01*
X80214579Y-90095747D01*
X80214580Y-90095747D01*
X80295747Y-90014580D01*
X80305234Y-89994233D01*
X80311681Y-89983066D01*
X80324554Y-89964684D01*
X80330364Y-89942996D01*
X80334768Y-89930895D01*
X80344259Y-89910546D01*
X80346215Y-89888177D01*
X80348451Y-89875496D01*
X80354264Y-89853807D01*
X80352307Y-89831443D01*
X80352307Y-89818553D01*
X80354264Y-89796193D01*
X80348454Y-89774511D01*
X80346216Y-89761824D01*
X80344260Y-89739455D01*
X80334771Y-89719107D01*
X80330362Y-89706990D01*
X80324554Y-89685316D01*
X80313883Y-89670076D01*
X80300500Y-89627631D01*
X80300500Y-89289478D01*
X80317813Y-89241912D01*
X80361650Y-89216602D01*
X80411500Y-89225392D01*
X80426826Y-89237152D01*
X80527826Y-89338152D01*
X80549218Y-89384028D01*
X80549500Y-89390478D01*
X80549500Y-92084521D01*
X80532187Y-92132087D01*
X80527826Y-92136847D01*
X80445523Y-92219149D01*
X80399646Y-92240541D01*
X80383538Y-92240190D01*
X80381762Y-92239956D01*
X80358629Y-92236910D01*
X80225000Y-92219317D01*
X80068237Y-92239956D01*
X79922157Y-92300464D01*
X79796718Y-92396718D01*
X79700464Y-92522157D01*
X79639956Y-92668237D01*
X79619317Y-92825000D01*
X79639956Y-92981762D01*
X79700464Y-93127842D01*
X79704117Y-93132602D01*
X79796718Y-93253282D01*
X79878455Y-93316001D01*
X79922157Y-93349535D01*
X79922158Y-93349535D01*
X79922159Y-93349536D01*
X80068238Y-93410044D01*
X80225000Y-93430682D01*
X80381762Y-93410044D01*
X80527841Y-93349536D01*
X80653282Y-93253282D01*
X80749536Y-93127841D01*
X80756632Y-93110708D01*
X80790830Y-93073387D01*
X80841016Y-93066780D01*
X80883708Y-93093978D01*
X80893367Y-93110708D01*
X80900463Y-93127840D01*
X80900464Y-93127841D01*
X80996718Y-93253282D01*
X81078455Y-93316001D01*
X81122157Y-93349535D01*
X81122158Y-93349535D01*
X81122159Y-93349536D01*
X81268238Y-93410044D01*
X81425000Y-93430682D01*
X81581762Y-93410044D01*
X81727841Y-93349536D01*
X81853282Y-93253282D01*
X81949536Y-93127841D01*
X81984151Y-93044272D01*
X82018347Y-93006953D01*
X82068533Y-93000346D01*
X82111225Y-93027543D01*
X82126447Y-93075819D01*
X82126161Y-93079845D01*
X82108760Y-93256522D01*
X82108417Y-93260000D01*
X82123961Y-93417813D01*
X82128700Y-93465933D01*
X82188768Y-93663955D01*
X82237541Y-93755202D01*
X82286315Y-93846450D01*
X82417590Y-94006410D01*
X82577550Y-94137685D01*
X82760046Y-94235232D01*
X82958066Y-94295300D01*
X83164000Y-94315583D01*
X83369934Y-94295300D01*
X83567954Y-94235232D01*
X83750450Y-94137685D01*
X83910410Y-94006410D01*
X84041685Y-93846450D01*
X84139232Y-93663954D01*
X84199300Y-93465934D01*
X84219583Y-93260000D01*
X84199300Y-93054066D01*
X84139232Y-92856046D01*
X84138612Y-92854887D01*
X84108398Y-92798360D01*
X84041685Y-92673550D01*
X83910410Y-92513590D01*
X83750450Y-92382315D01*
X83659202Y-92333541D01*
X83567955Y-92284768D01*
X83420998Y-92240190D01*
X83369934Y-92224700D01*
X83164000Y-92204417D01*
X83163999Y-92204417D01*
X82958066Y-92224700D01*
X82760044Y-92284768D01*
X82577550Y-92382315D01*
X82417590Y-92513590D01*
X82286315Y-92673550D01*
X82188768Y-92856044D01*
X82164222Y-92936964D01*
X82133847Y-92977457D01*
X82084550Y-92988951D01*
X82039398Y-92966069D01*
X82019518Y-92919517D01*
X82020041Y-92905824D01*
X82027074Y-92852409D01*
X82030682Y-92825000D01*
X82010044Y-92668238D01*
X81949536Y-92522159D01*
X81949535Y-92522158D01*
X81949535Y-92522157D01*
X81916001Y-92478455D01*
X81853282Y-92396718D01*
X81775194Y-92336799D01*
X81727839Y-92300462D01*
X81696180Y-92287348D01*
X81658860Y-92253150D01*
X81650500Y-92218982D01*
X81650500Y-91589747D01*
X82113500Y-91589747D01*
X82125132Y-91648229D01*
X82125132Y-91648230D01*
X82125133Y-91648231D01*
X82169448Y-91714552D01*
X82235769Y-91758867D01*
X82294252Y-91770500D01*
X84033748Y-91770500D01*
X84092231Y-91758867D01*
X84158552Y-91714552D01*
X84202867Y-91648231D01*
X84214500Y-91589748D01*
X84214500Y-89850252D01*
X84202867Y-89791769D01*
X84158552Y-89725448D01*
X84092231Y-89681133D01*
X84092230Y-89681132D01*
X84092229Y-89681132D01*
X84033748Y-89669500D01*
X82294252Y-89669500D01*
X82235770Y-89681132D01*
X82169448Y-89725448D01*
X82125132Y-89791770D01*
X82113500Y-89850252D01*
X82113500Y-91589747D01*
X81650500Y-91589747D01*
X81650500Y-88917432D01*
X81650782Y-88910982D01*
X81654263Y-88871194D01*
X81654263Y-88871193D01*
X81643919Y-88832593D01*
X81642525Y-88826301D01*
X81635588Y-88786954D01*
X81633189Y-88782800D01*
X81625795Y-88764949D01*
X81624554Y-88760316D01*
X81611428Y-88741571D01*
X81598328Y-88692678D01*
X81619720Y-88646801D01*
X81662387Y-88625760D01*
X81669775Y-88624787D01*
X81781762Y-88610044D01*
X81927841Y-88549536D01*
X81997691Y-88495938D01*
X82046207Y-88458711D01*
X82094483Y-88443489D01*
X82141249Y-88462861D01*
X82162069Y-88495938D01*
X82188768Y-88583955D01*
X82204912Y-88614157D01*
X82286315Y-88766450D01*
X82417590Y-88926410D01*
X82577550Y-89057685D01*
X82760046Y-89155232D01*
X82958066Y-89215300D01*
X83164000Y-89235583D01*
X83369934Y-89215300D01*
X83567954Y-89155232D01*
X83750450Y-89057685D01*
X83910410Y-88926410D01*
X84041685Y-88766450D01*
X84139232Y-88583954D01*
X84199300Y-88385934D01*
X84219583Y-88180000D01*
X84199300Y-87974066D01*
X84139232Y-87776046D01*
X84041685Y-87593550D01*
X83910410Y-87433590D01*
X83750450Y-87302315D01*
X83640257Y-87243415D01*
X83567955Y-87204768D01*
X83468943Y-87174734D01*
X83369934Y-87144700D01*
X83164000Y-87124417D01*
X83163999Y-87124417D01*
X82958066Y-87144700D01*
X82760042Y-87204769D01*
X82736143Y-87217544D01*
X82686032Y-87224698D01*
X82648934Y-87204608D01*
X82272174Y-86827848D01*
X82250782Y-86781972D01*
X82250500Y-86775522D01*
X82250500Y-86389625D01*
X82267813Y-86342059D01*
X82311650Y-86316749D01*
X82361500Y-86325539D01*
X82381703Y-86342681D01*
X82417587Y-86386407D01*
X82417588Y-86386408D01*
X82417590Y-86386410D01*
X82577550Y-86517685D01*
X82760046Y-86615232D01*
X82958066Y-86675300D01*
X83164000Y-86695583D01*
X83369934Y-86675300D01*
X83567954Y-86615232D01*
X83750450Y-86517685D01*
X83910410Y-86386410D01*
X84041685Y-86226450D01*
X84139232Y-86043954D01*
X84199300Y-85845934D01*
X84219583Y-85640000D01*
X84199300Y-85434066D01*
X84139232Y-85236046D01*
X84041685Y-85053550D01*
X83910410Y-84893590D01*
X83750450Y-84762315D01*
X83632998Y-84699535D01*
X83567955Y-84664768D01*
X83468944Y-84634734D01*
X83369934Y-84604700D01*
X83164000Y-84584417D01*
X82958066Y-84604700D01*
X82760044Y-84664768D01*
X82577550Y-84762315D01*
X82417590Y-84893590D01*
X82381703Y-84937319D01*
X82338144Y-84963105D01*
X82288201Y-84954860D01*
X82255243Y-84916441D01*
X82250500Y-84890374D01*
X82250500Y-83849625D01*
X82267813Y-83802059D01*
X82311650Y-83776749D01*
X82361500Y-83785539D01*
X82381703Y-83802681D01*
X82417587Y-83846407D01*
X82417588Y-83846408D01*
X82417590Y-83846410D01*
X82577550Y-83977685D01*
X82760046Y-84075232D01*
X82958066Y-84135300D01*
X83164000Y-84155583D01*
X83369934Y-84135300D01*
X83567954Y-84075232D01*
X83750450Y-83977685D01*
X83910410Y-83846410D01*
X84041685Y-83686450D01*
X84139232Y-83503954D01*
X84199300Y-83305934D01*
X84219583Y-83100000D01*
X84199300Y-82894066D01*
X84139232Y-82696046D01*
X84041685Y-82513550D01*
X83910410Y-82353590D01*
X83750450Y-82222315D01*
X83588139Y-82135557D01*
X83567955Y-82124768D01*
X83468943Y-82094734D01*
X83369934Y-82064700D01*
X83164000Y-82044417D01*
X82958066Y-82064700D01*
X82760044Y-82124768D01*
X82584242Y-82218738D01*
X82577550Y-82222315D01*
X82417590Y-82353590D01*
X82406518Y-82367082D01*
X82381703Y-82397319D01*
X82338144Y-82423105D01*
X82288201Y-82414860D01*
X82255243Y-82376441D01*
X82250500Y-82350374D01*
X82250500Y-81309625D01*
X82267813Y-81262059D01*
X82311650Y-81236749D01*
X82361500Y-81245539D01*
X82381703Y-81262681D01*
X82417587Y-81306407D01*
X82417588Y-81306408D01*
X82417590Y-81306410D01*
X82577550Y-81437685D01*
X82760046Y-81535232D01*
X82958066Y-81595300D01*
X83164000Y-81615583D01*
X83369934Y-81595300D01*
X83567954Y-81535232D01*
X83750450Y-81437685D01*
X83910410Y-81306410D01*
X84041685Y-81146450D01*
X84139232Y-80963954D01*
X84199300Y-80765934D01*
X84219583Y-80560000D01*
X84199300Y-80354066D01*
X84139232Y-80156046D01*
X84041685Y-79973550D01*
X83910410Y-79813590D01*
X83750450Y-79682315D01*
X83659202Y-79633541D01*
X83567955Y-79584768D01*
X83468943Y-79554734D01*
X83369934Y-79524700D01*
X83164000Y-79504417D01*
X82958066Y-79524700D01*
X82760044Y-79584768D01*
X82577550Y-79682315D01*
X82417590Y-79813590D01*
X82286315Y-79973550D01*
X82188768Y-80156044D01*
X82128700Y-80354066D01*
X82108417Y-80560000D01*
X82128700Y-80765934D01*
X82141978Y-80809706D01*
X82139218Y-80860249D01*
X82104615Y-80897194D01*
X82054360Y-80903253D01*
X82018838Y-80883512D01*
X80025073Y-78889747D01*
X82113500Y-78889747D01*
X82125132Y-78948229D01*
X82125132Y-78948230D01*
X82125133Y-78948231D01*
X82169448Y-79014552D01*
X82235769Y-79058867D01*
X82294252Y-79070500D01*
X84033748Y-79070500D01*
X84092231Y-79058867D01*
X84158552Y-79014552D01*
X84202867Y-78948231D01*
X84214500Y-78889748D01*
X84214500Y-77150252D01*
X84202867Y-77091769D01*
X84158552Y-77025448D01*
X84092231Y-76981133D01*
X84092230Y-76981132D01*
X84092229Y-76981132D01*
X84033748Y-76969500D01*
X82294252Y-76969500D01*
X82235770Y-76981132D01*
X82169448Y-77025448D01*
X82125132Y-77091770D01*
X82113500Y-77150252D01*
X82113500Y-78889747D01*
X80025073Y-78889747D01*
X79347174Y-78211848D01*
X79325782Y-78165972D01*
X79325500Y-78159522D01*
X79325500Y-75968641D01*
X79342813Y-75921075D01*
X79354449Y-75909935D01*
X79428282Y-75853282D01*
X79524536Y-75727841D01*
X79585044Y-75581762D01*
X79598441Y-75480000D01*
X82108417Y-75480000D01*
X82128700Y-75685933D01*
X82188768Y-75883955D01*
X82209184Y-75922150D01*
X82286315Y-76066450D01*
X82417590Y-76226410D01*
X82577550Y-76357685D01*
X82760046Y-76455232D01*
X82958066Y-76515300D01*
X83164000Y-76535583D01*
X83369934Y-76515300D01*
X83567954Y-76455232D01*
X83750450Y-76357685D01*
X83910410Y-76226410D01*
X84041685Y-76066450D01*
X84139232Y-75883954D01*
X84199300Y-75685934D01*
X84219583Y-75480000D01*
X84199300Y-75274066D01*
X84139232Y-75076046D01*
X84041685Y-74893550D01*
X83910410Y-74733590D01*
X83750450Y-74602315D01*
X83659202Y-74553541D01*
X83567955Y-74504768D01*
X83426500Y-74461859D01*
X83369934Y-74444700D01*
X83164000Y-74424417D01*
X82958066Y-74444700D01*
X82760044Y-74504768D01*
X82577550Y-74602315D01*
X82417590Y-74733590D01*
X82286315Y-74893550D01*
X82188768Y-75076044D01*
X82128700Y-75274066D01*
X82108417Y-75480000D01*
X79598441Y-75480000D01*
X79605682Y-75425000D01*
X79585044Y-75268238D01*
X79524536Y-75122159D01*
X79524535Y-75122158D01*
X79524535Y-75122157D01*
X79472924Y-75054897D01*
X79428282Y-74996718D01*
X79365561Y-74948590D01*
X79302842Y-74900464D01*
X79156762Y-74839956D01*
X79000000Y-74819317D01*
X78843237Y-74839956D01*
X78697157Y-74900464D01*
X78571719Y-74996716D01*
X78508208Y-75079486D01*
X78465516Y-75106683D01*
X78415330Y-75100076D01*
X78381133Y-75062755D01*
X78375500Y-75034437D01*
X78375500Y-74717440D01*
X78375782Y-74710989D01*
X78379264Y-74671193D01*
X78368923Y-74632602D01*
X78367525Y-74626298D01*
X78363296Y-74602315D01*
X78360588Y-74586955D01*
X78358189Y-74582800D01*
X78350795Y-74564949D01*
X78349554Y-74560316D01*
X78326639Y-74527590D01*
X78323172Y-74522148D01*
X78303194Y-74487545D01*
X78272583Y-74461859D01*
X78267824Y-74457498D01*
X78146311Y-74335985D01*
X78124919Y-74290109D01*
X78126728Y-74283358D01*
X78125000Y-74283358D01*
X78125000Y-73415686D01*
X78136955Y-73427641D01*
X78249852Y-73485165D01*
X78343519Y-73500000D01*
X78406481Y-73500000D01*
X78500148Y-73485165D01*
X78613045Y-73427641D01*
X78625000Y-73415685D01*
X78625000Y-74248619D01*
X78697931Y-74234987D01*
X78900986Y-74156322D01*
X79086129Y-74041686D01*
X79247056Y-73894983D01*
X79315947Y-73803757D01*
X79358427Y-73776232D01*
X79408663Y-73782452D01*
X79434053Y-73803757D01*
X79502943Y-73894983D01*
X79663870Y-74041686D01*
X79849013Y-74156322D01*
X80052068Y-74234987D01*
X80125000Y-74248620D01*
X80125000Y-73415685D01*
X80136955Y-73427641D01*
X80249852Y-73485165D01*
X80343519Y-73500000D01*
X80406481Y-73500000D01*
X80500148Y-73485165D01*
X80613045Y-73427641D01*
X80625000Y-73415685D01*
X80625000Y-74248619D01*
X80697931Y-74234987D01*
X80900986Y-74156322D01*
X81086129Y-74041686D01*
X81247056Y-73894983D01*
X81378286Y-73721207D01*
X81475348Y-73526278D01*
X81525505Y-73350000D01*
X80690686Y-73350000D01*
X80702641Y-73338045D01*
X80760165Y-73225148D01*
X80779986Y-73100000D01*
X80760165Y-72974852D01*
X80742407Y-72940000D01*
X82108417Y-72940000D01*
X82128700Y-73145933D01*
X82188768Y-73343955D01*
X82213784Y-73390756D01*
X82286315Y-73526450D01*
X82417590Y-73686410D01*
X82577550Y-73817685D01*
X82760046Y-73915232D01*
X82958066Y-73975300D01*
X83164000Y-73995583D01*
X83369934Y-73975300D01*
X83567954Y-73915232D01*
X83750450Y-73817685D01*
X83910410Y-73686410D01*
X84041685Y-73526450D01*
X84139232Y-73343954D01*
X84199300Y-73145934D01*
X84219583Y-72940000D01*
X84199300Y-72734066D01*
X84139232Y-72536046D01*
X84041685Y-72353550D01*
X83910410Y-72193590D01*
X83750450Y-72062315D01*
X83626744Y-71996192D01*
X83567955Y-71964768D01*
X83468943Y-71934733D01*
X83369934Y-71904700D01*
X83164000Y-71884417D01*
X82958066Y-71904700D01*
X82760044Y-71964768D01*
X82577550Y-72062315D01*
X82417590Y-72193590D01*
X82286315Y-72353550D01*
X82188768Y-72536044D01*
X82128700Y-72734066D01*
X82108417Y-72940000D01*
X80742407Y-72940000D01*
X80702641Y-72861955D01*
X80690686Y-72850000D01*
X81525505Y-72850000D01*
X81475348Y-72673721D01*
X81378286Y-72478792D01*
X81247056Y-72305016D01*
X81082151Y-72154687D01*
X81058662Y-72109848D01*
X81069491Y-72060401D01*
X81082151Y-72045313D01*
X81247056Y-71894983D01*
X81378286Y-71721207D01*
X81475348Y-71526278D01*
X81525505Y-71350000D01*
X80690686Y-71350000D01*
X80702641Y-71338045D01*
X80760165Y-71225148D01*
X80779986Y-71100000D01*
X80760165Y-70974852D01*
X80702641Y-70861955D01*
X80690686Y-70850000D01*
X81525505Y-70850000D01*
X81475348Y-70673721D01*
X81378286Y-70478792D01*
X81247056Y-70305016D01*
X81086129Y-70158313D01*
X80900986Y-70043677D01*
X80697931Y-69965013D01*
X80625000Y-69951379D01*
X80625000Y-70784314D01*
X80613045Y-70772359D01*
X80500148Y-70714835D01*
X80406481Y-70700000D01*
X80343519Y-70700000D01*
X80249852Y-70714835D01*
X80136955Y-70772359D01*
X80125000Y-70784313D01*
X80125000Y-69951379D01*
X80124999Y-69951379D01*
X80052068Y-69965013D01*
X79849013Y-70043677D01*
X79663870Y-70158313D01*
X79502943Y-70305016D01*
X79371715Y-70478790D01*
X79273642Y-70675746D01*
X79236942Y-70710608D01*
X79186419Y-70713724D01*
X79145713Y-70683636D01*
X79143314Y-70679761D01*
X79139827Y-70673721D01*
X79087195Y-70582560D01*
X78964050Y-70445793D01*
X78935431Y-70425000D01*
X78815160Y-70337617D01*
X78647037Y-70262764D01*
X78512022Y-70234065D01*
X78467019Y-70224500D01*
X78282981Y-70224500D01*
X78246978Y-70232152D01*
X78102962Y-70262764D01*
X77934839Y-70337617D01*
X77785953Y-70445790D01*
X77785950Y-70445792D01*
X77785950Y-70445793D01*
X77693591Y-70548368D01*
X77662804Y-70582561D01*
X77570784Y-70741942D01*
X77513915Y-70916968D01*
X77494677Y-71100000D01*
X77513915Y-71283031D01*
X77570784Y-71458057D01*
X77610172Y-71526278D01*
X77662805Y-71617440D01*
X77785950Y-71754207D01*
X77785953Y-71754209D01*
X77934838Y-71862381D01*
X77944954Y-71866884D01*
X77950144Y-71869195D01*
X77986558Y-71904356D01*
X77991850Y-71954698D01*
X77963546Y-71996664D01*
X77946781Y-72005801D01*
X77849012Y-72043678D01*
X77663870Y-72158313D01*
X77502943Y-72305016D01*
X77371715Y-72478790D01*
X77273642Y-72675746D01*
X77236942Y-72710608D01*
X77186419Y-72713724D01*
X77145713Y-72683636D01*
X77143314Y-72679761D01*
X77139827Y-72673721D01*
X77087195Y-72582560D01*
X76964050Y-72445793D01*
X76949908Y-72435518D01*
X76815160Y-72337617D01*
X76647037Y-72262764D01*
X76512022Y-72234065D01*
X76467019Y-72224500D01*
X76282981Y-72224500D01*
X76246978Y-72232152D01*
X76102962Y-72262764D01*
X75934839Y-72337617D01*
X75817996Y-72422509D01*
X75769338Y-72436462D01*
X75723095Y-72415873D01*
X75700905Y-72370377D01*
X75700500Y-72362642D01*
X75700500Y-72190477D01*
X75717813Y-72142911D01*
X75722163Y-72138162D01*
X75942543Y-71917782D01*
X75988417Y-71896391D01*
X76024963Y-71902506D01*
X76102966Y-71937236D01*
X76282981Y-71975500D01*
X76282982Y-71975500D01*
X76467018Y-71975500D01*
X76467019Y-71975500D01*
X76647034Y-71937236D01*
X76647035Y-71937235D01*
X76647037Y-71937235D01*
X76815160Y-71862382D01*
X76883754Y-71812545D01*
X76964050Y-71754207D01*
X77087195Y-71617440D01*
X77179214Y-71458059D01*
X77189098Y-71427641D01*
X77218209Y-71338045D01*
X77236085Y-71283029D01*
X77255322Y-71100000D01*
X77236085Y-70916971D01*
X77217490Y-70859741D01*
X77179215Y-70741942D01*
X77139827Y-70673721D01*
X77087195Y-70582560D01*
X76964050Y-70445793D01*
X76935431Y-70425000D01*
X76815160Y-70337617D01*
X76647037Y-70262764D01*
X76512022Y-70234065D01*
X76467019Y-70224500D01*
X76282981Y-70224500D01*
X76246978Y-70232152D01*
X76102962Y-70262764D01*
X75934839Y-70337617D01*
X75785953Y-70445790D01*
X75785950Y-70445792D01*
X75785950Y-70445793D01*
X75693591Y-70548368D01*
X75662804Y-70582561D01*
X75570784Y-70741942D01*
X75513915Y-70916968D01*
X75494677Y-71100000D01*
X75513915Y-71283033D01*
X75534903Y-71347629D01*
X75533136Y-71398217D01*
X75516851Y-71422821D01*
X75157171Y-71782501D01*
X75152413Y-71786861D01*
X75121805Y-71812545D01*
X75101825Y-71847150D01*
X75098360Y-71852590D01*
X75075446Y-71885316D01*
X75074203Y-71889955D01*
X75066813Y-71907796D01*
X75064411Y-71911956D01*
X75057473Y-71951295D01*
X75056077Y-71957592D01*
X75045735Y-71996192D01*
X75049218Y-72035989D01*
X75049500Y-72042440D01*
X75049500Y-72362642D01*
X75032187Y-72410208D01*
X74988350Y-72435518D01*
X74938500Y-72426728D01*
X74932004Y-72422509D01*
X74815160Y-72337617D01*
X74647037Y-72262764D01*
X74512022Y-72234065D01*
X74467019Y-72224500D01*
X74282981Y-72224500D01*
X74246978Y-72232152D01*
X74102962Y-72262764D01*
X73934839Y-72337617D01*
X73785953Y-72445790D01*
X73662804Y-72582561D01*
X73570784Y-72741942D01*
X73513915Y-72916968D01*
X73494677Y-73100000D01*
X73513915Y-73283031D01*
X73570784Y-73458057D01*
X73648568Y-73592781D01*
X73662805Y-73617440D01*
X73785950Y-73754207D01*
X73800091Y-73764481D01*
X73934835Y-73862379D01*
X73934838Y-73862380D01*
X73934839Y-73862381D01*
X73935044Y-73862472D01*
X73935288Y-73862708D01*
X73941131Y-73866953D01*
X73940534Y-73867774D01*
X73971457Y-73897635D01*
X73976748Y-73947977D01*
X73957272Y-73982401D01*
X73256150Y-74683524D01*
X73210274Y-74704916D01*
X73203824Y-74705198D01*
X72711732Y-74705198D01*
X72705282Y-74704916D01*
X72702375Y-74704661D01*
X72665494Y-74701434D01*
X72626905Y-74711773D01*
X72620608Y-74713169D01*
X72581255Y-74720109D01*
X72577088Y-74722515D01*
X72559259Y-74729900D01*
X72554618Y-74731144D01*
X72521894Y-74754057D01*
X72516451Y-74757525D01*
X72481845Y-74777504D01*
X72456171Y-74808101D01*
X72451811Y-74812860D01*
X71407171Y-75857501D01*
X71402413Y-75861861D01*
X71371805Y-75887545D01*
X71351825Y-75922150D01*
X71348360Y-75927590D01*
X71325446Y-75960316D01*
X71324203Y-75964955D01*
X71316813Y-75982796D01*
X71314411Y-75986956D01*
X71307473Y-76026295D01*
X71306077Y-76032592D01*
X71295735Y-76071192D01*
X71299218Y-76110989D01*
X71299500Y-76117440D01*
X71299500Y-77656357D01*
X71282187Y-77703923D01*
X71270549Y-77715065D01*
X71196715Y-77771719D01*
X71100464Y-77897157D01*
X71039956Y-78043237D01*
X71019317Y-78200000D01*
X70277391Y-78200000D01*
X70280682Y-78175000D01*
X70260044Y-78018238D01*
X70199536Y-77872159D01*
X70199535Y-77872158D01*
X70199535Y-77872157D01*
X70103284Y-77746719D01*
X70029451Y-77690065D01*
X70002254Y-77647373D01*
X70000500Y-77631357D01*
X70000500Y-76965477D01*
X70017813Y-76917911D01*
X70022163Y-76913162D01*
X72592841Y-74342483D01*
X72597577Y-74338144D01*
X72628194Y-74312455D01*
X72648185Y-74277828D01*
X72651630Y-74272420D01*
X72674554Y-74239684D01*
X72675795Y-74235050D01*
X72683189Y-74217198D01*
X72685588Y-74213045D01*
X72692524Y-74173703D01*
X72693922Y-74167400D01*
X72704264Y-74128807D01*
X72701896Y-74101744D01*
X72700782Y-74089005D01*
X72700500Y-74082555D01*
X72700500Y-73961486D01*
X72717813Y-73913920D01*
X72744398Y-73893886D01*
X72815161Y-73862381D01*
X72964050Y-73754207D01*
X73087195Y-73617440D01*
X73179214Y-73458059D01*
X73189098Y-73427641D01*
X73236084Y-73283031D01*
X73236085Y-73283029D01*
X73255322Y-73100000D01*
X73236085Y-72916971D01*
X73214325Y-72850000D01*
X73179215Y-72741942D01*
X73139827Y-72673721D01*
X73087195Y-72582560D01*
X72964050Y-72445793D01*
X72949908Y-72435518D01*
X72815160Y-72337617D01*
X72647037Y-72262764D01*
X72512022Y-72234065D01*
X72467019Y-72224500D01*
X72282981Y-72224500D01*
X72246978Y-72232152D01*
X72102962Y-72262764D01*
X71934839Y-72337617D01*
X71817996Y-72422509D01*
X71769338Y-72436462D01*
X71723095Y-72415873D01*
X71700905Y-72370377D01*
X71700500Y-72362642D01*
X71700500Y-72190477D01*
X71717813Y-72142911D01*
X71722174Y-72138151D01*
X71824336Y-72035989D01*
X71942542Y-71917782D01*
X71988417Y-71896391D01*
X72024963Y-71902506D01*
X72102966Y-71937236D01*
X72282981Y-71975500D01*
X72282982Y-71975500D01*
X72467018Y-71975500D01*
X72467019Y-71975500D01*
X72647034Y-71937236D01*
X72647035Y-71937235D01*
X72647037Y-71937235D01*
X72815160Y-71862382D01*
X72883754Y-71812545D01*
X72964050Y-71754207D01*
X73087195Y-71617440D01*
X73179214Y-71458059D01*
X73189098Y-71427641D01*
X73218209Y-71338045D01*
X73236085Y-71283029D01*
X73255322Y-71100000D01*
X73494677Y-71100000D01*
X73513915Y-71283031D01*
X73570784Y-71458057D01*
X73610172Y-71526278D01*
X73662805Y-71617440D01*
X73785950Y-71754207D01*
X73785953Y-71754209D01*
X73934839Y-71862382D01*
X74102962Y-71937235D01*
X74102965Y-71937235D01*
X74102966Y-71937236D01*
X74282981Y-71975500D01*
X74282982Y-71975500D01*
X74467018Y-71975500D01*
X74467019Y-71975500D01*
X74647034Y-71937236D01*
X74647035Y-71937235D01*
X74647037Y-71937235D01*
X74815160Y-71862382D01*
X74883754Y-71812545D01*
X74964050Y-71754207D01*
X75087195Y-71617440D01*
X75179214Y-71458059D01*
X75189098Y-71427641D01*
X75218209Y-71338045D01*
X75236085Y-71283029D01*
X75244401Y-71203897D01*
X75248459Y-71186324D01*
X75286286Y-71082395D01*
X75286286Y-70967604D01*
X75247027Y-70859741D01*
X75238770Y-70849901D01*
X75208068Y-70813311D01*
X75194379Y-70788614D01*
X75179215Y-70741943D01*
X75139827Y-70673721D01*
X75087195Y-70582560D01*
X74964050Y-70445793D01*
X74935431Y-70425000D01*
X74815160Y-70337617D01*
X74647037Y-70262764D01*
X74512022Y-70234065D01*
X74467019Y-70224500D01*
X74282981Y-70224500D01*
X74246978Y-70232152D01*
X74102962Y-70262764D01*
X73934839Y-70337617D01*
X73785953Y-70445790D01*
X73785950Y-70445792D01*
X73785950Y-70445793D01*
X73693591Y-70548368D01*
X73662804Y-70582561D01*
X73570784Y-70741942D01*
X73513915Y-70916968D01*
X73494677Y-71100000D01*
X73255322Y-71100000D01*
X73236085Y-70916971D01*
X73217490Y-70859741D01*
X73179215Y-70741942D01*
X73139827Y-70673721D01*
X73087195Y-70582560D01*
X72964050Y-70445793D01*
X72935431Y-70425000D01*
X72815160Y-70337617D01*
X72647037Y-70262764D01*
X72512022Y-70234065D01*
X72467019Y-70224500D01*
X72282981Y-70224500D01*
X72246978Y-70232152D01*
X72102962Y-70262764D01*
X71934839Y-70337617D01*
X71785953Y-70445790D01*
X71785950Y-70445792D01*
X71785950Y-70445793D01*
X71693591Y-70548368D01*
X71662804Y-70582561D01*
X71570784Y-70741942D01*
X71513915Y-70916968D01*
X71494677Y-71100000D01*
X71513915Y-71283033D01*
X71534903Y-71347629D01*
X71533136Y-71398217D01*
X71516851Y-71422821D01*
X71157171Y-71782501D01*
X71152413Y-71786861D01*
X71121805Y-71812545D01*
X71101825Y-71847150D01*
X71098360Y-71852590D01*
X71075446Y-71885316D01*
X71074203Y-71889955D01*
X71066813Y-71907796D01*
X71064411Y-71911956D01*
X71057473Y-71951295D01*
X71056077Y-71957592D01*
X71045735Y-71996192D01*
X71049218Y-72035989D01*
X71049500Y-72042440D01*
X71049500Y-72362642D01*
X71032187Y-72410208D01*
X70988350Y-72435518D01*
X70938500Y-72426728D01*
X70932004Y-72422509D01*
X70815160Y-72337617D01*
X70647037Y-72262764D01*
X70512022Y-72234065D01*
X70467019Y-72224500D01*
X70282981Y-72224500D01*
X70246978Y-72232152D01*
X70102962Y-72262764D01*
X69934839Y-72337617D01*
X69817996Y-72422509D01*
X69769338Y-72436462D01*
X69723095Y-72415873D01*
X69700905Y-72370377D01*
X69700500Y-72362642D01*
X69700500Y-72190477D01*
X69717813Y-72142911D01*
X69722163Y-72138162D01*
X69942543Y-71917782D01*
X69988417Y-71896391D01*
X70024963Y-71902506D01*
X70102966Y-71937236D01*
X70282981Y-71975500D01*
X70282982Y-71975500D01*
X70467018Y-71975500D01*
X70467019Y-71975500D01*
X70647034Y-71937236D01*
X70647035Y-71937235D01*
X70647037Y-71937235D01*
X70815160Y-71862382D01*
X70883754Y-71812545D01*
X70964050Y-71754207D01*
X71087195Y-71617440D01*
X71179214Y-71458059D01*
X71189098Y-71427641D01*
X71218209Y-71338045D01*
X71236085Y-71283029D01*
X71255322Y-71100000D01*
X71236085Y-70916971D01*
X71217490Y-70859741D01*
X71179215Y-70741942D01*
X71139827Y-70673721D01*
X71087195Y-70582560D01*
X70964050Y-70445793D01*
X70935431Y-70425000D01*
X70815160Y-70337617D01*
X70647037Y-70262764D01*
X70512022Y-70234065D01*
X70467019Y-70224500D01*
X70282981Y-70224500D01*
X70246978Y-70232152D01*
X70102962Y-70262764D01*
X69934839Y-70337617D01*
X69785953Y-70445790D01*
X69785950Y-70445792D01*
X69785950Y-70445793D01*
X69693591Y-70548368D01*
X69662804Y-70582561D01*
X69570784Y-70741942D01*
X69513915Y-70916968D01*
X69494677Y-71100000D01*
X69513915Y-71283033D01*
X69534903Y-71347629D01*
X69533136Y-71398217D01*
X69516851Y-71422821D01*
X69157171Y-71782501D01*
X69152413Y-71786861D01*
X69121805Y-71812545D01*
X69101825Y-71847150D01*
X69098360Y-71852590D01*
X69075446Y-71885316D01*
X69074203Y-71889955D01*
X69066813Y-71907796D01*
X69064411Y-71911956D01*
X69057473Y-71951295D01*
X69056077Y-71957592D01*
X69045735Y-71996192D01*
X69049218Y-72035989D01*
X69049500Y-72042440D01*
X69049500Y-72150500D01*
X69032187Y-72198066D01*
X68988350Y-72223376D01*
X68975500Y-72224500D01*
X67680252Y-72224500D01*
X67621770Y-72236132D01*
X67555448Y-72280448D01*
X67511132Y-72346770D01*
X67499500Y-72405252D01*
X67499500Y-73794747D01*
X67511132Y-73853229D01*
X67511132Y-73853230D01*
X67511133Y-73853231D01*
X67555448Y-73919552D01*
X67621769Y-73963867D01*
X67680252Y-73975500D01*
X68975500Y-73975500D01*
X69023066Y-73992813D01*
X69048376Y-74036650D01*
X69049500Y-74049500D01*
X69049500Y-74109521D01*
X69032187Y-74157087D01*
X69027826Y-74161847D01*
X66807171Y-76382501D01*
X66802413Y-76386861D01*
X66771805Y-76412545D01*
X66751825Y-76447150D01*
X66748360Y-76452590D01*
X66725446Y-76485316D01*
X66724203Y-76489955D01*
X66716813Y-76507796D01*
X66714411Y-76511956D01*
X66707473Y-76551295D01*
X66706077Y-76557592D01*
X66695735Y-76596192D01*
X66697444Y-76615718D01*
X66684344Y-76664613D01*
X66642880Y-76693647D01*
X66597867Y-76691504D01*
X66557376Y-76676402D01*
X66499798Y-76670211D01*
X66495845Y-76670000D01*
X65741542Y-76670000D01*
X65693976Y-76652687D01*
X65668666Y-76608850D01*
X65677456Y-76559000D01*
X65716233Y-76526463D01*
X65734285Y-76522356D01*
X65805934Y-76515300D01*
X66003954Y-76455232D01*
X66186450Y-76357685D01*
X66346410Y-76226410D01*
X66477685Y-76066450D01*
X66575232Y-75883954D01*
X66635300Y-75685934D01*
X66655583Y-75480000D01*
X66635300Y-75274066D01*
X66575232Y-75076046D01*
X66477685Y-74893550D01*
X66346410Y-74733590D01*
X66186450Y-74602315D01*
X66095202Y-74553541D01*
X66003955Y-74504768D01*
X65862500Y-74461859D01*
X65805934Y-74444700D01*
X65600000Y-74424417D01*
X65394066Y-74444700D01*
X65196044Y-74504768D01*
X65013550Y-74602315D01*
X64853590Y-74733590D01*
X64722315Y-74893550D01*
X64624768Y-75076044D01*
X64564700Y-75274066D01*
X64544417Y-75480000D01*
X64564700Y-75685933D01*
X64624768Y-75883955D01*
X64645184Y-75922150D01*
X64722315Y-76066450D01*
X64853590Y-76226410D01*
X65013550Y-76357685D01*
X65196046Y-76455232D01*
X65394066Y-76515300D01*
X65465712Y-76522356D01*
X65511352Y-76544248D01*
X65532242Y-76590355D01*
X65518609Y-76639104D01*
X65476830Y-76667683D01*
X65458458Y-76670000D01*
X64704155Y-76670000D01*
X64700201Y-76670211D01*
X64642621Y-76676402D01*
X64507913Y-76726646D01*
X64392811Y-76812811D01*
X64306646Y-76927913D01*
X64256402Y-77062621D01*
X64250211Y-77120201D01*
X64250000Y-77124155D01*
X64250000Y-77770000D01*
X65166314Y-77770000D01*
X65140507Y-77810156D01*
X65100000Y-77948111D01*
X65100000Y-78091889D01*
X65140507Y-78229844D01*
X65166314Y-78270000D01*
X64250000Y-78270000D01*
X64250000Y-78915844D01*
X63500500Y-78915844D01*
X63500500Y-72940000D01*
X64544417Y-72940000D01*
X64564700Y-73145933D01*
X64624768Y-73343955D01*
X64649784Y-73390756D01*
X64722315Y-73526450D01*
X64853590Y-73686410D01*
X65013550Y-73817685D01*
X65196046Y-73915232D01*
X65394066Y-73975300D01*
X65600000Y-73995583D01*
X65805934Y-73975300D01*
X66003954Y-73915232D01*
X66186450Y-73817685D01*
X66346410Y-73686410D01*
X66477685Y-73526450D01*
X66575232Y-73343954D01*
X66635300Y-73145934D01*
X66655583Y-72940000D01*
X66635300Y-72734066D01*
X66575232Y-72536046D01*
X66477685Y-72353550D01*
X66346410Y-72193590D01*
X66186450Y-72062315D01*
X66062744Y-71996192D01*
X66003955Y-71964768D01*
X65904943Y-71934734D01*
X65805934Y-71904700D01*
X65600000Y-71884417D01*
X65394066Y-71904700D01*
X65196044Y-71964768D01*
X65013550Y-72062315D01*
X64853590Y-72193590D01*
X64722315Y-72353550D01*
X64624768Y-72536044D01*
X64564700Y-72734066D01*
X64544417Y-72940000D01*
X63500500Y-72940000D01*
X63500500Y-71100000D01*
X67494677Y-71100000D01*
X67513915Y-71283031D01*
X67570784Y-71458057D01*
X67610172Y-71526278D01*
X67662805Y-71617440D01*
X67785950Y-71754207D01*
X67785953Y-71754209D01*
X67934839Y-71862382D01*
X68102962Y-71937235D01*
X68102965Y-71937235D01*
X68102966Y-71937236D01*
X68282981Y-71975500D01*
X68282982Y-71975500D01*
X68467018Y-71975500D01*
X68467019Y-71975500D01*
X68647034Y-71937236D01*
X68647035Y-71937235D01*
X68647037Y-71937235D01*
X68815160Y-71862382D01*
X68883754Y-71812545D01*
X68964050Y-71754207D01*
X69087195Y-71617440D01*
X69179214Y-71458059D01*
X69189098Y-71427641D01*
X69218209Y-71338045D01*
X69236085Y-71283029D01*
X69255322Y-71100000D01*
X69236085Y-70916971D01*
X69217490Y-70859741D01*
X69179215Y-70741942D01*
X69139827Y-70673721D01*
X69087195Y-70582560D01*
X68964050Y-70445793D01*
X68935431Y-70425000D01*
X68815160Y-70337617D01*
X68647037Y-70262764D01*
X68512022Y-70234065D01*
X68467019Y-70224500D01*
X68282981Y-70224500D01*
X68246978Y-70232152D01*
X68102962Y-70262764D01*
X67934839Y-70337617D01*
X67785953Y-70445790D01*
X67785950Y-70445792D01*
X67785950Y-70445793D01*
X67693591Y-70548368D01*
X67662804Y-70582561D01*
X67570784Y-70741942D01*
X67513915Y-70916968D01*
X67494677Y-71100000D01*
X63500500Y-71100000D01*
X63500500Y-70499593D01*
X63500953Y-70491421D01*
X63502357Y-70478790D01*
X63508333Y-70425000D01*
X63539879Y-70141081D01*
X63542611Y-70127778D01*
X63552069Y-70096596D01*
X63567712Y-70045032D01*
X63571451Y-70035259D01*
X63600978Y-69971940D01*
X63605787Y-69963216D01*
X63729085Y-69771422D01*
X63734113Y-69764514D01*
X63762743Y-69729629D01*
X63767583Y-69724289D01*
X63814046Y-69677826D01*
X63827132Y-69667416D01*
X64139862Y-69471960D01*
X64157598Y-69463900D01*
X64233501Y-69440875D01*
X64242810Y-69438697D01*
X64436460Y-69406422D01*
X64441334Y-69405776D01*
X64454384Y-69404490D01*
X64492648Y-69401143D01*
X64496791Y-69400781D01*
X64503231Y-69400500D01*
X84056947Y-69400500D01*
X84061052Y-69400614D01*
G37*
%TD.AperFunction*%
%TD*%
M02*
