%TF.GenerationSoftware,KiCad,Pcbnew,7.0.2*%
%TF.CreationDate,2024-02-16T13:22:18+02:00*%
%TF.ProjectId,dots_projector,646f7473-5f70-4726-9f6a-6563746f722e,rev?*%
%TF.SameCoordinates,Original*%
%TF.FileFunction,Soldermask,Top*%
%TF.FilePolarity,Negative*%
%FSLAX46Y46*%
G04 Gerber Fmt 4.6, Leading zero omitted, Abs format (unit mm)*
G04 Created by KiCad (PCBNEW 7.0.2) date 2024-02-16 13:22:18*
%MOMM*%
%LPD*%
G01*
G04 APERTURE LIST*
G04 Aperture macros list*
%AMRoundRect*
0 Rectangle with rounded corners*
0 $1 Rounding radius*
0 $2 $3 $4 $5 $6 $7 $8 $9 X,Y pos of 4 corners*
0 Add a 4 corners polygon primitive as box body*
4,1,4,$2,$3,$4,$5,$6,$7,$8,$9,$2,$3,0*
0 Add four circle primitives for the rounded corners*
1,1,$1+$1,$2,$3*
1,1,$1+$1,$4,$5*
1,1,$1+$1,$6,$7*
1,1,$1+$1,$8,$9*
0 Add four rect primitives between the rounded corners*
20,1,$1+$1,$2,$3,$4,$5,0*
20,1,$1+$1,$4,$5,$6,$7,0*
20,1,$1+$1,$6,$7,$8,$9,0*
20,1,$1+$1,$8,$9,$2,$3,0*%
G04 Aperture macros list end*
%ADD10RoundRect,0.500000X-0.500000X-1.000000X0.500000X-1.000000X0.500000X1.000000X-0.500000X1.000000X0*%
%ADD11RoundRect,0.125000X-0.125000X-1.375000X0.125000X-1.375000X0.125000X1.375000X-0.125000X1.375000X0*%
%ADD12R,1.000000X1.000000*%
%ADD13O,1.000000X1.000000*%
%ADD14R,1.350000X1.350000*%
%ADD15O,1.350000X1.350000*%
%ADD16C,1.700000*%
%ADD17O,1.700000X1.700000*%
%ADD18R,1.700000X1.700000*%
G04 APERTURE END LIST*
D10*
%TO.C,D8*%
X72400000Y-94900000D03*
D11*
X71000000Y-94900000D03*
%TD*%
D10*
%TO.C,D5*%
X76825000Y-99400000D03*
D11*
X75425000Y-99400000D03*
%TD*%
D10*
%TO.C,D4*%
X72400000Y-99400000D03*
D11*
X71000000Y-99400000D03*
%TD*%
D10*
%TO.C,D1*%
X76825000Y-94900000D03*
D11*
X75425000Y-94900000D03*
%TD*%
D12*
%TO.C,JP3*%
X68600000Y-116625000D03*
D13*
X68600000Y-117895000D03*
X68600000Y-119165000D03*
%TD*%
D14*
%TO.C,J2*%
X68375000Y-73100000D03*
D15*
X68375000Y-71100000D03*
X70375000Y-73100000D03*
X70375000Y-71100000D03*
X72375000Y-73100000D03*
X72375000Y-71100000D03*
X74375000Y-73100000D03*
X74375000Y-71100000D03*
X76375000Y-73100000D03*
X76375000Y-71100000D03*
X78375000Y-73100000D03*
X78375000Y-71100000D03*
X80375000Y-73100000D03*
X80375000Y-71100000D03*
%TD*%
D12*
%TO.C,J4*%
X68650000Y-123525000D03*
D13*
X68650000Y-122255000D03*
%TD*%
D16*
%TO.C,U2*%
X83164000Y-72940000D03*
D17*
X83164000Y-75480000D03*
D18*
X83164000Y-78020000D03*
D17*
X83164000Y-80560000D03*
X83164000Y-83100000D03*
X83164000Y-85640000D03*
X83164000Y-88180000D03*
D18*
X83164000Y-90720000D03*
D17*
X83164000Y-93260000D03*
X83164000Y-95800000D03*
X83164000Y-98340000D03*
X83164000Y-100880000D03*
D18*
X83164000Y-103420000D03*
D17*
X83164000Y-105960000D03*
X83164000Y-108500000D03*
X83164000Y-111040000D03*
X83164000Y-113580000D03*
D18*
X83164000Y-116120000D03*
D17*
X83164000Y-118660000D03*
X83164000Y-121200000D03*
D18*
X65600000Y-121200000D03*
D17*
X65600000Y-118660000D03*
D18*
X65600000Y-116120000D03*
D17*
X65600000Y-113580000D03*
X65600000Y-111040000D03*
X65600000Y-108500000D03*
X65600000Y-105960000D03*
D18*
X65600000Y-103420000D03*
D17*
X65600000Y-100880000D03*
X65600000Y-98340000D03*
X65600000Y-95800000D03*
X65600000Y-93260000D03*
D18*
X65600000Y-90720000D03*
D17*
X65600000Y-88180000D03*
X65600000Y-85640000D03*
X65600000Y-83100000D03*
X65600000Y-80560000D03*
D18*
X65600000Y-78020000D03*
D17*
X65600000Y-75480000D03*
D16*
X65600000Y-72940000D03*
%TD*%
M02*
