%TF.GenerationSoftware,KiCad,Pcbnew,7.0.2*%
%TF.CreationDate,2024-02-16T13:22:18+02:00*%
%TF.ProjectId,dots_projector,646f7473-5f70-4726-9f6a-6563746f722e,rev?*%
%TF.SameCoordinates,Original*%
%TF.FileFunction,Legend,Bot*%
%TF.FilePolarity,Positive*%
%FSLAX46Y46*%
G04 Gerber Fmt 4.6, Leading zero omitted, Abs format (unit mm)*
G04 Created by KiCad (PCBNEW 7.0.2) date 2024-02-16 13:22:18*
%MOMM*%
%LPD*%
G01*
G04 APERTURE LIST*
%ADD10C,0.150000*%
%ADD11C,0.120000*%
%ADD12C,0.152400*%
G04 APERTURE END LIST*
D10*
X70633332Y-119737619D02*
X70633332Y-118737619D01*
X70633332Y-118737619D02*
X70299999Y-119451904D01*
X70299999Y-119451904D02*
X69966666Y-118737619D01*
X69966666Y-118737619D02*
X69966666Y-119737619D01*
X70539285Y-116513809D02*
X70205952Y-116513809D01*
X70063095Y-117037619D02*
X70539285Y-117037619D01*
X70539285Y-117037619D02*
X70539285Y-116037619D01*
X70539285Y-116037619D02*
X70063095Y-116037619D01*
X70983332Y-121662619D02*
X70649999Y-122662619D01*
X70649999Y-122662619D02*
X70316666Y-121662619D01*
X70413095Y-123210238D02*
X70508333Y-123162619D01*
X70508333Y-123162619D02*
X70651190Y-123162619D01*
X70651190Y-123162619D02*
X70794047Y-123210238D01*
X70794047Y-123210238D02*
X70889285Y-123305476D01*
X70889285Y-123305476D02*
X70936904Y-123400714D01*
X70936904Y-123400714D02*
X70984523Y-123591190D01*
X70984523Y-123591190D02*
X70984523Y-123734047D01*
X70984523Y-123734047D02*
X70936904Y-123924523D01*
X70936904Y-123924523D02*
X70889285Y-124019761D01*
X70889285Y-124019761D02*
X70794047Y-124115000D01*
X70794047Y-124115000D02*
X70651190Y-124162619D01*
X70651190Y-124162619D02*
X70555952Y-124162619D01*
X70555952Y-124162619D02*
X70413095Y-124115000D01*
X70413095Y-124115000D02*
X70365476Y-124067380D01*
X70365476Y-124067380D02*
X70365476Y-123734047D01*
X70365476Y-123734047D02*
X70555952Y-123734047D01*
%TO.C,D2*%
X72687619Y-122411905D02*
X71687619Y-122411905D01*
X71687619Y-122411905D02*
X71687619Y-122650000D01*
X71687619Y-122650000D02*
X71735238Y-122792857D01*
X71735238Y-122792857D02*
X71830476Y-122888095D01*
X71830476Y-122888095D02*
X71925714Y-122935714D01*
X71925714Y-122935714D02*
X72116190Y-122983333D01*
X72116190Y-122983333D02*
X72259047Y-122983333D01*
X72259047Y-122983333D02*
X72449523Y-122935714D01*
X72449523Y-122935714D02*
X72544761Y-122888095D01*
X72544761Y-122888095D02*
X72640000Y-122792857D01*
X72640000Y-122792857D02*
X72687619Y-122650000D01*
X72687619Y-122650000D02*
X72687619Y-122411905D01*
X71782857Y-123364286D02*
X71735238Y-123411905D01*
X71735238Y-123411905D02*
X71687619Y-123507143D01*
X71687619Y-123507143D02*
X71687619Y-123745238D01*
X71687619Y-123745238D02*
X71735238Y-123840476D01*
X71735238Y-123840476D02*
X71782857Y-123888095D01*
X71782857Y-123888095D02*
X71878095Y-123935714D01*
X71878095Y-123935714D02*
X71973333Y-123935714D01*
X71973333Y-123935714D02*
X72116190Y-123888095D01*
X72116190Y-123888095D02*
X72687619Y-123316667D01*
X72687619Y-123316667D02*
X72687619Y-123935714D01*
%TO.C,R27*%
X81237619Y-81607142D02*
X80761428Y-81273809D01*
X81237619Y-81035714D02*
X80237619Y-81035714D01*
X80237619Y-81035714D02*
X80237619Y-81416666D01*
X80237619Y-81416666D02*
X80285238Y-81511904D01*
X80285238Y-81511904D02*
X80332857Y-81559523D01*
X80332857Y-81559523D02*
X80428095Y-81607142D01*
X80428095Y-81607142D02*
X80570952Y-81607142D01*
X80570952Y-81607142D02*
X80666190Y-81559523D01*
X80666190Y-81559523D02*
X80713809Y-81511904D01*
X80713809Y-81511904D02*
X80761428Y-81416666D01*
X80761428Y-81416666D02*
X80761428Y-81035714D01*
X80332857Y-81988095D02*
X80285238Y-82035714D01*
X80285238Y-82035714D02*
X80237619Y-82130952D01*
X80237619Y-82130952D02*
X80237619Y-82369047D01*
X80237619Y-82369047D02*
X80285238Y-82464285D01*
X80285238Y-82464285D02*
X80332857Y-82511904D01*
X80332857Y-82511904D02*
X80428095Y-82559523D01*
X80428095Y-82559523D02*
X80523333Y-82559523D01*
X80523333Y-82559523D02*
X80666190Y-82511904D01*
X80666190Y-82511904D02*
X81237619Y-81940476D01*
X81237619Y-81940476D02*
X81237619Y-82559523D01*
X80237619Y-82892857D02*
X80237619Y-83559523D01*
X80237619Y-83559523D02*
X81237619Y-83130952D01*
%TO.C,Q6*%
X77395238Y-87957857D02*
X77490476Y-87910238D01*
X77490476Y-87910238D02*
X77585714Y-87815000D01*
X77585714Y-87815000D02*
X77728571Y-87672142D01*
X77728571Y-87672142D02*
X77823809Y-87624523D01*
X77823809Y-87624523D02*
X77919047Y-87624523D01*
X77871428Y-87862619D02*
X77966666Y-87815000D01*
X77966666Y-87815000D02*
X78061904Y-87719761D01*
X78061904Y-87719761D02*
X78109523Y-87529285D01*
X78109523Y-87529285D02*
X78109523Y-87195952D01*
X78109523Y-87195952D02*
X78061904Y-87005476D01*
X78061904Y-87005476D02*
X77966666Y-86910238D01*
X77966666Y-86910238D02*
X77871428Y-86862619D01*
X77871428Y-86862619D02*
X77680952Y-86862619D01*
X77680952Y-86862619D02*
X77585714Y-86910238D01*
X77585714Y-86910238D02*
X77490476Y-87005476D01*
X77490476Y-87005476D02*
X77442857Y-87195952D01*
X77442857Y-87195952D02*
X77442857Y-87529285D01*
X77442857Y-87529285D02*
X77490476Y-87719761D01*
X77490476Y-87719761D02*
X77585714Y-87815000D01*
X77585714Y-87815000D02*
X77680952Y-87862619D01*
X77680952Y-87862619D02*
X77871428Y-87862619D01*
X76585714Y-86862619D02*
X76776190Y-86862619D01*
X76776190Y-86862619D02*
X76871428Y-86910238D01*
X76871428Y-86910238D02*
X76919047Y-86957857D01*
X76919047Y-86957857D02*
X77014285Y-87100714D01*
X77014285Y-87100714D02*
X77061904Y-87291190D01*
X77061904Y-87291190D02*
X77061904Y-87672142D01*
X77061904Y-87672142D02*
X77014285Y-87767380D01*
X77014285Y-87767380D02*
X76966666Y-87815000D01*
X76966666Y-87815000D02*
X76871428Y-87862619D01*
X76871428Y-87862619D02*
X76680952Y-87862619D01*
X76680952Y-87862619D02*
X76585714Y-87815000D01*
X76585714Y-87815000D02*
X76538095Y-87767380D01*
X76538095Y-87767380D02*
X76490476Y-87672142D01*
X76490476Y-87672142D02*
X76490476Y-87434047D01*
X76490476Y-87434047D02*
X76538095Y-87338809D01*
X76538095Y-87338809D02*
X76585714Y-87291190D01*
X76585714Y-87291190D02*
X76680952Y-87243571D01*
X76680952Y-87243571D02*
X76871428Y-87243571D01*
X76871428Y-87243571D02*
X76966666Y-87291190D01*
X76966666Y-87291190D02*
X77014285Y-87338809D01*
X77014285Y-87338809D02*
X77061904Y-87434047D01*
%TO.C,C2*%
X75317380Y-114845833D02*
X75365000Y-114798214D01*
X75365000Y-114798214D02*
X75412619Y-114655357D01*
X75412619Y-114655357D02*
X75412619Y-114560119D01*
X75412619Y-114560119D02*
X75365000Y-114417262D01*
X75365000Y-114417262D02*
X75269761Y-114322024D01*
X75269761Y-114322024D02*
X75174523Y-114274405D01*
X75174523Y-114274405D02*
X74984047Y-114226786D01*
X74984047Y-114226786D02*
X74841190Y-114226786D01*
X74841190Y-114226786D02*
X74650714Y-114274405D01*
X74650714Y-114274405D02*
X74555476Y-114322024D01*
X74555476Y-114322024D02*
X74460238Y-114417262D01*
X74460238Y-114417262D02*
X74412619Y-114560119D01*
X74412619Y-114560119D02*
X74412619Y-114655357D01*
X74412619Y-114655357D02*
X74460238Y-114798214D01*
X74460238Y-114798214D02*
X74507857Y-114845833D01*
X74507857Y-115226786D02*
X74460238Y-115274405D01*
X74460238Y-115274405D02*
X74412619Y-115369643D01*
X74412619Y-115369643D02*
X74412619Y-115607738D01*
X74412619Y-115607738D02*
X74460238Y-115702976D01*
X74460238Y-115702976D02*
X74507857Y-115750595D01*
X74507857Y-115750595D02*
X74603095Y-115798214D01*
X74603095Y-115798214D02*
X74698333Y-115798214D01*
X74698333Y-115798214D02*
X74841190Y-115750595D01*
X74841190Y-115750595D02*
X75412619Y-115179167D01*
X75412619Y-115179167D02*
X75412619Y-115798214D01*
%TO.C,U3*%
X81486904Y-120937619D02*
X81486904Y-121747142D01*
X81486904Y-121747142D02*
X81439285Y-121842380D01*
X81439285Y-121842380D02*
X81391666Y-121890000D01*
X81391666Y-121890000D02*
X81296428Y-121937619D01*
X81296428Y-121937619D02*
X81105952Y-121937619D01*
X81105952Y-121937619D02*
X81010714Y-121890000D01*
X81010714Y-121890000D02*
X80963095Y-121842380D01*
X80963095Y-121842380D02*
X80915476Y-121747142D01*
X80915476Y-121747142D02*
X80915476Y-120937619D01*
X80534523Y-120937619D02*
X79915476Y-120937619D01*
X79915476Y-120937619D02*
X80248809Y-121318571D01*
X80248809Y-121318571D02*
X80105952Y-121318571D01*
X80105952Y-121318571D02*
X80010714Y-121366190D01*
X80010714Y-121366190D02*
X79963095Y-121413809D01*
X79963095Y-121413809D02*
X79915476Y-121509047D01*
X79915476Y-121509047D02*
X79915476Y-121747142D01*
X79915476Y-121747142D02*
X79963095Y-121842380D01*
X79963095Y-121842380D02*
X80010714Y-121890000D01*
X80010714Y-121890000D02*
X80105952Y-121937619D01*
X80105952Y-121937619D02*
X80391666Y-121937619D01*
X80391666Y-121937619D02*
X80486904Y-121890000D01*
X80486904Y-121890000D02*
X80534523Y-121842380D01*
%TO.C,R2*%
X72091666Y-120087619D02*
X72424999Y-119611428D01*
X72663094Y-120087619D02*
X72663094Y-119087619D01*
X72663094Y-119087619D02*
X72282142Y-119087619D01*
X72282142Y-119087619D02*
X72186904Y-119135238D01*
X72186904Y-119135238D02*
X72139285Y-119182857D01*
X72139285Y-119182857D02*
X72091666Y-119278095D01*
X72091666Y-119278095D02*
X72091666Y-119420952D01*
X72091666Y-119420952D02*
X72139285Y-119516190D01*
X72139285Y-119516190D02*
X72186904Y-119563809D01*
X72186904Y-119563809D02*
X72282142Y-119611428D01*
X72282142Y-119611428D02*
X72663094Y-119611428D01*
X71710713Y-119182857D02*
X71663094Y-119135238D01*
X71663094Y-119135238D02*
X71567856Y-119087619D01*
X71567856Y-119087619D02*
X71329761Y-119087619D01*
X71329761Y-119087619D02*
X71234523Y-119135238D01*
X71234523Y-119135238D02*
X71186904Y-119182857D01*
X71186904Y-119182857D02*
X71139285Y-119278095D01*
X71139285Y-119278095D02*
X71139285Y-119373333D01*
X71139285Y-119373333D02*
X71186904Y-119516190D01*
X71186904Y-119516190D02*
X71758332Y-120087619D01*
X71758332Y-120087619D02*
X71139285Y-120087619D01*
%TO.C,JP3*%
X66958333Y-119062619D02*
X66958333Y-119776904D01*
X66958333Y-119776904D02*
X67005952Y-119919761D01*
X67005952Y-119919761D02*
X67101190Y-120015000D01*
X67101190Y-120015000D02*
X67244047Y-120062619D01*
X67244047Y-120062619D02*
X67339285Y-120062619D01*
X66482142Y-120062619D02*
X66482142Y-119062619D01*
X66482142Y-119062619D02*
X66101190Y-119062619D01*
X66101190Y-119062619D02*
X66005952Y-119110238D01*
X66005952Y-119110238D02*
X65958333Y-119157857D01*
X65958333Y-119157857D02*
X65910714Y-119253095D01*
X65910714Y-119253095D02*
X65910714Y-119395952D01*
X65910714Y-119395952D02*
X65958333Y-119491190D01*
X65958333Y-119491190D02*
X66005952Y-119538809D01*
X66005952Y-119538809D02*
X66101190Y-119586428D01*
X66101190Y-119586428D02*
X66482142Y-119586428D01*
X65577380Y-119062619D02*
X64958333Y-119062619D01*
X64958333Y-119062619D02*
X65291666Y-119443571D01*
X65291666Y-119443571D02*
X65148809Y-119443571D01*
X65148809Y-119443571D02*
X65053571Y-119491190D01*
X65053571Y-119491190D02*
X65005952Y-119538809D01*
X65005952Y-119538809D02*
X64958333Y-119634047D01*
X64958333Y-119634047D02*
X64958333Y-119872142D01*
X64958333Y-119872142D02*
X65005952Y-119967380D01*
X65005952Y-119967380D02*
X65053571Y-120015000D01*
X65053571Y-120015000D02*
X65148809Y-120062619D01*
X65148809Y-120062619D02*
X65434523Y-120062619D01*
X65434523Y-120062619D02*
X65529761Y-120015000D01*
X65529761Y-120015000D02*
X65577380Y-119967380D01*
%TO.C,U9*%
X78510904Y-80712619D02*
X78510904Y-81522142D01*
X78510904Y-81522142D02*
X78463285Y-81617380D01*
X78463285Y-81617380D02*
X78415666Y-81665000D01*
X78415666Y-81665000D02*
X78320428Y-81712619D01*
X78320428Y-81712619D02*
X78129952Y-81712619D01*
X78129952Y-81712619D02*
X78034714Y-81665000D01*
X78034714Y-81665000D02*
X77987095Y-81617380D01*
X77987095Y-81617380D02*
X77939476Y-81522142D01*
X77939476Y-81522142D02*
X77939476Y-80712619D01*
X77415666Y-81712619D02*
X77225190Y-81712619D01*
X77225190Y-81712619D02*
X77129952Y-81665000D01*
X77129952Y-81665000D02*
X77082333Y-81617380D01*
X77082333Y-81617380D02*
X76987095Y-81474523D01*
X76987095Y-81474523D02*
X76939476Y-81284047D01*
X76939476Y-81284047D02*
X76939476Y-80903095D01*
X76939476Y-80903095D02*
X76987095Y-80807857D01*
X76987095Y-80807857D02*
X77034714Y-80760238D01*
X77034714Y-80760238D02*
X77129952Y-80712619D01*
X77129952Y-80712619D02*
X77320428Y-80712619D01*
X77320428Y-80712619D02*
X77415666Y-80760238D01*
X77415666Y-80760238D02*
X77463285Y-80807857D01*
X77463285Y-80807857D02*
X77510904Y-80903095D01*
X77510904Y-80903095D02*
X77510904Y-81141190D01*
X77510904Y-81141190D02*
X77463285Y-81236428D01*
X77463285Y-81236428D02*
X77415666Y-81284047D01*
X77415666Y-81284047D02*
X77320428Y-81331666D01*
X77320428Y-81331666D02*
X77129952Y-81331666D01*
X77129952Y-81331666D02*
X77034714Y-81284047D01*
X77034714Y-81284047D02*
X76987095Y-81236428D01*
X76987095Y-81236428D02*
X76939476Y-81141190D01*
X80288999Y-80712619D02*
X80288999Y-80950714D01*
X80527094Y-80855476D02*
X80288999Y-80950714D01*
X80288999Y-80950714D02*
X80050904Y-80855476D01*
X80431856Y-81141190D02*
X80288999Y-80950714D01*
X80288999Y-80950714D02*
X80146142Y-81141190D01*
X80288999Y-80712619D02*
X80288999Y-80950714D01*
X80527094Y-80855476D02*
X80288999Y-80950714D01*
X80288999Y-80950714D02*
X80050904Y-80855476D01*
X80431856Y-81141190D02*
X80288999Y-80950714D01*
X80288999Y-80950714D02*
X80146142Y-81141190D01*
%TO.C,Q7*%
X80995238Y-87957857D02*
X81090476Y-87910238D01*
X81090476Y-87910238D02*
X81185714Y-87815000D01*
X81185714Y-87815000D02*
X81328571Y-87672142D01*
X81328571Y-87672142D02*
X81423809Y-87624523D01*
X81423809Y-87624523D02*
X81519047Y-87624523D01*
X81471428Y-87862619D02*
X81566666Y-87815000D01*
X81566666Y-87815000D02*
X81661904Y-87719761D01*
X81661904Y-87719761D02*
X81709523Y-87529285D01*
X81709523Y-87529285D02*
X81709523Y-87195952D01*
X81709523Y-87195952D02*
X81661904Y-87005476D01*
X81661904Y-87005476D02*
X81566666Y-86910238D01*
X81566666Y-86910238D02*
X81471428Y-86862619D01*
X81471428Y-86862619D02*
X81280952Y-86862619D01*
X81280952Y-86862619D02*
X81185714Y-86910238D01*
X81185714Y-86910238D02*
X81090476Y-87005476D01*
X81090476Y-87005476D02*
X81042857Y-87195952D01*
X81042857Y-87195952D02*
X81042857Y-87529285D01*
X81042857Y-87529285D02*
X81090476Y-87719761D01*
X81090476Y-87719761D02*
X81185714Y-87815000D01*
X81185714Y-87815000D02*
X81280952Y-87862619D01*
X81280952Y-87862619D02*
X81471428Y-87862619D01*
X80709523Y-86862619D02*
X80042857Y-86862619D01*
X80042857Y-86862619D02*
X80471428Y-87862619D01*
%TO.C,R26*%
X75562619Y-81557142D02*
X75086428Y-81223809D01*
X75562619Y-80985714D02*
X74562619Y-80985714D01*
X74562619Y-80985714D02*
X74562619Y-81366666D01*
X74562619Y-81366666D02*
X74610238Y-81461904D01*
X74610238Y-81461904D02*
X74657857Y-81509523D01*
X74657857Y-81509523D02*
X74753095Y-81557142D01*
X74753095Y-81557142D02*
X74895952Y-81557142D01*
X74895952Y-81557142D02*
X74991190Y-81509523D01*
X74991190Y-81509523D02*
X75038809Y-81461904D01*
X75038809Y-81461904D02*
X75086428Y-81366666D01*
X75086428Y-81366666D02*
X75086428Y-80985714D01*
X74657857Y-81938095D02*
X74610238Y-81985714D01*
X74610238Y-81985714D02*
X74562619Y-82080952D01*
X74562619Y-82080952D02*
X74562619Y-82319047D01*
X74562619Y-82319047D02*
X74610238Y-82414285D01*
X74610238Y-82414285D02*
X74657857Y-82461904D01*
X74657857Y-82461904D02*
X74753095Y-82509523D01*
X74753095Y-82509523D02*
X74848333Y-82509523D01*
X74848333Y-82509523D02*
X74991190Y-82461904D01*
X74991190Y-82461904D02*
X75562619Y-81890476D01*
X75562619Y-81890476D02*
X75562619Y-82509523D01*
X74562619Y-83366666D02*
X74562619Y-83176190D01*
X74562619Y-83176190D02*
X74610238Y-83080952D01*
X74610238Y-83080952D02*
X74657857Y-83033333D01*
X74657857Y-83033333D02*
X74800714Y-82938095D01*
X74800714Y-82938095D02*
X74991190Y-82890476D01*
X74991190Y-82890476D02*
X75372142Y-82890476D01*
X75372142Y-82890476D02*
X75467380Y-82938095D01*
X75467380Y-82938095D02*
X75515000Y-82985714D01*
X75515000Y-82985714D02*
X75562619Y-83080952D01*
X75562619Y-83080952D02*
X75562619Y-83271428D01*
X75562619Y-83271428D02*
X75515000Y-83366666D01*
X75515000Y-83366666D02*
X75467380Y-83414285D01*
X75467380Y-83414285D02*
X75372142Y-83461904D01*
X75372142Y-83461904D02*
X75134047Y-83461904D01*
X75134047Y-83461904D02*
X75038809Y-83414285D01*
X75038809Y-83414285D02*
X74991190Y-83366666D01*
X74991190Y-83366666D02*
X74943571Y-83271428D01*
X74943571Y-83271428D02*
X74943571Y-83080952D01*
X74943571Y-83080952D02*
X74991190Y-82985714D01*
X74991190Y-82985714D02*
X75038809Y-82938095D01*
X75038809Y-82938095D02*
X75134047Y-82890476D01*
%TO.C,Q1*%
X75120238Y-110057857D02*
X75215476Y-110010238D01*
X75215476Y-110010238D02*
X75310714Y-109915000D01*
X75310714Y-109915000D02*
X75453571Y-109772142D01*
X75453571Y-109772142D02*
X75548809Y-109724523D01*
X75548809Y-109724523D02*
X75644047Y-109724523D01*
X75596428Y-109962619D02*
X75691666Y-109915000D01*
X75691666Y-109915000D02*
X75786904Y-109819761D01*
X75786904Y-109819761D02*
X75834523Y-109629285D01*
X75834523Y-109629285D02*
X75834523Y-109295952D01*
X75834523Y-109295952D02*
X75786904Y-109105476D01*
X75786904Y-109105476D02*
X75691666Y-109010238D01*
X75691666Y-109010238D02*
X75596428Y-108962619D01*
X75596428Y-108962619D02*
X75405952Y-108962619D01*
X75405952Y-108962619D02*
X75310714Y-109010238D01*
X75310714Y-109010238D02*
X75215476Y-109105476D01*
X75215476Y-109105476D02*
X75167857Y-109295952D01*
X75167857Y-109295952D02*
X75167857Y-109629285D01*
X75167857Y-109629285D02*
X75215476Y-109819761D01*
X75215476Y-109819761D02*
X75310714Y-109915000D01*
X75310714Y-109915000D02*
X75405952Y-109962619D01*
X75405952Y-109962619D02*
X75596428Y-109962619D01*
X74215476Y-109962619D02*
X74786904Y-109962619D01*
X74501190Y-109962619D02*
X74501190Y-108962619D01*
X74501190Y-108962619D02*
X74596428Y-109105476D01*
X74596428Y-109105476D02*
X74691666Y-109200714D01*
X74691666Y-109200714D02*
X74786904Y-109248333D01*
%TO.C,R12*%
X81037619Y-94582142D02*
X80561428Y-94248809D01*
X81037619Y-94010714D02*
X80037619Y-94010714D01*
X80037619Y-94010714D02*
X80037619Y-94391666D01*
X80037619Y-94391666D02*
X80085238Y-94486904D01*
X80085238Y-94486904D02*
X80132857Y-94534523D01*
X80132857Y-94534523D02*
X80228095Y-94582142D01*
X80228095Y-94582142D02*
X80370952Y-94582142D01*
X80370952Y-94582142D02*
X80466190Y-94534523D01*
X80466190Y-94534523D02*
X80513809Y-94486904D01*
X80513809Y-94486904D02*
X80561428Y-94391666D01*
X80561428Y-94391666D02*
X80561428Y-94010714D01*
X81037619Y-95534523D02*
X81037619Y-94963095D01*
X81037619Y-95248809D02*
X80037619Y-95248809D01*
X80037619Y-95248809D02*
X80180476Y-95153571D01*
X80180476Y-95153571D02*
X80275714Y-95058333D01*
X80275714Y-95058333D02*
X80323333Y-94963095D01*
X80132857Y-95915476D02*
X80085238Y-95963095D01*
X80085238Y-95963095D02*
X80037619Y-96058333D01*
X80037619Y-96058333D02*
X80037619Y-96296428D01*
X80037619Y-96296428D02*
X80085238Y-96391666D01*
X80085238Y-96391666D02*
X80132857Y-96439285D01*
X80132857Y-96439285D02*
X80228095Y-96486904D01*
X80228095Y-96486904D02*
X80323333Y-96486904D01*
X80323333Y-96486904D02*
X80466190Y-96439285D01*
X80466190Y-96439285D02*
X81037619Y-95867857D01*
X81037619Y-95867857D02*
X81037619Y-96486904D01*
%TO.C,R28*%
X79267857Y-83587619D02*
X79601190Y-83111428D01*
X79839285Y-83587619D02*
X79839285Y-82587619D01*
X79839285Y-82587619D02*
X79458333Y-82587619D01*
X79458333Y-82587619D02*
X79363095Y-82635238D01*
X79363095Y-82635238D02*
X79315476Y-82682857D01*
X79315476Y-82682857D02*
X79267857Y-82778095D01*
X79267857Y-82778095D02*
X79267857Y-82920952D01*
X79267857Y-82920952D02*
X79315476Y-83016190D01*
X79315476Y-83016190D02*
X79363095Y-83063809D01*
X79363095Y-83063809D02*
X79458333Y-83111428D01*
X79458333Y-83111428D02*
X79839285Y-83111428D01*
X78886904Y-82682857D02*
X78839285Y-82635238D01*
X78839285Y-82635238D02*
X78744047Y-82587619D01*
X78744047Y-82587619D02*
X78505952Y-82587619D01*
X78505952Y-82587619D02*
X78410714Y-82635238D01*
X78410714Y-82635238D02*
X78363095Y-82682857D01*
X78363095Y-82682857D02*
X78315476Y-82778095D01*
X78315476Y-82778095D02*
X78315476Y-82873333D01*
X78315476Y-82873333D02*
X78363095Y-83016190D01*
X78363095Y-83016190D02*
X78934523Y-83587619D01*
X78934523Y-83587619D02*
X78315476Y-83587619D01*
X77744047Y-83016190D02*
X77839285Y-82968571D01*
X77839285Y-82968571D02*
X77886904Y-82920952D01*
X77886904Y-82920952D02*
X77934523Y-82825714D01*
X77934523Y-82825714D02*
X77934523Y-82778095D01*
X77934523Y-82778095D02*
X77886904Y-82682857D01*
X77886904Y-82682857D02*
X77839285Y-82635238D01*
X77839285Y-82635238D02*
X77744047Y-82587619D01*
X77744047Y-82587619D02*
X77553571Y-82587619D01*
X77553571Y-82587619D02*
X77458333Y-82635238D01*
X77458333Y-82635238D02*
X77410714Y-82682857D01*
X77410714Y-82682857D02*
X77363095Y-82778095D01*
X77363095Y-82778095D02*
X77363095Y-82825714D01*
X77363095Y-82825714D02*
X77410714Y-82920952D01*
X77410714Y-82920952D02*
X77458333Y-82968571D01*
X77458333Y-82968571D02*
X77553571Y-83016190D01*
X77553571Y-83016190D02*
X77744047Y-83016190D01*
X77744047Y-83016190D02*
X77839285Y-83063809D01*
X77839285Y-83063809D02*
X77886904Y-83111428D01*
X77886904Y-83111428D02*
X77934523Y-83206666D01*
X77934523Y-83206666D02*
X77934523Y-83397142D01*
X77934523Y-83397142D02*
X77886904Y-83492380D01*
X77886904Y-83492380D02*
X77839285Y-83540000D01*
X77839285Y-83540000D02*
X77744047Y-83587619D01*
X77744047Y-83587619D02*
X77553571Y-83587619D01*
X77553571Y-83587619D02*
X77458333Y-83540000D01*
X77458333Y-83540000D02*
X77410714Y-83492380D01*
X77410714Y-83492380D02*
X77363095Y-83397142D01*
X77363095Y-83397142D02*
X77363095Y-83206666D01*
X77363095Y-83206666D02*
X77410714Y-83111428D01*
X77410714Y-83111428D02*
X77458333Y-83063809D01*
X77458333Y-83063809D02*
X77553571Y-83016190D01*
%TO.C,R3*%
X76291666Y-120062619D02*
X76624999Y-119586428D01*
X76863094Y-120062619D02*
X76863094Y-119062619D01*
X76863094Y-119062619D02*
X76482142Y-119062619D01*
X76482142Y-119062619D02*
X76386904Y-119110238D01*
X76386904Y-119110238D02*
X76339285Y-119157857D01*
X76339285Y-119157857D02*
X76291666Y-119253095D01*
X76291666Y-119253095D02*
X76291666Y-119395952D01*
X76291666Y-119395952D02*
X76339285Y-119491190D01*
X76339285Y-119491190D02*
X76386904Y-119538809D01*
X76386904Y-119538809D02*
X76482142Y-119586428D01*
X76482142Y-119586428D02*
X76863094Y-119586428D01*
X75958332Y-119062619D02*
X75339285Y-119062619D01*
X75339285Y-119062619D02*
X75672618Y-119443571D01*
X75672618Y-119443571D02*
X75529761Y-119443571D01*
X75529761Y-119443571D02*
X75434523Y-119491190D01*
X75434523Y-119491190D02*
X75386904Y-119538809D01*
X75386904Y-119538809D02*
X75339285Y-119634047D01*
X75339285Y-119634047D02*
X75339285Y-119872142D01*
X75339285Y-119872142D02*
X75386904Y-119967380D01*
X75386904Y-119967380D02*
X75434523Y-120015000D01*
X75434523Y-120015000D02*
X75529761Y-120062619D01*
X75529761Y-120062619D02*
X75815475Y-120062619D01*
X75815475Y-120062619D02*
X75910713Y-120015000D01*
X75910713Y-120015000D02*
X75958332Y-119967380D01*
%TO.C,R17*%
X80542857Y-74812619D02*
X80876190Y-74336428D01*
X81114285Y-74812619D02*
X81114285Y-73812619D01*
X81114285Y-73812619D02*
X80733333Y-73812619D01*
X80733333Y-73812619D02*
X80638095Y-73860238D01*
X80638095Y-73860238D02*
X80590476Y-73907857D01*
X80590476Y-73907857D02*
X80542857Y-74003095D01*
X80542857Y-74003095D02*
X80542857Y-74145952D01*
X80542857Y-74145952D02*
X80590476Y-74241190D01*
X80590476Y-74241190D02*
X80638095Y-74288809D01*
X80638095Y-74288809D02*
X80733333Y-74336428D01*
X80733333Y-74336428D02*
X81114285Y-74336428D01*
X79590476Y-74812619D02*
X80161904Y-74812619D01*
X79876190Y-74812619D02*
X79876190Y-73812619D01*
X79876190Y-73812619D02*
X79971428Y-73955476D01*
X79971428Y-73955476D02*
X80066666Y-74050714D01*
X80066666Y-74050714D02*
X80161904Y-74098333D01*
X79257142Y-73812619D02*
X78590476Y-73812619D01*
X78590476Y-73812619D02*
X79019047Y-74812619D01*
%TO.C,C3*%
X75342380Y-111333333D02*
X75390000Y-111285714D01*
X75390000Y-111285714D02*
X75437619Y-111142857D01*
X75437619Y-111142857D02*
X75437619Y-111047619D01*
X75437619Y-111047619D02*
X75390000Y-110904762D01*
X75390000Y-110904762D02*
X75294761Y-110809524D01*
X75294761Y-110809524D02*
X75199523Y-110761905D01*
X75199523Y-110761905D02*
X75009047Y-110714286D01*
X75009047Y-110714286D02*
X74866190Y-110714286D01*
X74866190Y-110714286D02*
X74675714Y-110761905D01*
X74675714Y-110761905D02*
X74580476Y-110809524D01*
X74580476Y-110809524D02*
X74485238Y-110904762D01*
X74485238Y-110904762D02*
X74437619Y-111047619D01*
X74437619Y-111047619D02*
X74437619Y-111142857D01*
X74437619Y-111142857D02*
X74485238Y-111285714D01*
X74485238Y-111285714D02*
X74532857Y-111333333D01*
X74437619Y-111666667D02*
X74437619Y-112285714D01*
X74437619Y-112285714D02*
X74818571Y-111952381D01*
X74818571Y-111952381D02*
X74818571Y-112095238D01*
X74818571Y-112095238D02*
X74866190Y-112190476D01*
X74866190Y-112190476D02*
X74913809Y-112238095D01*
X74913809Y-112238095D02*
X75009047Y-112285714D01*
X75009047Y-112285714D02*
X75247142Y-112285714D01*
X75247142Y-112285714D02*
X75342380Y-112238095D01*
X75342380Y-112238095D02*
X75390000Y-112190476D01*
X75390000Y-112190476D02*
X75437619Y-112095238D01*
X75437619Y-112095238D02*
X75437619Y-111809524D01*
X75437619Y-111809524D02*
X75390000Y-111714286D01*
X75390000Y-111714286D02*
X75342380Y-111666667D01*
%TO.C,Q3*%
X78445238Y-110007857D02*
X78540476Y-109960238D01*
X78540476Y-109960238D02*
X78635714Y-109865000D01*
X78635714Y-109865000D02*
X78778571Y-109722142D01*
X78778571Y-109722142D02*
X78873809Y-109674523D01*
X78873809Y-109674523D02*
X78969047Y-109674523D01*
X78921428Y-109912619D02*
X79016666Y-109865000D01*
X79016666Y-109865000D02*
X79111904Y-109769761D01*
X79111904Y-109769761D02*
X79159523Y-109579285D01*
X79159523Y-109579285D02*
X79159523Y-109245952D01*
X79159523Y-109245952D02*
X79111904Y-109055476D01*
X79111904Y-109055476D02*
X79016666Y-108960238D01*
X79016666Y-108960238D02*
X78921428Y-108912619D01*
X78921428Y-108912619D02*
X78730952Y-108912619D01*
X78730952Y-108912619D02*
X78635714Y-108960238D01*
X78635714Y-108960238D02*
X78540476Y-109055476D01*
X78540476Y-109055476D02*
X78492857Y-109245952D01*
X78492857Y-109245952D02*
X78492857Y-109579285D01*
X78492857Y-109579285D02*
X78540476Y-109769761D01*
X78540476Y-109769761D02*
X78635714Y-109865000D01*
X78635714Y-109865000D02*
X78730952Y-109912619D01*
X78730952Y-109912619D02*
X78921428Y-109912619D01*
X78159523Y-108912619D02*
X77540476Y-108912619D01*
X77540476Y-108912619D02*
X77873809Y-109293571D01*
X77873809Y-109293571D02*
X77730952Y-109293571D01*
X77730952Y-109293571D02*
X77635714Y-109341190D01*
X77635714Y-109341190D02*
X77588095Y-109388809D01*
X77588095Y-109388809D02*
X77540476Y-109484047D01*
X77540476Y-109484047D02*
X77540476Y-109722142D01*
X77540476Y-109722142D02*
X77588095Y-109817380D01*
X77588095Y-109817380D02*
X77635714Y-109865000D01*
X77635714Y-109865000D02*
X77730952Y-109912619D01*
X77730952Y-109912619D02*
X78016666Y-109912619D01*
X78016666Y-109912619D02*
X78111904Y-109865000D01*
X78111904Y-109865000D02*
X78159523Y-109817380D01*
%TO.C,D9*%
X68538094Y-80162619D02*
X68538094Y-79162619D01*
X68538094Y-79162619D02*
X68299999Y-79162619D01*
X68299999Y-79162619D02*
X68157142Y-79210238D01*
X68157142Y-79210238D02*
X68061904Y-79305476D01*
X68061904Y-79305476D02*
X68014285Y-79400714D01*
X68014285Y-79400714D02*
X67966666Y-79591190D01*
X67966666Y-79591190D02*
X67966666Y-79734047D01*
X67966666Y-79734047D02*
X68014285Y-79924523D01*
X68014285Y-79924523D02*
X68061904Y-80019761D01*
X68061904Y-80019761D02*
X68157142Y-80115000D01*
X68157142Y-80115000D02*
X68299999Y-80162619D01*
X68299999Y-80162619D02*
X68538094Y-80162619D01*
X67490475Y-80162619D02*
X67299999Y-80162619D01*
X67299999Y-80162619D02*
X67204761Y-80115000D01*
X67204761Y-80115000D02*
X67157142Y-80067380D01*
X67157142Y-80067380D02*
X67061904Y-79924523D01*
X67061904Y-79924523D02*
X67014285Y-79734047D01*
X67014285Y-79734047D02*
X67014285Y-79353095D01*
X67014285Y-79353095D02*
X67061904Y-79257857D01*
X67061904Y-79257857D02*
X67109523Y-79210238D01*
X67109523Y-79210238D02*
X67204761Y-79162619D01*
X67204761Y-79162619D02*
X67395237Y-79162619D01*
X67395237Y-79162619D02*
X67490475Y-79210238D01*
X67490475Y-79210238D02*
X67538094Y-79257857D01*
X67538094Y-79257857D02*
X67585713Y-79353095D01*
X67585713Y-79353095D02*
X67585713Y-79591190D01*
X67585713Y-79591190D02*
X67538094Y-79686428D01*
X67538094Y-79686428D02*
X67490475Y-79734047D01*
X67490475Y-79734047D02*
X67395237Y-79781666D01*
X67395237Y-79781666D02*
X67204761Y-79781666D01*
X67204761Y-79781666D02*
X67109523Y-79734047D01*
X67109523Y-79734047D02*
X67061904Y-79686428D01*
X67061904Y-79686428D02*
X67014285Y-79591190D01*
%TO.C,R24*%
X72037619Y-81582142D02*
X71561428Y-81248809D01*
X72037619Y-81010714D02*
X71037619Y-81010714D01*
X71037619Y-81010714D02*
X71037619Y-81391666D01*
X71037619Y-81391666D02*
X71085238Y-81486904D01*
X71085238Y-81486904D02*
X71132857Y-81534523D01*
X71132857Y-81534523D02*
X71228095Y-81582142D01*
X71228095Y-81582142D02*
X71370952Y-81582142D01*
X71370952Y-81582142D02*
X71466190Y-81534523D01*
X71466190Y-81534523D02*
X71513809Y-81486904D01*
X71513809Y-81486904D02*
X71561428Y-81391666D01*
X71561428Y-81391666D02*
X71561428Y-81010714D01*
X71132857Y-81963095D02*
X71085238Y-82010714D01*
X71085238Y-82010714D02*
X71037619Y-82105952D01*
X71037619Y-82105952D02*
X71037619Y-82344047D01*
X71037619Y-82344047D02*
X71085238Y-82439285D01*
X71085238Y-82439285D02*
X71132857Y-82486904D01*
X71132857Y-82486904D02*
X71228095Y-82534523D01*
X71228095Y-82534523D02*
X71323333Y-82534523D01*
X71323333Y-82534523D02*
X71466190Y-82486904D01*
X71466190Y-82486904D02*
X72037619Y-81915476D01*
X72037619Y-81915476D02*
X72037619Y-82534523D01*
X71370952Y-83391666D02*
X72037619Y-83391666D01*
X70990000Y-83153571D02*
X71704285Y-82915476D01*
X71704285Y-82915476D02*
X71704285Y-83534523D01*
%TO.C,D12*%
X72764285Y-80112619D02*
X72764285Y-79112619D01*
X72764285Y-79112619D02*
X72526190Y-79112619D01*
X72526190Y-79112619D02*
X72383333Y-79160238D01*
X72383333Y-79160238D02*
X72288095Y-79255476D01*
X72288095Y-79255476D02*
X72240476Y-79350714D01*
X72240476Y-79350714D02*
X72192857Y-79541190D01*
X72192857Y-79541190D02*
X72192857Y-79684047D01*
X72192857Y-79684047D02*
X72240476Y-79874523D01*
X72240476Y-79874523D02*
X72288095Y-79969761D01*
X72288095Y-79969761D02*
X72383333Y-80065000D01*
X72383333Y-80065000D02*
X72526190Y-80112619D01*
X72526190Y-80112619D02*
X72764285Y-80112619D01*
X71240476Y-80112619D02*
X71811904Y-80112619D01*
X71526190Y-80112619D02*
X71526190Y-79112619D01*
X71526190Y-79112619D02*
X71621428Y-79255476D01*
X71621428Y-79255476D02*
X71716666Y-79350714D01*
X71716666Y-79350714D02*
X71811904Y-79398333D01*
X70859523Y-79207857D02*
X70811904Y-79160238D01*
X70811904Y-79160238D02*
X70716666Y-79112619D01*
X70716666Y-79112619D02*
X70478571Y-79112619D01*
X70478571Y-79112619D02*
X70383333Y-79160238D01*
X70383333Y-79160238D02*
X70335714Y-79207857D01*
X70335714Y-79207857D02*
X70288095Y-79303095D01*
X70288095Y-79303095D02*
X70288095Y-79398333D01*
X70288095Y-79398333D02*
X70335714Y-79541190D01*
X70335714Y-79541190D02*
X70907142Y-80112619D01*
X70907142Y-80112619D02*
X70288095Y-80112619D01*
%TO.C,C5*%
X68091666Y-101742380D02*
X68139285Y-101790000D01*
X68139285Y-101790000D02*
X68282142Y-101837619D01*
X68282142Y-101837619D02*
X68377380Y-101837619D01*
X68377380Y-101837619D02*
X68520237Y-101790000D01*
X68520237Y-101790000D02*
X68615475Y-101694761D01*
X68615475Y-101694761D02*
X68663094Y-101599523D01*
X68663094Y-101599523D02*
X68710713Y-101409047D01*
X68710713Y-101409047D02*
X68710713Y-101266190D01*
X68710713Y-101266190D02*
X68663094Y-101075714D01*
X68663094Y-101075714D02*
X68615475Y-100980476D01*
X68615475Y-100980476D02*
X68520237Y-100885238D01*
X68520237Y-100885238D02*
X68377380Y-100837619D01*
X68377380Y-100837619D02*
X68282142Y-100837619D01*
X68282142Y-100837619D02*
X68139285Y-100885238D01*
X68139285Y-100885238D02*
X68091666Y-100932857D01*
X67186904Y-100837619D02*
X67663094Y-100837619D01*
X67663094Y-100837619D02*
X67710713Y-101313809D01*
X67710713Y-101313809D02*
X67663094Y-101266190D01*
X67663094Y-101266190D02*
X67567856Y-101218571D01*
X67567856Y-101218571D02*
X67329761Y-101218571D01*
X67329761Y-101218571D02*
X67234523Y-101266190D01*
X67234523Y-101266190D02*
X67186904Y-101313809D01*
X67186904Y-101313809D02*
X67139285Y-101409047D01*
X67139285Y-101409047D02*
X67139285Y-101647142D01*
X67139285Y-101647142D02*
X67186904Y-101742380D01*
X67186904Y-101742380D02*
X67234523Y-101790000D01*
X67234523Y-101790000D02*
X67329761Y-101837619D01*
X67329761Y-101837619D02*
X67567856Y-101837619D01*
X67567856Y-101837619D02*
X67663094Y-101790000D01*
X67663094Y-101790000D02*
X67710713Y-101742380D01*
%TO.C,R22*%
X68562619Y-81682142D02*
X68086428Y-81348809D01*
X68562619Y-81110714D02*
X67562619Y-81110714D01*
X67562619Y-81110714D02*
X67562619Y-81491666D01*
X67562619Y-81491666D02*
X67610238Y-81586904D01*
X67610238Y-81586904D02*
X67657857Y-81634523D01*
X67657857Y-81634523D02*
X67753095Y-81682142D01*
X67753095Y-81682142D02*
X67895952Y-81682142D01*
X67895952Y-81682142D02*
X67991190Y-81634523D01*
X67991190Y-81634523D02*
X68038809Y-81586904D01*
X68038809Y-81586904D02*
X68086428Y-81491666D01*
X68086428Y-81491666D02*
X68086428Y-81110714D01*
X67657857Y-82063095D02*
X67610238Y-82110714D01*
X67610238Y-82110714D02*
X67562619Y-82205952D01*
X67562619Y-82205952D02*
X67562619Y-82444047D01*
X67562619Y-82444047D02*
X67610238Y-82539285D01*
X67610238Y-82539285D02*
X67657857Y-82586904D01*
X67657857Y-82586904D02*
X67753095Y-82634523D01*
X67753095Y-82634523D02*
X67848333Y-82634523D01*
X67848333Y-82634523D02*
X67991190Y-82586904D01*
X67991190Y-82586904D02*
X68562619Y-82015476D01*
X68562619Y-82015476D02*
X68562619Y-82634523D01*
X67657857Y-83015476D02*
X67610238Y-83063095D01*
X67610238Y-83063095D02*
X67562619Y-83158333D01*
X67562619Y-83158333D02*
X67562619Y-83396428D01*
X67562619Y-83396428D02*
X67610238Y-83491666D01*
X67610238Y-83491666D02*
X67657857Y-83539285D01*
X67657857Y-83539285D02*
X67753095Y-83586904D01*
X67753095Y-83586904D02*
X67848333Y-83586904D01*
X67848333Y-83586904D02*
X67991190Y-83539285D01*
X67991190Y-83539285D02*
X68562619Y-82967857D01*
X68562619Y-82967857D02*
X68562619Y-83586904D01*
%TO.C,R25*%
X75617857Y-79987619D02*
X75951190Y-79511428D01*
X76189285Y-79987619D02*
X76189285Y-78987619D01*
X76189285Y-78987619D02*
X75808333Y-78987619D01*
X75808333Y-78987619D02*
X75713095Y-79035238D01*
X75713095Y-79035238D02*
X75665476Y-79082857D01*
X75665476Y-79082857D02*
X75617857Y-79178095D01*
X75617857Y-79178095D02*
X75617857Y-79320952D01*
X75617857Y-79320952D02*
X75665476Y-79416190D01*
X75665476Y-79416190D02*
X75713095Y-79463809D01*
X75713095Y-79463809D02*
X75808333Y-79511428D01*
X75808333Y-79511428D02*
X76189285Y-79511428D01*
X75236904Y-79082857D02*
X75189285Y-79035238D01*
X75189285Y-79035238D02*
X75094047Y-78987619D01*
X75094047Y-78987619D02*
X74855952Y-78987619D01*
X74855952Y-78987619D02*
X74760714Y-79035238D01*
X74760714Y-79035238D02*
X74713095Y-79082857D01*
X74713095Y-79082857D02*
X74665476Y-79178095D01*
X74665476Y-79178095D02*
X74665476Y-79273333D01*
X74665476Y-79273333D02*
X74713095Y-79416190D01*
X74713095Y-79416190D02*
X75284523Y-79987619D01*
X75284523Y-79987619D02*
X74665476Y-79987619D01*
X73760714Y-78987619D02*
X74236904Y-78987619D01*
X74236904Y-78987619D02*
X74284523Y-79463809D01*
X74284523Y-79463809D02*
X74236904Y-79416190D01*
X74236904Y-79416190D02*
X74141666Y-79368571D01*
X74141666Y-79368571D02*
X73903571Y-79368571D01*
X73903571Y-79368571D02*
X73808333Y-79416190D01*
X73808333Y-79416190D02*
X73760714Y-79463809D01*
X73760714Y-79463809D02*
X73713095Y-79559047D01*
X73713095Y-79559047D02*
X73713095Y-79797142D01*
X73713095Y-79797142D02*
X73760714Y-79892380D01*
X73760714Y-79892380D02*
X73808333Y-79940000D01*
X73808333Y-79940000D02*
X73903571Y-79987619D01*
X73903571Y-79987619D02*
X74141666Y-79987619D01*
X74141666Y-79987619D02*
X74236904Y-79940000D01*
X74236904Y-79940000D02*
X74284523Y-79892380D01*
%TO.C,R23*%
X73912619Y-81607142D02*
X73436428Y-81273809D01*
X73912619Y-81035714D02*
X72912619Y-81035714D01*
X72912619Y-81035714D02*
X72912619Y-81416666D01*
X72912619Y-81416666D02*
X72960238Y-81511904D01*
X72960238Y-81511904D02*
X73007857Y-81559523D01*
X73007857Y-81559523D02*
X73103095Y-81607142D01*
X73103095Y-81607142D02*
X73245952Y-81607142D01*
X73245952Y-81607142D02*
X73341190Y-81559523D01*
X73341190Y-81559523D02*
X73388809Y-81511904D01*
X73388809Y-81511904D02*
X73436428Y-81416666D01*
X73436428Y-81416666D02*
X73436428Y-81035714D01*
X73007857Y-81988095D02*
X72960238Y-82035714D01*
X72960238Y-82035714D02*
X72912619Y-82130952D01*
X72912619Y-82130952D02*
X72912619Y-82369047D01*
X72912619Y-82369047D02*
X72960238Y-82464285D01*
X72960238Y-82464285D02*
X73007857Y-82511904D01*
X73007857Y-82511904D02*
X73103095Y-82559523D01*
X73103095Y-82559523D02*
X73198333Y-82559523D01*
X73198333Y-82559523D02*
X73341190Y-82511904D01*
X73341190Y-82511904D02*
X73912619Y-81940476D01*
X73912619Y-81940476D02*
X73912619Y-82559523D01*
X72912619Y-82892857D02*
X72912619Y-83511904D01*
X72912619Y-83511904D02*
X73293571Y-83178571D01*
X73293571Y-83178571D02*
X73293571Y-83321428D01*
X73293571Y-83321428D02*
X73341190Y-83416666D01*
X73341190Y-83416666D02*
X73388809Y-83464285D01*
X73388809Y-83464285D02*
X73484047Y-83511904D01*
X73484047Y-83511904D02*
X73722142Y-83511904D01*
X73722142Y-83511904D02*
X73817380Y-83464285D01*
X73817380Y-83464285D02*
X73865000Y-83416666D01*
X73865000Y-83416666D02*
X73912619Y-83321428D01*
X73912619Y-83321428D02*
X73912619Y-83035714D01*
X73912619Y-83035714D02*
X73865000Y-82940476D01*
X73865000Y-82940476D02*
X73817380Y-82892857D01*
%TO.C,U7*%
X72887619Y-113388095D02*
X73697142Y-113388095D01*
X73697142Y-113388095D02*
X73792380Y-113435714D01*
X73792380Y-113435714D02*
X73840000Y-113483333D01*
X73840000Y-113483333D02*
X73887619Y-113578571D01*
X73887619Y-113578571D02*
X73887619Y-113769047D01*
X73887619Y-113769047D02*
X73840000Y-113864285D01*
X73840000Y-113864285D02*
X73792380Y-113911904D01*
X73792380Y-113911904D02*
X73697142Y-113959523D01*
X73697142Y-113959523D02*
X72887619Y-113959523D01*
X72887619Y-114340476D02*
X72887619Y-115007142D01*
X72887619Y-115007142D02*
X73887619Y-114578571D01*
%TO.C,R14*%
X73867857Y-101837619D02*
X74201190Y-101361428D01*
X74439285Y-101837619D02*
X74439285Y-100837619D01*
X74439285Y-100837619D02*
X74058333Y-100837619D01*
X74058333Y-100837619D02*
X73963095Y-100885238D01*
X73963095Y-100885238D02*
X73915476Y-100932857D01*
X73915476Y-100932857D02*
X73867857Y-101028095D01*
X73867857Y-101028095D02*
X73867857Y-101170952D01*
X73867857Y-101170952D02*
X73915476Y-101266190D01*
X73915476Y-101266190D02*
X73963095Y-101313809D01*
X73963095Y-101313809D02*
X74058333Y-101361428D01*
X74058333Y-101361428D02*
X74439285Y-101361428D01*
X72915476Y-101837619D02*
X73486904Y-101837619D01*
X73201190Y-101837619D02*
X73201190Y-100837619D01*
X73201190Y-100837619D02*
X73296428Y-100980476D01*
X73296428Y-100980476D02*
X73391666Y-101075714D01*
X73391666Y-101075714D02*
X73486904Y-101123333D01*
X72058333Y-101170952D02*
X72058333Y-101837619D01*
X72296428Y-100790000D02*
X72534523Y-101504285D01*
X72534523Y-101504285D02*
X71915476Y-101504285D01*
%TO.C,Q4*%
X81657857Y-79604761D02*
X81610238Y-79509523D01*
X81610238Y-79509523D02*
X81515000Y-79414285D01*
X81515000Y-79414285D02*
X81372142Y-79271428D01*
X81372142Y-79271428D02*
X81324523Y-79176190D01*
X81324523Y-79176190D02*
X81324523Y-79080952D01*
X81562619Y-79128571D02*
X81515000Y-79033333D01*
X81515000Y-79033333D02*
X81419761Y-78938095D01*
X81419761Y-78938095D02*
X81229285Y-78890476D01*
X81229285Y-78890476D02*
X80895952Y-78890476D01*
X80895952Y-78890476D02*
X80705476Y-78938095D01*
X80705476Y-78938095D02*
X80610238Y-79033333D01*
X80610238Y-79033333D02*
X80562619Y-79128571D01*
X80562619Y-79128571D02*
X80562619Y-79319047D01*
X80562619Y-79319047D02*
X80610238Y-79414285D01*
X80610238Y-79414285D02*
X80705476Y-79509523D01*
X80705476Y-79509523D02*
X80895952Y-79557142D01*
X80895952Y-79557142D02*
X81229285Y-79557142D01*
X81229285Y-79557142D02*
X81419761Y-79509523D01*
X81419761Y-79509523D02*
X81515000Y-79414285D01*
X81515000Y-79414285D02*
X81562619Y-79319047D01*
X81562619Y-79319047D02*
X81562619Y-79128571D01*
X80895952Y-80414285D02*
X81562619Y-80414285D01*
X80515000Y-80176190D02*
X81229285Y-79938095D01*
X81229285Y-79938095D02*
X81229285Y-80557142D01*
%TO.C,R4*%
X80166666Y-102887619D02*
X80499999Y-102411428D01*
X80738094Y-102887619D02*
X80738094Y-101887619D01*
X80738094Y-101887619D02*
X80357142Y-101887619D01*
X80357142Y-101887619D02*
X80261904Y-101935238D01*
X80261904Y-101935238D02*
X80214285Y-101982857D01*
X80214285Y-101982857D02*
X80166666Y-102078095D01*
X80166666Y-102078095D02*
X80166666Y-102220952D01*
X80166666Y-102220952D02*
X80214285Y-102316190D01*
X80214285Y-102316190D02*
X80261904Y-102363809D01*
X80261904Y-102363809D02*
X80357142Y-102411428D01*
X80357142Y-102411428D02*
X80738094Y-102411428D01*
X79309523Y-102220952D02*
X79309523Y-102887619D01*
X79547618Y-101840000D02*
X79785713Y-102554285D01*
X79785713Y-102554285D02*
X79166666Y-102554285D01*
%TO.C,R21*%
X70312619Y-81732142D02*
X69836428Y-81398809D01*
X70312619Y-81160714D02*
X69312619Y-81160714D01*
X69312619Y-81160714D02*
X69312619Y-81541666D01*
X69312619Y-81541666D02*
X69360238Y-81636904D01*
X69360238Y-81636904D02*
X69407857Y-81684523D01*
X69407857Y-81684523D02*
X69503095Y-81732142D01*
X69503095Y-81732142D02*
X69645952Y-81732142D01*
X69645952Y-81732142D02*
X69741190Y-81684523D01*
X69741190Y-81684523D02*
X69788809Y-81636904D01*
X69788809Y-81636904D02*
X69836428Y-81541666D01*
X69836428Y-81541666D02*
X69836428Y-81160714D01*
X69407857Y-82113095D02*
X69360238Y-82160714D01*
X69360238Y-82160714D02*
X69312619Y-82255952D01*
X69312619Y-82255952D02*
X69312619Y-82494047D01*
X69312619Y-82494047D02*
X69360238Y-82589285D01*
X69360238Y-82589285D02*
X69407857Y-82636904D01*
X69407857Y-82636904D02*
X69503095Y-82684523D01*
X69503095Y-82684523D02*
X69598333Y-82684523D01*
X69598333Y-82684523D02*
X69741190Y-82636904D01*
X69741190Y-82636904D02*
X70312619Y-82065476D01*
X70312619Y-82065476D02*
X70312619Y-82684523D01*
X70312619Y-83636904D02*
X70312619Y-83065476D01*
X70312619Y-83351190D02*
X69312619Y-83351190D01*
X69312619Y-83351190D02*
X69455476Y-83255952D01*
X69455476Y-83255952D02*
X69550714Y-83160714D01*
X69550714Y-83160714D02*
X69598333Y-83065476D01*
%TO.C,D3*%
X78488094Y-121937619D02*
X78488094Y-120937619D01*
X78488094Y-120937619D02*
X78249999Y-120937619D01*
X78249999Y-120937619D02*
X78107142Y-120985238D01*
X78107142Y-120985238D02*
X78011904Y-121080476D01*
X78011904Y-121080476D02*
X77964285Y-121175714D01*
X77964285Y-121175714D02*
X77916666Y-121366190D01*
X77916666Y-121366190D02*
X77916666Y-121509047D01*
X77916666Y-121509047D02*
X77964285Y-121699523D01*
X77964285Y-121699523D02*
X78011904Y-121794761D01*
X78011904Y-121794761D02*
X78107142Y-121890000D01*
X78107142Y-121890000D02*
X78249999Y-121937619D01*
X78249999Y-121937619D02*
X78488094Y-121937619D01*
X77583332Y-120937619D02*
X76964285Y-120937619D01*
X76964285Y-120937619D02*
X77297618Y-121318571D01*
X77297618Y-121318571D02*
X77154761Y-121318571D01*
X77154761Y-121318571D02*
X77059523Y-121366190D01*
X77059523Y-121366190D02*
X77011904Y-121413809D01*
X77011904Y-121413809D02*
X76964285Y-121509047D01*
X76964285Y-121509047D02*
X76964285Y-121747142D01*
X76964285Y-121747142D02*
X77011904Y-121842380D01*
X77011904Y-121842380D02*
X77059523Y-121890000D01*
X77059523Y-121890000D02*
X77154761Y-121937619D01*
X77154761Y-121937619D02*
X77440475Y-121937619D01*
X77440475Y-121937619D02*
X77535713Y-121890000D01*
X77535713Y-121890000D02*
X77583332Y-121842380D01*
%TO.C,Q5*%
X73895238Y-87957857D02*
X73990476Y-87910238D01*
X73990476Y-87910238D02*
X74085714Y-87815000D01*
X74085714Y-87815000D02*
X74228571Y-87672142D01*
X74228571Y-87672142D02*
X74323809Y-87624523D01*
X74323809Y-87624523D02*
X74419047Y-87624523D01*
X74371428Y-87862619D02*
X74466666Y-87815000D01*
X74466666Y-87815000D02*
X74561904Y-87719761D01*
X74561904Y-87719761D02*
X74609523Y-87529285D01*
X74609523Y-87529285D02*
X74609523Y-87195952D01*
X74609523Y-87195952D02*
X74561904Y-87005476D01*
X74561904Y-87005476D02*
X74466666Y-86910238D01*
X74466666Y-86910238D02*
X74371428Y-86862619D01*
X74371428Y-86862619D02*
X74180952Y-86862619D01*
X74180952Y-86862619D02*
X74085714Y-86910238D01*
X74085714Y-86910238D02*
X73990476Y-87005476D01*
X73990476Y-87005476D02*
X73942857Y-87195952D01*
X73942857Y-87195952D02*
X73942857Y-87529285D01*
X73942857Y-87529285D02*
X73990476Y-87719761D01*
X73990476Y-87719761D02*
X74085714Y-87815000D01*
X74085714Y-87815000D02*
X74180952Y-87862619D01*
X74180952Y-87862619D02*
X74371428Y-87862619D01*
X73038095Y-86862619D02*
X73514285Y-86862619D01*
X73514285Y-86862619D02*
X73561904Y-87338809D01*
X73561904Y-87338809D02*
X73514285Y-87291190D01*
X73514285Y-87291190D02*
X73419047Y-87243571D01*
X73419047Y-87243571D02*
X73180952Y-87243571D01*
X73180952Y-87243571D02*
X73085714Y-87291190D01*
X73085714Y-87291190D02*
X73038095Y-87338809D01*
X73038095Y-87338809D02*
X72990476Y-87434047D01*
X72990476Y-87434047D02*
X72990476Y-87672142D01*
X72990476Y-87672142D02*
X73038095Y-87767380D01*
X73038095Y-87767380D02*
X73085714Y-87815000D01*
X73085714Y-87815000D02*
X73180952Y-87862619D01*
X73180952Y-87862619D02*
X73419047Y-87862619D01*
X73419047Y-87862619D02*
X73514285Y-87815000D01*
X73514285Y-87815000D02*
X73561904Y-87767380D01*
%TO.C,C4*%
X68716666Y-102917380D02*
X68764285Y-102965000D01*
X68764285Y-102965000D02*
X68907142Y-103012619D01*
X68907142Y-103012619D02*
X69002380Y-103012619D01*
X69002380Y-103012619D02*
X69145237Y-102965000D01*
X69145237Y-102965000D02*
X69240475Y-102869761D01*
X69240475Y-102869761D02*
X69288094Y-102774523D01*
X69288094Y-102774523D02*
X69335713Y-102584047D01*
X69335713Y-102584047D02*
X69335713Y-102441190D01*
X69335713Y-102441190D02*
X69288094Y-102250714D01*
X69288094Y-102250714D02*
X69240475Y-102155476D01*
X69240475Y-102155476D02*
X69145237Y-102060238D01*
X69145237Y-102060238D02*
X69002380Y-102012619D01*
X69002380Y-102012619D02*
X68907142Y-102012619D01*
X68907142Y-102012619D02*
X68764285Y-102060238D01*
X68764285Y-102060238D02*
X68716666Y-102107857D01*
X67859523Y-102345952D02*
X67859523Y-103012619D01*
X68097618Y-101965000D02*
X68335713Y-102679285D01*
X68335713Y-102679285D02*
X67716666Y-102679285D01*
%TO.C,C1*%
X80216666Y-98617380D02*
X80264285Y-98665000D01*
X80264285Y-98665000D02*
X80407142Y-98712619D01*
X80407142Y-98712619D02*
X80502380Y-98712619D01*
X80502380Y-98712619D02*
X80645237Y-98665000D01*
X80645237Y-98665000D02*
X80740475Y-98569761D01*
X80740475Y-98569761D02*
X80788094Y-98474523D01*
X80788094Y-98474523D02*
X80835713Y-98284047D01*
X80835713Y-98284047D02*
X80835713Y-98141190D01*
X80835713Y-98141190D02*
X80788094Y-97950714D01*
X80788094Y-97950714D02*
X80740475Y-97855476D01*
X80740475Y-97855476D02*
X80645237Y-97760238D01*
X80645237Y-97760238D02*
X80502380Y-97712619D01*
X80502380Y-97712619D02*
X80407142Y-97712619D01*
X80407142Y-97712619D02*
X80264285Y-97760238D01*
X80264285Y-97760238D02*
X80216666Y-97807857D01*
X79264285Y-98712619D02*
X79835713Y-98712619D01*
X79549999Y-98712619D02*
X79549999Y-97712619D01*
X79549999Y-97712619D02*
X79645237Y-97855476D01*
X79645237Y-97855476D02*
X79740475Y-97950714D01*
X79740475Y-97950714D02*
X79835713Y-97998333D01*
%TO.C,D11*%
X78214285Y-74912619D02*
X78214285Y-73912619D01*
X78214285Y-73912619D02*
X77976190Y-73912619D01*
X77976190Y-73912619D02*
X77833333Y-73960238D01*
X77833333Y-73960238D02*
X77738095Y-74055476D01*
X77738095Y-74055476D02*
X77690476Y-74150714D01*
X77690476Y-74150714D02*
X77642857Y-74341190D01*
X77642857Y-74341190D02*
X77642857Y-74484047D01*
X77642857Y-74484047D02*
X77690476Y-74674523D01*
X77690476Y-74674523D02*
X77738095Y-74769761D01*
X77738095Y-74769761D02*
X77833333Y-74865000D01*
X77833333Y-74865000D02*
X77976190Y-74912619D01*
X77976190Y-74912619D02*
X78214285Y-74912619D01*
X76690476Y-74912619D02*
X77261904Y-74912619D01*
X76976190Y-74912619D02*
X76976190Y-73912619D01*
X76976190Y-73912619D02*
X77071428Y-74055476D01*
X77071428Y-74055476D02*
X77166666Y-74150714D01*
X77166666Y-74150714D02*
X77261904Y-74198333D01*
X75738095Y-74912619D02*
X76309523Y-74912619D01*
X76023809Y-74912619D02*
X76023809Y-73912619D01*
X76023809Y-73912619D02*
X76119047Y-74055476D01*
X76119047Y-74055476D02*
X76214285Y-74150714D01*
X76214285Y-74150714D02*
X76309523Y-74198333D01*
%TO.C,D10*%
X70764285Y-75037619D02*
X70764285Y-74037619D01*
X70764285Y-74037619D02*
X70526190Y-74037619D01*
X70526190Y-74037619D02*
X70383333Y-74085238D01*
X70383333Y-74085238D02*
X70288095Y-74180476D01*
X70288095Y-74180476D02*
X70240476Y-74275714D01*
X70240476Y-74275714D02*
X70192857Y-74466190D01*
X70192857Y-74466190D02*
X70192857Y-74609047D01*
X70192857Y-74609047D02*
X70240476Y-74799523D01*
X70240476Y-74799523D02*
X70288095Y-74894761D01*
X70288095Y-74894761D02*
X70383333Y-74990000D01*
X70383333Y-74990000D02*
X70526190Y-75037619D01*
X70526190Y-75037619D02*
X70764285Y-75037619D01*
X69240476Y-75037619D02*
X69811904Y-75037619D01*
X69526190Y-75037619D02*
X69526190Y-74037619D01*
X69526190Y-74037619D02*
X69621428Y-74180476D01*
X69621428Y-74180476D02*
X69716666Y-74275714D01*
X69716666Y-74275714D02*
X69811904Y-74323333D01*
X68621428Y-74037619D02*
X68526190Y-74037619D01*
X68526190Y-74037619D02*
X68430952Y-74085238D01*
X68430952Y-74085238D02*
X68383333Y-74132857D01*
X68383333Y-74132857D02*
X68335714Y-74228095D01*
X68335714Y-74228095D02*
X68288095Y-74418571D01*
X68288095Y-74418571D02*
X68288095Y-74656666D01*
X68288095Y-74656666D02*
X68335714Y-74847142D01*
X68335714Y-74847142D02*
X68383333Y-74942380D01*
X68383333Y-74942380D02*
X68430952Y-74990000D01*
X68430952Y-74990000D02*
X68526190Y-75037619D01*
X68526190Y-75037619D02*
X68621428Y-75037619D01*
X68621428Y-75037619D02*
X68716666Y-74990000D01*
X68716666Y-74990000D02*
X68764285Y-74942380D01*
X68764285Y-74942380D02*
X68811904Y-74847142D01*
X68811904Y-74847142D02*
X68859523Y-74656666D01*
X68859523Y-74656666D02*
X68859523Y-74418571D01*
X68859523Y-74418571D02*
X68811904Y-74228095D01*
X68811904Y-74228095D02*
X68764285Y-74132857D01*
X68764285Y-74132857D02*
X68716666Y-74085238D01*
X68716666Y-74085238D02*
X68621428Y-74037619D01*
%TO.C,C7*%
X75091666Y-103167380D02*
X75139285Y-103215000D01*
X75139285Y-103215000D02*
X75282142Y-103262619D01*
X75282142Y-103262619D02*
X75377380Y-103262619D01*
X75377380Y-103262619D02*
X75520237Y-103215000D01*
X75520237Y-103215000D02*
X75615475Y-103119761D01*
X75615475Y-103119761D02*
X75663094Y-103024523D01*
X75663094Y-103024523D02*
X75710713Y-102834047D01*
X75710713Y-102834047D02*
X75710713Y-102691190D01*
X75710713Y-102691190D02*
X75663094Y-102500714D01*
X75663094Y-102500714D02*
X75615475Y-102405476D01*
X75615475Y-102405476D02*
X75520237Y-102310238D01*
X75520237Y-102310238D02*
X75377380Y-102262619D01*
X75377380Y-102262619D02*
X75282142Y-102262619D01*
X75282142Y-102262619D02*
X75139285Y-102310238D01*
X75139285Y-102310238D02*
X75091666Y-102357857D01*
X74758332Y-102262619D02*
X74091666Y-102262619D01*
X74091666Y-102262619D02*
X74520237Y-103262619D01*
%TO.C,U1*%
X81636904Y-109362619D02*
X81636904Y-110172142D01*
X81636904Y-110172142D02*
X81589285Y-110267380D01*
X81589285Y-110267380D02*
X81541666Y-110315000D01*
X81541666Y-110315000D02*
X81446428Y-110362619D01*
X81446428Y-110362619D02*
X81255952Y-110362619D01*
X81255952Y-110362619D02*
X81160714Y-110315000D01*
X81160714Y-110315000D02*
X81113095Y-110267380D01*
X81113095Y-110267380D02*
X81065476Y-110172142D01*
X81065476Y-110172142D02*
X81065476Y-109362619D01*
X80065476Y-110362619D02*
X80636904Y-110362619D01*
X80351190Y-110362619D02*
X80351190Y-109362619D01*
X80351190Y-109362619D02*
X80446428Y-109505476D01*
X80446428Y-109505476D02*
X80541666Y-109600714D01*
X80541666Y-109600714D02*
X80636904Y-109648333D01*
%TO.C,R6*%
X76566666Y-105962619D02*
X76899999Y-105486428D01*
X77138094Y-105962619D02*
X77138094Y-104962619D01*
X77138094Y-104962619D02*
X76757142Y-104962619D01*
X76757142Y-104962619D02*
X76661904Y-105010238D01*
X76661904Y-105010238D02*
X76614285Y-105057857D01*
X76614285Y-105057857D02*
X76566666Y-105153095D01*
X76566666Y-105153095D02*
X76566666Y-105295952D01*
X76566666Y-105295952D02*
X76614285Y-105391190D01*
X76614285Y-105391190D02*
X76661904Y-105438809D01*
X76661904Y-105438809D02*
X76757142Y-105486428D01*
X76757142Y-105486428D02*
X77138094Y-105486428D01*
X75709523Y-104962619D02*
X75899999Y-104962619D01*
X75899999Y-104962619D02*
X75995237Y-105010238D01*
X75995237Y-105010238D02*
X76042856Y-105057857D01*
X76042856Y-105057857D02*
X76138094Y-105200714D01*
X76138094Y-105200714D02*
X76185713Y-105391190D01*
X76185713Y-105391190D02*
X76185713Y-105772142D01*
X76185713Y-105772142D02*
X76138094Y-105867380D01*
X76138094Y-105867380D02*
X76090475Y-105915000D01*
X76090475Y-105915000D02*
X75995237Y-105962619D01*
X75995237Y-105962619D02*
X75804761Y-105962619D01*
X75804761Y-105962619D02*
X75709523Y-105915000D01*
X75709523Y-105915000D02*
X75661904Y-105867380D01*
X75661904Y-105867380D02*
X75614285Y-105772142D01*
X75614285Y-105772142D02*
X75614285Y-105534047D01*
X75614285Y-105534047D02*
X75661904Y-105438809D01*
X75661904Y-105438809D02*
X75709523Y-105391190D01*
X75709523Y-105391190D02*
X75804761Y-105343571D01*
X75804761Y-105343571D02*
X75995237Y-105343571D01*
X75995237Y-105343571D02*
X76090475Y-105391190D01*
X76090475Y-105391190D02*
X76138094Y-105438809D01*
X76138094Y-105438809D02*
X76185713Y-105534047D01*
%TO.C,R15*%
X80742857Y-105962619D02*
X81076190Y-105486428D01*
X81314285Y-105962619D02*
X81314285Y-104962619D01*
X81314285Y-104962619D02*
X80933333Y-104962619D01*
X80933333Y-104962619D02*
X80838095Y-105010238D01*
X80838095Y-105010238D02*
X80790476Y-105057857D01*
X80790476Y-105057857D02*
X80742857Y-105153095D01*
X80742857Y-105153095D02*
X80742857Y-105295952D01*
X80742857Y-105295952D02*
X80790476Y-105391190D01*
X80790476Y-105391190D02*
X80838095Y-105438809D01*
X80838095Y-105438809D02*
X80933333Y-105486428D01*
X80933333Y-105486428D02*
X81314285Y-105486428D01*
X79790476Y-105962619D02*
X80361904Y-105962619D01*
X80076190Y-105962619D02*
X80076190Y-104962619D01*
X80076190Y-104962619D02*
X80171428Y-105105476D01*
X80171428Y-105105476D02*
X80266666Y-105200714D01*
X80266666Y-105200714D02*
X80361904Y-105248333D01*
X78885714Y-104962619D02*
X79361904Y-104962619D01*
X79361904Y-104962619D02*
X79409523Y-105438809D01*
X79409523Y-105438809D02*
X79361904Y-105391190D01*
X79361904Y-105391190D02*
X79266666Y-105343571D01*
X79266666Y-105343571D02*
X79028571Y-105343571D01*
X79028571Y-105343571D02*
X78933333Y-105391190D01*
X78933333Y-105391190D02*
X78885714Y-105438809D01*
X78885714Y-105438809D02*
X78838095Y-105534047D01*
X78838095Y-105534047D02*
X78838095Y-105772142D01*
X78838095Y-105772142D02*
X78885714Y-105867380D01*
X78885714Y-105867380D02*
X78933333Y-105915000D01*
X78933333Y-105915000D02*
X79028571Y-105962619D01*
X79028571Y-105962619D02*
X79266666Y-105962619D01*
X79266666Y-105962619D02*
X79361904Y-105915000D01*
X79361904Y-105915000D02*
X79409523Y-105867380D01*
%TO.C,SW1*%
X80608332Y-123965000D02*
X80465475Y-124012619D01*
X80465475Y-124012619D02*
X80227380Y-124012619D01*
X80227380Y-124012619D02*
X80132142Y-123965000D01*
X80132142Y-123965000D02*
X80084523Y-123917380D01*
X80084523Y-123917380D02*
X80036904Y-123822142D01*
X80036904Y-123822142D02*
X80036904Y-123726904D01*
X80036904Y-123726904D02*
X80084523Y-123631666D01*
X80084523Y-123631666D02*
X80132142Y-123584047D01*
X80132142Y-123584047D02*
X80227380Y-123536428D01*
X80227380Y-123536428D02*
X80417856Y-123488809D01*
X80417856Y-123488809D02*
X80513094Y-123441190D01*
X80513094Y-123441190D02*
X80560713Y-123393571D01*
X80560713Y-123393571D02*
X80608332Y-123298333D01*
X80608332Y-123298333D02*
X80608332Y-123203095D01*
X80608332Y-123203095D02*
X80560713Y-123107857D01*
X80560713Y-123107857D02*
X80513094Y-123060238D01*
X80513094Y-123060238D02*
X80417856Y-123012619D01*
X80417856Y-123012619D02*
X80179761Y-123012619D01*
X80179761Y-123012619D02*
X80036904Y-123060238D01*
X79703570Y-123012619D02*
X79465475Y-124012619D01*
X79465475Y-124012619D02*
X79274999Y-123298333D01*
X79274999Y-123298333D02*
X79084523Y-124012619D01*
X79084523Y-124012619D02*
X78846428Y-123012619D01*
X77941666Y-124012619D02*
X78513094Y-124012619D01*
X78227380Y-124012619D02*
X78227380Y-123012619D01*
X78227380Y-123012619D02*
X78322618Y-123155476D01*
X78322618Y-123155476D02*
X78417856Y-123250714D01*
X78417856Y-123250714D02*
X78513094Y-123298333D01*
%TO.C,R18*%
X71117857Y-101837619D02*
X71451190Y-101361428D01*
X71689285Y-101837619D02*
X71689285Y-100837619D01*
X71689285Y-100837619D02*
X71308333Y-100837619D01*
X71308333Y-100837619D02*
X71213095Y-100885238D01*
X71213095Y-100885238D02*
X71165476Y-100932857D01*
X71165476Y-100932857D02*
X71117857Y-101028095D01*
X71117857Y-101028095D02*
X71117857Y-101170952D01*
X71117857Y-101170952D02*
X71165476Y-101266190D01*
X71165476Y-101266190D02*
X71213095Y-101313809D01*
X71213095Y-101313809D02*
X71308333Y-101361428D01*
X71308333Y-101361428D02*
X71689285Y-101361428D01*
X70165476Y-101837619D02*
X70736904Y-101837619D01*
X70451190Y-101837619D02*
X70451190Y-100837619D01*
X70451190Y-100837619D02*
X70546428Y-100980476D01*
X70546428Y-100980476D02*
X70641666Y-101075714D01*
X70641666Y-101075714D02*
X70736904Y-101123333D01*
X69594047Y-101266190D02*
X69689285Y-101218571D01*
X69689285Y-101218571D02*
X69736904Y-101170952D01*
X69736904Y-101170952D02*
X69784523Y-101075714D01*
X69784523Y-101075714D02*
X69784523Y-101028095D01*
X69784523Y-101028095D02*
X69736904Y-100932857D01*
X69736904Y-100932857D02*
X69689285Y-100885238D01*
X69689285Y-100885238D02*
X69594047Y-100837619D01*
X69594047Y-100837619D02*
X69403571Y-100837619D01*
X69403571Y-100837619D02*
X69308333Y-100885238D01*
X69308333Y-100885238D02*
X69260714Y-100932857D01*
X69260714Y-100932857D02*
X69213095Y-101028095D01*
X69213095Y-101028095D02*
X69213095Y-101075714D01*
X69213095Y-101075714D02*
X69260714Y-101170952D01*
X69260714Y-101170952D02*
X69308333Y-101218571D01*
X69308333Y-101218571D02*
X69403571Y-101266190D01*
X69403571Y-101266190D02*
X69594047Y-101266190D01*
X69594047Y-101266190D02*
X69689285Y-101313809D01*
X69689285Y-101313809D02*
X69736904Y-101361428D01*
X69736904Y-101361428D02*
X69784523Y-101456666D01*
X69784523Y-101456666D02*
X69784523Y-101647142D01*
X69784523Y-101647142D02*
X69736904Y-101742380D01*
X69736904Y-101742380D02*
X69689285Y-101790000D01*
X69689285Y-101790000D02*
X69594047Y-101837619D01*
X69594047Y-101837619D02*
X69403571Y-101837619D01*
X69403571Y-101837619D02*
X69308333Y-101790000D01*
X69308333Y-101790000D02*
X69260714Y-101742380D01*
X69260714Y-101742380D02*
X69213095Y-101647142D01*
X69213095Y-101647142D02*
X69213095Y-101456666D01*
X69213095Y-101456666D02*
X69260714Y-101361428D01*
X69260714Y-101361428D02*
X69308333Y-101313809D01*
X69308333Y-101313809D02*
X69403571Y-101266190D01*
%TO.C,R13*%
X76792857Y-100562619D02*
X77126190Y-100086428D01*
X77364285Y-100562619D02*
X77364285Y-99562619D01*
X77364285Y-99562619D02*
X76983333Y-99562619D01*
X76983333Y-99562619D02*
X76888095Y-99610238D01*
X76888095Y-99610238D02*
X76840476Y-99657857D01*
X76840476Y-99657857D02*
X76792857Y-99753095D01*
X76792857Y-99753095D02*
X76792857Y-99895952D01*
X76792857Y-99895952D02*
X76840476Y-99991190D01*
X76840476Y-99991190D02*
X76888095Y-100038809D01*
X76888095Y-100038809D02*
X76983333Y-100086428D01*
X76983333Y-100086428D02*
X77364285Y-100086428D01*
X75840476Y-100562619D02*
X76411904Y-100562619D01*
X76126190Y-100562619D02*
X76126190Y-99562619D01*
X76126190Y-99562619D02*
X76221428Y-99705476D01*
X76221428Y-99705476D02*
X76316666Y-99800714D01*
X76316666Y-99800714D02*
X76411904Y-99848333D01*
X75507142Y-99562619D02*
X74888095Y-99562619D01*
X74888095Y-99562619D02*
X75221428Y-99943571D01*
X75221428Y-99943571D02*
X75078571Y-99943571D01*
X75078571Y-99943571D02*
X74983333Y-99991190D01*
X74983333Y-99991190D02*
X74935714Y-100038809D01*
X74935714Y-100038809D02*
X74888095Y-100134047D01*
X74888095Y-100134047D02*
X74888095Y-100372142D01*
X74888095Y-100372142D02*
X74935714Y-100467380D01*
X74935714Y-100467380D02*
X74983333Y-100515000D01*
X74983333Y-100515000D02*
X75078571Y-100562619D01*
X75078571Y-100562619D02*
X75364285Y-100562619D01*
X75364285Y-100562619D02*
X75459523Y-100515000D01*
X75459523Y-100515000D02*
X75507142Y-100467380D01*
%TO.C,Q2*%
X70395238Y-87957857D02*
X70490476Y-87910238D01*
X70490476Y-87910238D02*
X70585714Y-87815000D01*
X70585714Y-87815000D02*
X70728571Y-87672142D01*
X70728571Y-87672142D02*
X70823809Y-87624523D01*
X70823809Y-87624523D02*
X70919047Y-87624523D01*
X70871428Y-87862619D02*
X70966666Y-87815000D01*
X70966666Y-87815000D02*
X71061904Y-87719761D01*
X71061904Y-87719761D02*
X71109523Y-87529285D01*
X71109523Y-87529285D02*
X71109523Y-87195952D01*
X71109523Y-87195952D02*
X71061904Y-87005476D01*
X71061904Y-87005476D02*
X70966666Y-86910238D01*
X70966666Y-86910238D02*
X70871428Y-86862619D01*
X70871428Y-86862619D02*
X70680952Y-86862619D01*
X70680952Y-86862619D02*
X70585714Y-86910238D01*
X70585714Y-86910238D02*
X70490476Y-87005476D01*
X70490476Y-87005476D02*
X70442857Y-87195952D01*
X70442857Y-87195952D02*
X70442857Y-87529285D01*
X70442857Y-87529285D02*
X70490476Y-87719761D01*
X70490476Y-87719761D02*
X70585714Y-87815000D01*
X70585714Y-87815000D02*
X70680952Y-87862619D01*
X70680952Y-87862619D02*
X70871428Y-87862619D01*
X70061904Y-86957857D02*
X70014285Y-86910238D01*
X70014285Y-86910238D02*
X69919047Y-86862619D01*
X69919047Y-86862619D02*
X69680952Y-86862619D01*
X69680952Y-86862619D02*
X69585714Y-86910238D01*
X69585714Y-86910238D02*
X69538095Y-86957857D01*
X69538095Y-86957857D02*
X69490476Y-87053095D01*
X69490476Y-87053095D02*
X69490476Y-87148333D01*
X69490476Y-87148333D02*
X69538095Y-87291190D01*
X69538095Y-87291190D02*
X70109523Y-87862619D01*
X70109523Y-87862619D02*
X69490476Y-87862619D01*
D11*
%TO.C,D2*%
X73015000Y-124985000D02*
X73015000Y-122525000D01*
X74485000Y-124985000D02*
X73015000Y-124985000D01*
X74485000Y-122525000D02*
X74485000Y-124985000D01*
%TO.C,R27*%
X80077500Y-85354724D02*
X80077500Y-84845276D01*
X81122500Y-85354724D02*
X81122500Y-84845276D01*
%TO.C,Q6*%
X74490000Y-88737500D02*
X74490000Y-89387500D01*
X74490000Y-88737500D02*
X74490000Y-88087500D01*
X77610000Y-88737500D02*
X77610000Y-90412500D01*
X77610000Y-88737500D02*
X77610000Y-88087500D01*
%TO.C,C2*%
X75615000Y-115296267D02*
X75615000Y-115003733D01*
X76635000Y-115296267D02*
X76635000Y-115003733D01*
%TO.C,U3*%
X77225000Y-120405000D02*
X78365000Y-120405000D01*
X78365000Y-115915000D02*
X78365000Y-116145000D01*
X78365000Y-120635000D02*
X78365000Y-120405000D01*
X78365000Y-120635000D02*
X81085000Y-120635000D01*
X81085000Y-115915000D02*
X78365000Y-115915000D01*
X81085000Y-117225000D02*
X81085000Y-115915000D01*
X81085000Y-120635000D02*
X81085000Y-119325000D01*
%TO.C,R2*%
X72117224Y-121297500D02*
X71607776Y-121297500D01*
X72117224Y-120252500D02*
X71607776Y-120252500D01*
%TO.C,JP3*%
X69710000Y-119860000D02*
X68907530Y-119860000D01*
X69710000Y-117385000D02*
X69710000Y-119860000D01*
X69710000Y-117385000D02*
X69163471Y-117385000D01*
X69710000Y-116625000D02*
X69710000Y-115865000D01*
X69710000Y-115865000D02*
X68600000Y-115865000D01*
X68292470Y-119860000D02*
X67490000Y-119860000D01*
X68036529Y-117385000D02*
X67490000Y-117385000D01*
X67490000Y-117385000D02*
X67490000Y-119860000D01*
D12*
%TO.C,U9*%
X79374600Y-82342200D02*
X76123400Y-82342200D01*
X76123400Y-80157800D02*
X79374600Y-80157800D01*
D11*
%TO.C,Q7*%
X78090000Y-88737500D02*
X78090000Y-89387500D01*
X78090000Y-88737500D02*
X78090000Y-88087500D01*
X81210000Y-88737500D02*
X81210000Y-90412500D01*
X81210000Y-88737500D02*
X81210000Y-88087500D01*
%TO.C,R26*%
X74577500Y-85342224D02*
X74577500Y-84832776D01*
X75622500Y-85342224D02*
X75622500Y-84832776D01*
%TO.C,Q1*%
X77871000Y-108037500D02*
X77871000Y-107387500D01*
X77871000Y-108037500D02*
X77871000Y-108687500D01*
X74751000Y-108037500D02*
X74751000Y-106362500D01*
X74751000Y-108037500D02*
X74751000Y-108687500D01*
%TO.C,R12*%
X78677500Y-95417224D02*
X78677500Y-94907776D01*
X79722500Y-95417224D02*
X79722500Y-94907776D01*
%TO.C,R28*%
X78177500Y-85342224D02*
X78177500Y-84832776D01*
X79222500Y-85342224D02*
X79222500Y-84832776D01*
%TO.C,R3*%
X75442224Y-121297500D02*
X74932776Y-121297500D01*
X75442224Y-120252500D02*
X74932776Y-120252500D01*
%TO.C,R17*%
X79657776Y-74902500D02*
X80167224Y-74902500D01*
X79657776Y-75947500D02*
X80167224Y-75947500D01*
%TO.C,C3*%
X75615000Y-111758767D02*
X75615000Y-111466233D01*
X76635000Y-111758767D02*
X76635000Y-111466233D01*
%TO.C,Q3*%
X81460000Y-108037500D02*
X81460000Y-107387500D01*
X81460000Y-108037500D02*
X81460000Y-108687500D01*
X78340000Y-108037500D02*
X78340000Y-106362500D01*
X78340000Y-108037500D02*
X78340000Y-108687500D01*
%TO.C,D9*%
X66900000Y-78960000D02*
X66900000Y-75700000D01*
X68600000Y-78960000D02*
X66900000Y-78960000D01*
X68600000Y-78960000D02*
X68600000Y-75700000D01*
%TO.C,R24*%
X70977500Y-85367224D02*
X70977500Y-84857776D01*
X72022500Y-85367224D02*
X72022500Y-84857776D01*
%TO.C,D12*%
X70725000Y-78935000D02*
X70725000Y-75675000D01*
X72425000Y-78935000D02*
X70725000Y-78935000D01*
X72425000Y-78935000D02*
X72425000Y-75675000D01*
%TO.C,C5*%
X67940000Y-104908767D02*
X67940000Y-104616233D01*
X68960000Y-104908767D02*
X68960000Y-104616233D01*
%TO.C,R22*%
X67577500Y-85367224D02*
X67577500Y-84857776D01*
X68622500Y-85367224D02*
X68622500Y-84857776D01*
%TO.C,R25*%
X76477500Y-85342224D02*
X76477500Y-84832776D01*
X77522500Y-85342224D02*
X77522500Y-84832776D01*
%TO.C,R23*%
X72877500Y-85342224D02*
X72877500Y-84832776D01*
X73922500Y-85342224D02*
X73922500Y-84832776D01*
%TO.C,U7*%
X67140000Y-106925000D02*
X67140000Y-112935000D01*
X73960000Y-109175000D02*
X73960000Y-112935000D01*
X73960000Y-112935000D02*
X72700000Y-112935000D01*
X67140000Y-112935000D02*
X68400000Y-112935000D01*
%TO.C,R14*%
X72642224Y-100622500D02*
X72132776Y-100622500D01*
X72642224Y-99577500D02*
X72132776Y-99577500D01*
%TO.C,Q4*%
X81535000Y-78087500D02*
X81535000Y-77437500D01*
X81535000Y-78087500D02*
X81535000Y-78737500D01*
X78415000Y-78087500D02*
X78415000Y-76412500D01*
X78415000Y-78087500D02*
X78415000Y-78737500D01*
%TO.C,R4*%
X79782776Y-100477500D02*
X80292224Y-100477500D01*
X79782776Y-101522500D02*
X80292224Y-101522500D01*
%TO.C,R21*%
X69377500Y-85367224D02*
X69377500Y-84857776D01*
X70422500Y-85367224D02*
X70422500Y-84857776D01*
%TO.C,D3*%
X75190000Y-124985000D02*
X75190000Y-122525000D01*
X76660000Y-124985000D02*
X75190000Y-124985000D01*
X76660000Y-122525000D02*
X76660000Y-124985000D01*
%TO.C,U10*%
X67590000Y-97435000D02*
X67870000Y-97435000D01*
X77830000Y-97435000D02*
X77830000Y-99100000D01*
X78110000Y-97435000D02*
X77830000Y-97435000D01*
X67590000Y-95050000D02*
X67590000Y-97435000D01*
X67590000Y-95050000D02*
X67590000Y-92665000D01*
X78110000Y-95050000D02*
X78110000Y-97435000D01*
X78110000Y-95050000D02*
X78110000Y-92665000D01*
X67590000Y-92665000D02*
X67870000Y-92665000D01*
X78110000Y-92665000D02*
X77830000Y-92665000D01*
%TO.C,Q5*%
X70940000Y-88737500D02*
X70940000Y-89387500D01*
X70940000Y-88737500D02*
X70940000Y-88087500D01*
X74060000Y-88737500D02*
X74060000Y-90412500D01*
X74060000Y-88737500D02*
X74060000Y-88087500D01*
%TO.C,C4*%
X69640000Y-104961252D02*
X69640000Y-103538748D01*
X71460000Y-104961252D02*
X71460000Y-103538748D01*
%TO.C,C1*%
X80183767Y-99960000D02*
X79891233Y-99960000D01*
X80183767Y-98940000D02*
X79891233Y-98940000D01*
%TO.C,D11*%
X76350000Y-78960000D02*
X76350000Y-75700000D01*
X78050000Y-78960000D02*
X76350000Y-78960000D01*
X78050000Y-78960000D02*
X78050000Y-75700000D01*
%TO.C,D10*%
X68825000Y-78935000D02*
X68825000Y-75675000D01*
X70525000Y-78935000D02*
X68825000Y-78935000D01*
X70525000Y-78935000D02*
X70525000Y-75675000D01*
%TO.C,C7*%
X72065000Y-104961252D02*
X72065000Y-103538748D01*
X73885000Y-104961252D02*
X73885000Y-103538748D01*
%TO.C,J2*%
X81435000Y-63420000D02*
X81435000Y-69890000D01*
X79375000Y-63420000D02*
X79375000Y-69890000D01*
X77375000Y-63420000D02*
X77375000Y-69890000D01*
X75375000Y-63420000D02*
X75375000Y-69890000D01*
X73375000Y-63420000D02*
X73375000Y-69890000D01*
X71375000Y-63420000D02*
X71375000Y-69890000D01*
X69375000Y-63420000D02*
X69375000Y-69890000D01*
X69260888Y-63420000D02*
X69260888Y-69890000D01*
X69146770Y-63420000D02*
X69146770Y-69890000D01*
X69032652Y-63420000D02*
X69032652Y-69890000D01*
X68918534Y-63420000D02*
X68918534Y-69890000D01*
X68804416Y-63420000D02*
X68804416Y-69890000D01*
X68690298Y-63420000D02*
X68690298Y-69890000D01*
X68576180Y-63420000D02*
X68576180Y-69890000D01*
X68462062Y-63420000D02*
X68462062Y-69890000D01*
X68347944Y-63420000D02*
X68347944Y-69890000D01*
X68233826Y-63420000D02*
X68233826Y-69890000D01*
X68119708Y-63420000D02*
X68119708Y-69890000D01*
X68005590Y-63420000D02*
X68005590Y-69890000D01*
X67891472Y-63420000D02*
X67891472Y-69890000D01*
X67777354Y-63420000D02*
X67777354Y-69890000D01*
X67663236Y-63420000D02*
X67663236Y-69890000D01*
X67549118Y-63420000D02*
X67549118Y-69890000D01*
X67435000Y-63420000D02*
X67435000Y-69890000D01*
X67315000Y-63420000D02*
X81435000Y-63420000D01*
X67315000Y-63420000D02*
X67315000Y-69890000D01*
X80735000Y-69890000D02*
X80735000Y-70237083D01*
X80015000Y-69890000D02*
X80015000Y-70237083D01*
X78735000Y-69890000D02*
X78735000Y-70237083D01*
X78015000Y-69890000D02*
X78015000Y-70237083D01*
X76735000Y-69890000D02*
X76735000Y-70237083D01*
X76015000Y-69890000D02*
X76015000Y-70237083D01*
X74735000Y-69890000D02*
X74735000Y-70237083D01*
X74015000Y-69890000D02*
X74015000Y-70237083D01*
X72735000Y-69890000D02*
X72735000Y-70237083D01*
X72015000Y-69890000D02*
X72015000Y-70237083D01*
X70735000Y-69890000D02*
X70735000Y-70237083D01*
X70015000Y-69890000D02*
X70015000Y-70237083D01*
X68735000Y-69890000D02*
X68735000Y-70237083D01*
X68015000Y-69890000D02*
X68015000Y-70237083D01*
X67315000Y-69890000D02*
X81435000Y-69890000D01*
X80735000Y-71962917D02*
X80735000Y-72237083D01*
X80015000Y-71962917D02*
X80015000Y-72237083D01*
X78735000Y-71962917D02*
X78735000Y-72237083D01*
X78015000Y-71962917D02*
X78015000Y-72237083D01*
X76735000Y-71962917D02*
X76735000Y-72237083D01*
X76015000Y-71962917D02*
X76015000Y-72237083D01*
X74735000Y-71962917D02*
X74735000Y-72237083D01*
X74015000Y-71962917D02*
X74015000Y-72237083D01*
X72735000Y-71962917D02*
X72735000Y-72237083D01*
X72015000Y-71962917D02*
X72015000Y-72237083D01*
X70735000Y-71962917D02*
X70735000Y-72237083D01*
X70015000Y-71962917D02*
X70015000Y-72237083D01*
X68735000Y-71962917D02*
X68735000Y-72165000D01*
X68015000Y-71962917D02*
X68015000Y-72165000D01*
X67315000Y-73100000D02*
X67315000Y-74035000D01*
X67315000Y-74035000D02*
X68375000Y-74035000D01*
%TO.C,J4*%
X67540000Y-121560000D02*
X68342470Y-121560000D01*
X67540000Y-122765000D02*
X67540000Y-121560000D01*
X67540000Y-122765000D02*
X68086529Y-122765000D01*
X67540000Y-123525000D02*
X67540000Y-124285000D01*
X67540000Y-124285000D02*
X68650000Y-124285000D01*
X68957530Y-121560000D02*
X69760000Y-121560000D01*
X69213471Y-122765000D02*
X69760000Y-122765000D01*
X69760000Y-122765000D02*
X69760000Y-121560000D01*
%TO.C,U1*%
X77225000Y-115130000D02*
X78365000Y-115130000D01*
X78365000Y-110640000D02*
X78365000Y-110870000D01*
X78365000Y-115360000D02*
X78365000Y-115130000D01*
X78365000Y-115360000D02*
X81085000Y-115360000D01*
X81085000Y-110640000D02*
X78365000Y-110640000D01*
X81085000Y-111950000D02*
X81085000Y-110640000D01*
X81085000Y-115360000D02*
X81085000Y-114050000D01*
%TO.C,R6*%
X76182776Y-103690000D02*
X76692224Y-103690000D01*
X76182776Y-104735000D02*
X76692224Y-104735000D01*
%TO.C,R15*%
X79782776Y-103690000D02*
X80292224Y-103690000D01*
X79782776Y-104735000D02*
X80292224Y-104735000D01*
%TO.C,SW1*%
X77675000Y-122125000D02*
X80975000Y-122125000D01*
X77675000Y-122425000D02*
X77675000Y-122125000D01*
X77675000Y-124625000D02*
X77675000Y-124925000D01*
X77675000Y-124925000D02*
X80975000Y-124925000D01*
X78325000Y-125245000D02*
X78325000Y-124925000D01*
X78825000Y-125625000D02*
X78325000Y-125245000D01*
X78825000Y-125625000D02*
X79825000Y-125625000D01*
X79825000Y-125625000D02*
X80325000Y-125245000D01*
X80325000Y-125245000D02*
X80325000Y-124925000D01*
X80975000Y-122125000D02*
X80975000Y-122425000D01*
X80975000Y-124925000D02*
X80975000Y-124625000D01*
%TO.C,R18*%
X69342224Y-100622500D02*
X68832776Y-100622500D01*
X69342224Y-99577500D02*
X68832776Y-99577500D01*
%TO.C,U2*%
X84494000Y-122530000D02*
X81834000Y-122530000D01*
X84494000Y-71682000D02*
X84494000Y-122530000D01*
X84494000Y-71682000D02*
X81834000Y-71682000D01*
X81834000Y-71682000D02*
X81834000Y-122530000D01*
X66930000Y-122530000D02*
X64270000Y-122530000D01*
X66930000Y-71682000D02*
X66930000Y-122530000D01*
X66930000Y-71682000D02*
X64270000Y-71682000D01*
X64270000Y-71682000D02*
X64270000Y-122530000D01*
%TO.C,R13*%
X76442224Y-101822500D02*
X75932776Y-101822500D01*
X76442224Y-100777500D02*
X75932776Y-100777500D01*
%TO.C,Q2*%
X67440000Y-88737500D02*
X67440000Y-89387500D01*
X67440000Y-88737500D02*
X67440000Y-88087500D01*
X70560000Y-88737500D02*
X70560000Y-90412500D01*
X70560000Y-88737500D02*
X70560000Y-88087500D01*
%TD*%
M02*
